999
dxfrw 0.5.4
0
SECTION
2
HEADER
9
$ACADVER
1
AC1021
9
$HANDSEED
5
20000
9
$DWGCODEPAGE
3
ANSI_1252
9
$INSBASE
10
0
20
0
30
0
9
$EXTMIN
10
-8.98477113097
20
2.91456352187
30
0
9
$EXTMAX
10
18.3993501741
20
17.6638055739
30
0
9
$LIMMIN
10
0
20
0
9
$LIMMAX
10
12
20
9
9
$ORTHOMODE
70
0
9
$LTSCALE
40
1
9
$TEXTSTYLE
7
STANDARD
9
$DIMASZ
40
0.18
9
$DIMEXO
40
0.0625
9
$DIMEXE
40
0.18
9
$DIMTXT
40
0.18
9
$DIMTSZ
40
0
9
$DIMAUNIT
70
0
9
$DIMADEC
70
0
9
$DIMSTYLE
2
STANDARD
9
$DIMGAP
40
0.09
9
$DIMTIH
70
1
9
$LUNITS
70
2
9
$LUPREC
70
4
9
$AUNITS
70
0
9
$AUPREC
70
0
9
$SPLINESEGS
70
8
9
$GRIDMODE
70
0
9
$SNAPSTYLE
70
0
9
$PINSBASE
10
0
20
0
30
0
9
$PLIMMIN
10
0
20
0
9
$PLIMMAX
10
12
20
9
9
$INSUNITS
70
4
9
$PSVPSCALE
40
0
0
ENDSEC
0
SECTION
2
CLASSES
0
ENDSEC
0
SECTION
2
TABLES
0
TABLE
2
VPORT
5
8
330
0
100
AcDbSymbolTable
70
1
0
VPORT
5
31
330
2
100
AcDbSymbolTableRecord
100
AcDbViewportTableRecord
2
*ACTIVE
70
0
10
0
20
0
11
1
21
1
12
20.8793358822
22
15.6854712349
13
0
23
0
14
10
24
10
15
10
25
10
16
0
26
0
36
1
17
0
27
0
37
0
40
29.9166603686
41
1.81134259259
42
50
43
0
44
0
50
0
51
0
71
0
72
100
73
1
74
3
75
0
76
0
77
0
78
0
281
0
65
1
110
0
120
0
130
0
111
1
121
0
131
0
112
0
122
1
132
0
79
0
146
0
348
10020
60
7
61
5
292
1
282
1
141
0
142
0
63
250
421
3358443
0
ENDTAB
0
TABLE
2
LTYPE
5
5
330
0
100
AcDbSymbolTable
70
4
0
LTYPE
5
14
330
5
100
AcDbSymbolTableRecord
100
AcDbLinetypeTableRecord
2
ByBlock
70
0
3

72
65
73
0
40
0
0
LTYPE
5
15
330
5
100
AcDbSymbolTableRecord
100
AcDbLinetypeTableRecord
2
ByLayer
70
0
3

72
65
73
0
40
0
0
LTYPE
5
16
330
5
100
AcDbSymbolTableRecord
100
AcDbLinetypeTableRecord
2
Continuous
70
0
3
Solid line
72
65
73
0
40
0
0
LTYPE
5
32
330
5
100
AcDbSymbolTableRecord
100
AcDbLinetypeTableRecord
2
DOT
70
0
3
Dot . . . . . . . . . . . . . . . . . . . . . .
72
65
73
2
40
6.35
49
0
74
0
49
-6.35
74
0
0
LTYPE
5
33
330
5
100
AcDbSymbolTableRecord
100
AcDbLinetypeTableRecord
2
DOT2
70
0
3
Dot (.5x) .....................................
72
65
73
2
40
3.175
49
0
74
0
49
-3.175
74
0
0
LTYPE
5
34
330
5
100
AcDbSymbolTableRecord
100
AcDbLinetypeTableRecord
2
DOTX2
70
0
3
Dot (2x) .  .  .  .  .  .  .  .  .  .  .  .  .
72
65
73
2
40
12.7
49
0
74
0
49
-12.7
74
0
0
LTYPE
5
35
330
5
100
AcDbSymbolTableRecord
100
AcDbLinetypeTableRecord
2
DASHED
70
0
3
Dot . . . . . . . . . . . . . . . . . . . . . .
72
65
73
2
40
19.05
49
12.7
74
0
49
-6.35
74
0
0
LTYPE
5
36
330
5
100
AcDbSymbolTableRecord
100
AcDbLinetypeTableRecord
2
DASHED2
70
0
3
Dashed (.5x) _ _ _ _ _ _ _ _ _ _ _ _ _ _ _ _ _
72
65
73
2
40
9.525
49
6.35
74
0
49
-3.175
74
0
0
LTYPE
5
37
330
5
100
AcDbSymbolTableRecord
100
AcDbLinetypeTableRecord
2
DASHEDX2
70
0
3
Dashed (2x) ____  ____  ____  ____  ____  ___
72
65
73
2
40
38.1
49
25.4
74
0
49
-12.7
74
0
0
LTYPE
5
38
330
5
100
AcDbSymbolTableRecord
100
AcDbLinetypeTableRecord
2
DASHDOT
70
0
3
Dash dot __ . __ . __ . __ . __ . __ . __ . __
72
65
73
4
40
25.4
49
12.7
74
0
49
-6.35
74
0
49
0
74
0
49
-6.35
74
0
0
LTYPE
5
39
330
5
100
AcDbSymbolTableRecord
100
AcDbLinetypeTableRecord
2
DASHDOT2
70
0
3
Dash dot (.5x) _._._._._._._._._._._._._._._.
72
65
73
4
40
12.7
49
6.35
74
0
49
-3.175
74
0
49
0
74
0
49
-3.175
74
0
0
LTYPE
5
3A
330
5
100
AcDbSymbolTableRecord
100
AcDbLinetypeTableRecord
2
DASHDOTX2
70
0
3
Dash dot (2x) ____  .  ____  .  ____  .  ___
72
65
73
4
40
50.8
49
25.4
74
0
49
-12.7
74
0
49
0
74
0
49
-12.7
74
0
0
LTYPE
5
3B
330
5
100
AcDbSymbolTableRecord
100
AcDbLinetypeTableRecord
2
DIVIDE
70
0
3
Divide ____ . . ____ . . ____ . . ____ . . ____
72
65
73
6
40
31.75
49
12.7
74
0
49
-6.35
74
0
49
0
74
0
49
-6.35
74
0
49
0
74
0
49
-6.35
74
0
0
LTYPE
5
3C
330
5
100
AcDbSymbolTableRecord
100
AcDbLinetypeTableRecord
2
DIVIDE2
70
0
3
Divide (.5x) __..__..__..__..__..__..__..__.._
72
65
73
6
40
15.875
49
6.35
74
0
49
-3.175
74
0
49
0
74
0
49
-3.175
74
0
49
0
74
0
49
-3.175
74
0
0
LTYPE
5
3D
330
5
100
AcDbSymbolTableRecord
100
AcDbLinetypeTableRecord
2
DIVIDEX2
70
0
3
Divide (2x) ________  .  .  ________  .  .  _
72
65
73
6
40
63.5
49
25.4
74
0
49
-12.7
74
0
49
0
74
0
49
-12.7
74
0
49
0
74
0
49
-12.7
74
0
0
LTYPE
5
3E
330
5
100
AcDbSymbolTableRecord
100
AcDbLinetypeTableRecord
2
BORDER
70
0
3
Border __ __ . __ __ . __ __ . __ __ . __ __ .
72
65
73
6
40
44.45
49
12.7
74
0
49
-6.35
74
0
49
12.7
74
0
49
-6.35
74
0
49
0
74
0
49
-6.35
74
0
0
LTYPE
5
3F
330
5
100
AcDbSymbolTableRecord
100
AcDbLinetypeTableRecord
2
BORDER2
70
0
3
Border (.5x) __.__.__.__.__.__.__.__.__.__.__.
72
65
73
6
40
22.225
49
6.35
74
0
49
-3.175
74
0
49
6.35
74
0
49
-3.175
74
0
49
0
74
0
49
-3.175
74
0
0
LTYPE
5
40
330
5
100
AcDbSymbolTableRecord
100
AcDbLinetypeTableRecord
2
BORDERX2
70
0
3
Border (2x) ____  ____  .  ____  ____  .  ___
72
65
73
6
40
88.9
49
25.4
74
0
49
-12.7
74
0
49
25.4
74
0
49
-12.7
74
0
49
0
74
0
49
-12.7
74
0
0
LTYPE
5
41
330
5
100
AcDbSymbolTableRecord
100
AcDbLinetypeTableRecord
2
CENTER
70
0
3
Center ____ _ ____ _ ____ _ ____ _ ____ _ ____
72
65
73
4
40
50.8
49
31.75
74
0
49
-6.35
74
0
49
6.35
74
0
49
-6.35
74
0
0
LTYPE
5
42
330
5
100
AcDbSymbolTableRecord
100
AcDbLinetypeTableRecord
2
CENTER2
70
0
3
Center (.5x) ___ _ ___ _ ___ _ ___ _ ___ _ ___
72
65
73
4
40
28.575
49
19.05
74
0
49
-3.175
74
0
49
3.175
74
0
49
-3.175
74
0
0
LTYPE
5
43
330
5
100
AcDbSymbolTableRecord
100
AcDbLinetypeTableRecord
2
CENTERX2
70
0
3
Center (2x) ________  __  ________  __  _____
72
65
73
4
40
101.6
49
63.5
74
0
49
-12.7
74
0
49
12.7
74
0
49
-12.7
74
0
0
ENDTAB
0
TABLE
2
LAYER
5
2
330
0
100
AcDbSymbolTable
70
1
0
LAYER
5
10
330
2
100
AcDbSymbolTableRecord
100
AcDbLayerTableRecord
2
0
70
0
62
7
6
CONTINUOUS
370
-3
390
F
0
LAYER
5
44
330
2
100
AcDbSymbolTableRecord
100
AcDbLayerTableRecord
2
LAYER_8
70
0
62
177
6
CONTINUOUS
370
-3
390
F
0
ENDTAB
0
TABLE
2
STYLE
5
3
330
0
100
AcDbSymbolTable
70
3
0
STYLE
5
45
330
2
100
AcDbSymbolTableRecord
100
AcDbTextStyleTableRecord
2
Standard
70
0
40
0
41
1
50
0
71
0
42
1
3
txt
4

0
ENDTAB
0
TABLE
2
VIEW
5
6
330
0
100
AcDbSymbolTable
70
0
0
ENDTAB
0
TABLE
2
UCS
5
7
330
0
100
AcDbSymbolTable
70
0
0
ENDTAB
0
TABLE
2
APPID
5
9
330
0
100
AcDbSymbolTable
70
1
0
APPID
5
12
330
9
100
AcDbSymbolTableRecord
100
AcDbRegAppTableRecord
2
ACAD
70
0
0
ENDTAB
0
TABLE
2
DIMSTYLE
5
A
330
0
100
AcDbSymbolTable
70
1
100
AcDbDimStyleTable
71
1
0
DIMSTYLE
105
46
330
A
100
AcDbSymbolTableRecord
100
AcDbDimStyleTableRecord
2
Standard
70
0
40
1
41
0.18
42
0.0625
43
0.38
44
0.18
45
0
46
0
47
0
48
0
140
0.18
141
0.09
142
0
143
25.4
144
1
145
0
146
1
147
0.09
148
0
71
0
72
0
73
0
74
1
75
0
76
0
77
0
78
0
79
0
170
0
171
2
172
0
173
0
174
0
175
0
176
0
177
0
178
0
179
0
271
4
272
4
273
2
274
2
275
0
276
0
277
2
278
46
279
0
280
0
281
0
282
0
283
1
284
0
285
0
286
0
288
0
289
3
340
Standard
341

371
-2
372
-2
0
ENDTAB
0
TABLE
2
BLOCK_RECORD
5
1
330
0
100
AcDbSymbolTable
70
2
0
BLOCK_RECORD
5
1F
330
1
100
AcDbSymbolTableRecord
100
AcDbBlockTableRecord
2
*Model_Space
70
0
280
1
281
0
0
BLOCK_RECORD
5
1E
330
1
100
AcDbSymbolTableRecord
100
AcDbBlockTableRecord
2
*Paper_Space
70
0
280
1
281
0
0
ENDTAB
0
ENDSEC
0
SECTION
2
BLOCKS
0
BLOCK
5
20
330
1F
100
AcDbEntity
8
0
100
AcDbBlockBegin
2
*Model_Space
70
0
10
0
20
0
30
0
3
*Model_Space
1

0
ENDBLK
5
21
330
1F
100
AcDbEntity
8
0
100
AcDbBlockEnd
0
BLOCK
5
1C
330
1B
100
AcDbEntity
8
0
100
AcDbBlockBegin
2
*Paper_Space
70
0
10
0
20
0
30
0
3
*Paper_Space
1

0
ENDBLK
5
1D
330
1F
100
AcDbEntity
8
0
100
AcDbBlockEnd
0
ENDSEC
0
SECTION
2
ENTITIES
0
LWPOLYLINE
5
47
100
AcDbEntity
8
LAYER_8
6
ByLayer
62
256
370
-1
100
AcDbPolyline
90
11
70
1
43
0
10
-571.136411526
20
31.8986098508
10
-574.454472057
20
26.1515604285
10
-574.454472057
20
-7.37549049526
10
-571.136411526
20
-13.1225399175
10
-545.143438588
20
-13.1225399175
10
-532.146952119
20
9.38803496664
10
-541.825244686
20
26.1513294229
10
-545.027014331
20
27.350790654
10
-550.169481804
20
29.19116754
10
-555.321131132
20
30.9497470598
10
-558.240105152
20
31.8986098508
0
LWPOLYLINE
5
48
100
AcDbEntity
8
LAYER_8
6
ByLayer
62
256
370
-1
100
AcDbPolyline
90
7
70
1
43
0
10
-310.438773484
20
-13.9131296176
10
-298.4448211
20
6.86100529373
10
-311.441307569
20
29.3715801779
10
-337.434280507
20
29.3715801779
10
-350.430766976
20
6.86100529373
10
-338.43681854
20
-13.9131227823
42
-0.0313770319509
10
-324.43778857
20
-13.0362732431
42
-0.0312546776539
0
LWPOLYLINE
5
49
100
AcDbEntity
8
LAYER_8
6
ByLayer
62
256
370
-1
100
AcDbPolyline
90
11
70
1
43
0
10
-619.510702074
20
25.8419763043
10
-629.188994641
20
9.07868184805
10
-616.192508172
20
-13.4318930361
10
-590.199535234
20
-13.4318930361
10
-586.881474703
20
-7.68484361385
10
-586.881474703
20
25.84220731
10
-590.199535234
20
31.5892567322
10
-603.095841608
20
31.5892567322
10
-606.014815628
20
30.6403939412
10
-611.166464956
20
28.8818144215
10
-616.308932429
20
27.0414375354
0
LWPOLYLINE
5
4A
100
AcDbEntity
8
LAYER_8
6
ByLayer
62
256
370
-1
100
AcDbPolyline
90
14
70
1
43
0
10
-123.050265928
20
5.85996814044
10
-126.912269136
20
10.0984684591
10
-127.0568136
20
10.2522540551
10
-139.090974536
20
-10.591524113
10
-126.094488067
20
-33.1020989972
10
-100.101515129
20
-33.1020989972
10
-96.6746212599
20
-27.1665447029
10
-97.9770913886
20
-25.3245745185
10
-101.340965483
20
-20.7192825357
10
-104.779256393
20
-16.1611815141
10
-108.290971733
20
-11.6520575535
10
-111.875062396
20
-7.19366887454
10
-115.530423546
20
-2.78774358134
10
-119.255895701
20
1.56402253431
0
LWPOLYLINE
5
4B
100
AcDbEntity
8
LAYER_8
6
ByLayer
62
256
370
-1
100
AcDbPolyline
90
14
70
1
43
0
10
-61.6638118816
20
-28.8484936167
10
-37.6041329892
20
-28.8484936167
10
-38.3729162769
20
-26.3603851937
10
-40.0499344775
20
-21.2013963441
10
-41.8085139973
20
-16.0497470156
10
-43.6488908834
20
-10.9072795425
10
-45.5712480904
20
-5.77585487294
10
-47.5757143846
20
-0.657350739413
10
-49.6623633194
20
4.44634023747
10
-51.8312122881
20
9.53331250627
10
-54.0822216563
20
14.601649601
10
-54.8083377633
20
16.1726561517
10
-61.6638118816
20
16.1726561517
10
-74.6602983506
20
-6.33791873248
0
LWPOLYLINE
5
4C
100
AcDbEntity
8
LAYER_8
6
ByLayer
62
256
370
-1
100
AcDbPolyline
90
14
70
1
43
0
10
32.4940115956
20
-173.842906449
10
34.2525911154
20
-168.691257121
10
35.9296093161
20
-163.532268271
10
36.6983926037
20
-161.044159848
10
12.6387137113
20
-161.044159848
10
-0.357772757654
20
-183.554734732
10
12.6387137113
20
-206.065309617
10
19.4941878296
20
-206.065309617
10
20.2203039366
20
-204.494303066
10
22.4713133049
20
-199.425965971
10
24.6401622736
20
-194.338993702
10
26.7268112083
20
-189.235302726
10
28.7312775025
20
-184.116798592
10
30.6536347095
20
-178.985373922
0
LWPOLYLINE
5
4D
100
AcDbEntity
8
LAYER_8
6
ByLayer
62
256
370
-1
100
AcDbPolyline
90
9
70
1
43
0
10
-404.797556712
20
29.8298108703
10
-408.115617243
20
24.082761448
10
-408.115617249
20
14.6145561122
10
-408.115617557
20
14.6130244866
42
-0.193462957381
10
-413.820876952
20
0.437510210645
10
-404.797556712
20
-15.1913388981
10
-378.804583774
20
-15.1913388981
10
-365.808097305
20
7.31923598611
10
-378.804583774
20
29.8298108703
0
LWPOLYLINE
5
4E
100
AcDbEntity
8
LAYER_8
6
ByLayer
62
256
370
-1
100
AcDbPolyline
90
10
70
1
43
0
10
-166.668231516
20
8.20211365199
10
-170.964177122
20
11.9964838788
10
-175.315943238
20
15.7219560337
10
-179.121828447
20
18.8794959393
10
-198.485185428
20
18.8794959393
10
-211.481671897
20
-3.63107894487
10
-198.485185428
20
-26.1416538291
10
-172.49221249
20
-26.1416538291
10
-159.495726021
20
-3.63107894487
10
-165.949548807
20
7.54727002313
0
LWPOLYLINE
5
4F
100
AcDbEntity
8
LAYER_8
6
ByLayer
62
256
370
-1
100
AcDbPolyline
90
19
70
1
43
0
10
-252.375530547
20
0.45578543345
10
-249.756085322
20
-1.33725914894
10
-247.182284347
20
-3.20839166978
10
-244.657574147
20
-5.15585320552
10
-242.185309359
20
-7.17768398586
10
-239.977668601
20
-9.09068387141
10
-231.228438263
20
6.0634276006
10
-244.224924732
20
28.5740024848
10
-270.21789767
20
28.5740024848
10
-278.970510496
20
13.4140323717
10
-277.409746828
20
12.8924430985
10
-274.542306149
20
11.8468269309
10
-271.687836843
20
10.7167044301
10
-268.849939051
20
9.50196293212
10
-266.032253417
20
8.20268851663
10
-263.238447675
20
6.81917100661
10
-260.472202666
20
5.35190790115
10
-257.737197859
20
3.80160717155
10
-255.03709651
20
2.16918886021
0
LWPOLYLINE
5
50
100
AcDbEntity
8
LAYER_8
6
ByLayer
62
256
370
-1
100
AcDbPolyline
90
9
70
1
43
0
10
-434.063030672
20
-0.181210349816
42
-0.193528671936
10
-439.768281802
20
13.9943290947
10
-439.768282105
20
13.9958498751
10
-439.768282112
20
23.4640552108
10
-443.086342643
20
29.2111046331
10
-469.079315581
20
29.2111046331
10
-482.07580205
20
6.70052974894
10
-469.079315581
20
-15.8100451352
10
-443.086342643
20
-15.8100451352
0
LWPOLYLINE
5
51
100
AcDbEntity
8
LAYER_8
6
ByLayer
62
256
370
-1
100
AcDbPolyline
90
4
70
1
43
0
10
-486.61450674
20
29.9222096568
10
-523.370426752
20
29.9222096568
10
-517.988953215
20
20.6012240712
10
-491.995980277
20
20.6012240712
0
LWPOLYLINE
5
52
100
AcDbEntity
8
LAYER_8
6
ByLayer
62
256
370
-1
100
AcDbPolyline
90
14
70
1
43
0
10
31.1614816038
20
-253.035185546
10
34.7455722675
20
-248.576796867
10
38.2572876069
20
-244.067672907
10
41.6955785173
20
-239.509571885
10
45.0594526114
20
-234.904279902
10
46.3619227401
20
-233.062309718
10
42.9350288705
20
-227.126755424
10
16.9420559325
20
-227.126755424
10
3.94556946352
20
-249.637330308
10
15.9797303998
20
-270.481108476
10
16.1242748638
20
-270.32732288
10
19.9862780719
20
-266.088822561
10
23.7806482987
20
-261.792876955
10
27.5061204536
20
-257.441110839
0
LWPOLYLINE
5
53
100
AcDbEntity
8
LAYER_8
6
ByLayer
62
256
370
-1
100
AcDbPolyline
90
8
70
1
43
0
10
-24.613053702
20
-9.47021301833
10
-22.6659612685
20
-12.8426760403
42
-0.121965576467
10
-13.1127715513
20
-10.4714645153
10
-13.1102588146
20
-10.4714636882
10
26.7948198402
20
-10.4714636709
10
27.3728921739
20
-9.47021301833
10
14.3764057049
20
13.0403618659
10
-11.616567233
20
13.0403618659
0
LWPOLYLINE
5
54
100
AcDbEntity
8
LAYER_8
6
ByLayer
62
256
370
-1
100
AcDbPolyline
90
8
70
1
43
0
10
-14.5393901221
20
-103.750415792
10
-16.4864922861
20
-107.122895668
10
-3.49000581712
20
-129.633470552
10
22.5029671209
20
-129.633470552
10
35.4994535899
20
-107.122895668
10
34.9213812561
20
-106.121645015
10
-4.98369739866
20
-106.121644998
10
-4.98622088999
20
-106.121644164
42
-0.12190179836
0
LWPOLYLINE
5
55
100
AcDbEntity
8
LAYER_8
6
ByLayer
62
256
370
-1
100
AcDbPolyline
90
10
70
1
43
0
10
57.4049170943
20
-312.459577387
10
44.4084306253
20
-289.949002503
10
18.4154576873
20
-289.949002503
10
5.41897121831
20
-312.459577387
10
18.4154576873
20
-334.970152272
10
37.7788146685
20
-334.970152272
10
41.5846998773
20
-331.812612366
10
45.9364659929
20
-328.087140211
10
50.2324115991
20
-324.292769984
10
50.9510943085
20
-323.637926355
0
LWPOLYLINE
5
56
100
AcDbEntity
8
LAYER_8
6
ByLayer
62
256
370
-1
100
AcDbPolyline
90
7
70
1
43
0
10
23.1065072409
20
-35.7648322731
10
-2.8864656971
20
-35.7648322731
10
-15.8829521661
20
-58.2754071573
10
-2.8864656971
20
-80.7859820414
10
23.1065072409
20
-80.7859820414
10
32.2849745468
20
-64.8884103321
10
32.2849745468
20
-51.6624039824
0
LWPOLYLINE
5
57
100
AcDbEntity
8
LAYER_8
6
ByLayer
62
256
370
-1
100
AcDbPolyline
90
11
70
1
43
0
10
-548.888668099
20
32.8548321656
10
-554.094279083
20
34.6318321672
10
-557.625150815
20
35.7796028508
10
-573.37710388
20
35.7796028508
10
-578.335465057
20
27.1914693687
10
-578.335465057
20
-8.41539943545
10
-573.37710388
20
-17.0035329175
10
-542.902746235
20
-17.0035329175
10
-527.665567413
20
9.38803496664
10
-539.160204926
20
29.2973311532
10
-543.692335161
20
30.9951780051
0
LWPOLYLINE
5
58
100
AcDbEntity
8
LAYER_8
6
ByLayer
62
256
370
-1
100
AcDbPolyline
90
11
70
1
43
0
10
-618.433200525
20
-17.3128860361
10
-587.95884288
20
-17.3128860361
10
-583.000481703
20
-8.72475255403
10
-583.000481703
20
26.8821162501
10
-587.95884288
20
35.4702497322
10
-603.710795945
20
35.4702497322
10
-607.241667677
20
34.3224790486
10
-612.447278661
20
32.545479047
10
-617.643611599
20
30.6858248865
10
-622.175741834
20
28.9879780346
10
-633.670379347
20
9.07868184805
0
LWPOLYLINE
5
59
100
AcDbEntity
8
LAYER_8
6
ByLayer
62
256
370
-1
100
AcDbPolyline
90
11
70
1
43
0
10
-215.963056603
20
-3.63107894487
10
-200.725877781
20
-30.0226468291
10
-170.251520136
20
-30.0226468291
10
-155.014341314
20
-3.63107894487
10
-162.889974415
20
10.0099177267
10
-164.076520256
20
11.091065185
10
-168.417464137
20
14.9251798899
10
-172.814813228
20
18.6896748457
10
-177.266888794
20
22.3833244148
10
-177.736058299
20
22.7604889393
10
-200.725877781
20
22.7604889393
0
LWPOLYLINE
5
5A
100
AcDbEntity
8
LAYER_8
6
ByLayer
62
256
370
-1
100
AcDbPolyline
90
7
70
1
43
0
10
-308.383261383
20
-18.1148642239
10
-293.963436394
20
6.86100529373
10
-309.200615216
20
33.2525731779
10
-339.674972861
20
33.2525731779
10
-354.912151683
20
6.86100529373
10
-340.492326694
20
-18.1148642239
42
-0.0372564814008
10
-324.437794038
20
-16.917266243
42
-0.0372392314326
0
LWPOLYLINE
5
5B
100
AcDbEntity
8
LAYER_8
6
ByLayer
62
256
370
-1
100
AcDbPolyline
90
7
70
1
43
0
10
-23.9465110446
20
-18.3866847665
42
-0.179767763395
10
-13.1102378495
20
-14.3524566986
10
29.0355121934
20
-14.3524566709
10
31.8542768805
20
-9.47021301833
10
16.6170980582
20
16.9213548659
10
-13.8572595863
20
16.9213548659
10
-29.0944384086
20
-9.47021301833
0
LWPOLYLINE
5
5C
100
AcDbEntity
8
LAYER_8
6
ByLayer
62
256
370
-1
100
AcDbPolyline
90
16
70
1
43
0
10
32.3555288704
20
-185.505227544
10
34.2980220606
20
-180.320053093
10
36.1576762212
20
-175.123720154
10
37.9346762228
20
-169.91810917
10
39.6292605847
20
-164.705081771
10
41.2417202986
20
-159.486479
10
41.5690228339
20
-158.369789359
10
40.8723790026
20
-157.163166848
10
10.3980213581
20
-157.163166848
10
-4.8391574642
20
-183.554734732
10
10.3980213581
20
-209.946302617
10
21.9758864396
20
-209.946302617
10
23.755406049
20
-206.096178736
10
26.0299938879
20
-200.97475273
10
28.2215607335
20
-195.834496341
10
30.3300665359
20
-190.677346108
0
LWPOLYLINE
5
5D
100
AcDbEntity
8
LAYER_8
6
ByLayer
62
256
370
-1
100
AcDbPolyline
90
8
70
1
43
0
10
-376.563891421
20
-19.0723318981
10
-361.326712598
20
7.31923598611
10
-376.563891421
20
33.7108038703
10
-407.038249065
20
33.7108038703
10
-411.996610243
20
25.1226703882
10
-411.996610253
20
14.6145688273
42
-0.238534749393
10
-418.767501534
20
1.24332931343
10
-407.038249065
20
-19.0723318981
0
LWPOLYLINE
5
5E
100
AcDbEntity
8
LAYER_8
6
ByLayer
62
256
370
-1
100
AcDbPolyline
90
23
70
1
43
0
10
-272.458590023
20
32.4549954848
10
-284.762087852
20
11.1447121343
10
-284.250061881
20
11.0036928456
10
-281.467074066
20
10.1563786502
10
-278.68982312
20
9.22825331526
10
-275.92167016
20
8.21884255026
10
-273.166039279
20
7.12785150132
10
-270.426405969
20
5.95517139945
10
-267.706284821
20
4.70088533864
10
-265.009216582
20
3.36527310248
10
-262.338754651
20
1.9488149606
10
-259.698451104
20
0.452194368158
10
-257.091842367
20
-1.12370049042
10
-254.522434621
20
-2.77777636079
10
-251.993689085
20
-4.50873581724
10
-249.509007281
20
-6.31507942089
10
-247.071716407
20
-8.19510914809
10
-244.685054956
20
-10.1469330817
10
-242.352158703
20
-12.1684713456
10
-240.076047172
20
-14.2574632474
10
-239.053222
20
-15.25148139
10
-226.747053557
20
6.0634276006
10
-241.984232379
20
32.4549954848
0
LWPOLYLINE
5
5F
100
AcDbEntity
8
LAYER_8
6
ByLayer
62
256
370
-1
100
AcDbPolyline
90
7
70
1
43
0
10
-15.8199496287
20
-98.2064239197
10
-20.9678769927
20
-107.122895668
10
-5.73069817039
20
-133.514463552
10
24.7436594742
20
-133.514463552
10
39.9808382964
20
-107.122895668
10
37.1620736094
20
-102.240652015
10
-4.98367643357
20
-102.240651988
42
-0.179766552652
0
LWPOLYLINE
5
60
100
AcDbEntity
8
LAYER_8
6
ByLayer
62
256
370
-1
100
AcDbPolyline
90
7
70
1
43
0
10
36.1659675468
20
-50.6224950423
10
25.3471995942
20
-31.8838392731
10
-5.12715805037
20
-31.8838392731
10
-20.3643368726
20
-58.2754071573
10
-5.12715805037
20
-84.6669750414
10
25.3471995942
20
-84.6669750414
10
36.1659675468
20
-65.9283192722
0
LWPOLYLINE
5
61
100
AcDbEntity
8
LAYER_8
6
ByLayer
62
256
370
-1
100
AcDbPolyline
90
15
70
1
43
0
10
41.3376205232
20
-246.428721592
10
44.811926139
20
-241.822876307
10
48.211035456
20
-237.169345751
10
50.9654977001
20
-233.273949445
10
45.1757212238
20
-223.245762424
10
14.7013635792
20
-223.245762424
10
-0.535815243026
20
-249.637330308
10
14.7013635792
20
-276.028898192
10
16.0915130403
20
-276.028898192
10
18.9727734923
20
-272.963430697
10
22.8752296049
20
-268.680533821
10
26.7093443098
20
-264.33958994
10
30.4738392656
20
-259.942240849
10
34.1674888347
20
-255.490165284
10
37.7891213907
20
-250.985076796
0
LWPOLYLINE
5
62
100
AcDbEntity
8
LAYER_8
6
ByLayer
62
256
370
-1
100
AcDbPolyline
90
11
70
1
43
0
10
39.1645848156
20
-338.851145272
10
39.6337543215
20
-338.473980747
10
44.0858298873
20
-334.780331178
10
48.4831789776
20
-331.015836222
10
52.824122859
20
-327.181721517
10
54.0106687005
20
-326.100574059
10
61.8863018008
20
-312.459577387
10
46.6491229786
20
-286.068009503
10
16.174765334
20
-286.068009503
10
0.937586511761
20
-312.459577387
10
16.174765334
20
-338.851145272
0
LWPOLYLINE
5
63
100
AcDbEntity
8
LAYER_8
6
ByLayer
62
256
370
-1
100
AcDbPolyline
90
16
70
1
43
0
10
-63.9045042348
20
-32.7294866167
10
-33.4301465903
20
-32.7294866167
10
-32.733502759
20
-31.5228641061
10
-33.0608052943
20
-30.4061744652
10
-34.6732650082
20
-25.1875716935
10
-36.3678493702
20
-19.9745442949
10
-38.1448493717
20
-14.7689333107
10
-40.0045035323
20
-9.57260037239
10
-41.9469967225
20
-4.38742592089
10
-43.972459057
20
0.784692643352
10
-46.0809648594
20
5.94184287556
10
-48.272531705
20
11.0820992648
10
-50.5471195439
20
16.2035252712
10
-52.3266391533
20
20.0536491517
10
-63.9045042348
20
20.0536491517
10
-79.1416830571
20
-6.33791873248
0
LWPOLYLINE
5
64
100
AcDbEntity
8
LAYER_8
6
ByLayer
62
256
370
-1
100
AcDbPolyline
90
15
70
1
43
0
10
-92.0710462999
20
-26.9549049758
10
-94.825508544
20
-23.0595086702
10
-98.224617861
20
-18.4059781134
10
-101.698923477
20
-13.8001328288
10
-105.247422609
20
-9.24377762446
10
-108.869055165
20
-4.73868913708
10
-112.562704734
20
-0.286613571281
10
-116.32719969
20
4.11073551894
10
-120.161314395
20
8.45167940038
10
-124.063770508
20
12.7345762768
10
-126.94503096
20
15.8000437712
10
-128.335180421
20
15.8000437712
10
-143.572359243
20
-10.591524113
10
-128.335180421
20
-36.9830919972
10
-97.8608227762
20
-36.9830919972
0
LWPOLYLINE
5
65
100
AcDbEntity
8
LAYER_8
6
ByLayer
62
256
370
-1
100
AcDbPolyline
90
4
70
1
43
0
10
-489.755287924
20
16.7202310712
10
-479.892429681
20
33.8032026568
10
-530.092503812
20
33.8032026568
10
-520.229645569
20
16.7202310712
0
LWPOLYLINE
5
66
100
AcDbEntity
8
LAYER_8
6
ByLayer
62
256
370
-1
100
AcDbPolyline
90
8
70
1
43
0
10
-435.887289102
20
13.9958625901
10
-435.887289112
20
24.503964151
10
-440.845650289
20
33.0920976331
10
-471.320007934
20
33.0920976331
10
-486.557186756
20
6.70052974894
10
-471.320007934
20
-19.6910381352
10
-440.845650289
20
-19.6910381352
10
-429.11639782
20
0.624623076259
42
-0.238573320546
0
ENDSEC
0
SECTION
2
OBJECTS
0
DICTIONARY
5
C
330
0
100
AcDbDictionary
281
1
3
ACAD_GROUP
350
D
0
DICTIONARY
5
D
330
C
100
AcDbDictionary
281
1
0
ENDSEC
0
EOF
