  999
file created by gear template generator
  0
SECTION
  2
HEADER
  9
$ACADVER
  1
AC1006
  9
$INSBASE
  10
0.0
  20
0.0
  30
0.0
  9
$EXTMIN
  10
0.0
  20
0.0
  9
$EXTMAX
  10
10000.0
  20
10000.0
  0
ENDSEC
  0
SECTION
  2
ENTITIES
  0
LINE
  8
0
  10
1.96943
  20
25.82622
  30
0
  11
1.96943
  21
25.82622
  31
0
  0
LINE
  8
0
  10
1.96943
  20
25.82622
  30
0
  11
1.93901
  21
25.8334
  31
0
  0
LINE
  8
0
  10
1.93901
  20
25.8334
  30
0
  11
1.90859
  21
25.84079
  31
0
  0
LINE
  8
0
  10
1.90859
  20
25.84079
  30
0
  11
1.87819
  21
25.84838
  31
0
  0
LINE
  8
0
  10
1.87819
  20
25.84838
  30
0
  11
1.84779
  21
25.85618
  31
0
  0
LINE
  8
0
  10
1.84779
  20
25.85618
  30
0
  11
1.72628
  21
25.88926
  31
0
  0
LINE
  8
0
  10
1.72628
  20
25.88926
  30
0
  11
1.60489
  21
25.92522
  31
0
  0
LINE
  8
0
  10
1.60489
  20
25.92522
  30
0
  11
1.48365
  21
25.96386
  31
0
  0
LINE
  8
0
  10
1.48365
  20
25.96386
  30
0
  11
1.36255
  21
26.00504
  31
0
  0
LINE
  8
0
  10
1.36255
  20
26.00504
  30
0
  11
1.24159
  21
26.04864
  31
0
  0
LINE
  8
0
  10
1.24159
  20
26.04864
  30
0
  11
1.12079
  21
26.09456
  31
0
  0
LINE
  8
0
  10
1.12079
  20
26.09456
  30
0
  11
1.00015
  21
26.14272
  31
0
  0
LINE
  8
0
  10
1.00015
  20
26.14272
  30
0
  11
0.87968
  21
26.19303
  31
0
  0
LINE
  8
0
  10
0.87968
  20
26.19303
  30
0
  11
0.75938
  21
26.24544
  31
0
  0
LINE
  8
0
  10
0.75938
  20
26.24544
  30
0
  11
0.63928
  21
26.2999
  31
0
  0
LINE
  8
0
  10
0.63928
  20
26.2999
  30
0
  11
0.51937
  21
26.35635
  31
0
  0
LINE
  8
0
  10
0.51937
  20
26.35635
  30
0
  11
0.39966
  21
26.41475
  31
0
  0
LINE
  8
0
  10
0.39966
  20
26.41475
  30
0
  11
0.28016
  21
26.47506
  31
0
  0
LINE
  8
0
  10
0.28016
  20
26.47506
  30
0
  11
0.16089
  21
26.53725
  31
0
  0
LINE
  8
0
  10
0.16089
  20
26.53725
  30
0
  11
0.04184
  21
26.60128
  31
0
  0
LINE
  8
0
  10
0.04184
  20
26.60128
  30
0
  11
0.14561
  21
27.85365
  31
0
  0
LINE
  8
0
  10
0.14561
  20
27.85365
  30
0
  11
0.27358
  21
27.89722
  31
0
  0
LINE
  8
0
  10
0.27358
  20
27.89722
  30
0
  11
0.40146
  21
27.93893
  31
0
  0
LINE
  8
0
  10
0.40146
  20
27.93893
  30
0
  11
0.52925
  21
27.97875
  31
0
  0
LINE
  8
0
  10
0.52925
  20
27.97875
  30
0
  11
0.65694
  21
28.01665
  31
0
  0
LINE
  8
0
  10
0.65694
  20
28.01665
  30
0
  11
0.78451
  21
28.05259
  31
0
  0
LINE
  8
0
  10
0.78451
  20
28.05259
  30
0
  11
0.91194
  21
28.08654
  31
0
  0
LINE
  8
0
  10
0.91194
  20
28.08654
  30
0
  11
1.03922
  21
28.11844
  31
0
  0
LINE
  8
0
  10
1.03922
  20
28.11844
  30
0
  11
1.16633
  21
28.14824
  31
0
  0
LINE
  8
0
  10
1.16633
  20
28.14824
  30
0
  11
1.29325
  21
28.17588
  31
0
  0
LINE
  8
0
  10
1.29325
  20
28.17588
  30
0
  11
1.41996
  21
28.20129
  31
0
  0
LINE
  8
0
  10
1.41996
  20
28.20129
  30
0
  11
1.54645
  21
28.22438
  31
0
  0
LINE
  8
0
  10
1.54645
  20
28.22438
  30
0
  11
1.67268
  21
28.24507
  31
0
  0
LINE
  8
0
  10
1.67268
  20
28.24507
  30
0
  11
1.79863
  21
28.26323
  31
0
  0
LINE
  8
0
  10
1.79863
  20
28.26323
  30
0
  11
1.92427
  21
28.27872
  31
0
  0
LINE
  8
0
  10
1.92427
  20
28.27872
  30
0
  11
2.04957
  21
28.29135
  31
0
  0
LINE
  8
0
  10
2.04957
  20
28.29135
  30
0
  11
2.08084
  21
28.29403
  31
0
  0
LINE
  8
0
  10
2.08084
  20
28.29403
  30
0
  11
2.11208
  21
28.29652
  31
0
  0
LINE
  8
0
  10
2.11208
  20
28.29652
  30
0
  11
2.14329
  21
28.2988
  31
0
  0
LINE
  8
0
  10
2.14329
  20
28.2988
  30
0
  11
2.17448
  21
28.30088
  31
0
  0
LINE
  8
0
  10
2.17448
  20
28.30088
  30
0
  11
2.39671
  21
29.6326
  31
0
  0
LINE
  8
0
  10
2.39671
  20
29.6326
  30
0
  11
2.36788
  21
29.64469
  31
0
  0
LINE
  8
0
  10
2.36788
  20
29.64469
  30
0
  11
2.3391
  21
29.65698
  31
0
  0
LINE
  8
0
  10
2.3391
  20
29.65698
  30
0
  11
2.31036
  21
29.66948
  31
0
  0
LINE
  8
0
  10
2.31036
  20
29.66948
  30
0
  11
2.28166
  21
29.68217
  31
0
  0
LINE
  8
0
  10
2.28166
  20
29.68217
  30
0
  11
2.16725
  21
29.7348
  31
0
  0
LINE
  8
0
  10
2.16725
  20
29.7348
  30
0
  11
2.05344
  21
29.79024
  31
0
  0
LINE
  8
0
  10
2.05344
  20
29.79024
  30
0
  11
1.94021
  21
29.84832
  31
0
  0
LINE
  8
0
  10
1.94021
  20
29.84832
  30
0
  11
1.82754
  21
29.90887
  31
0
  0
LINE
  8
0
  10
1.82754
  20
29.90887
  30
0
  11
1.71541
  21
29.97179
  31
0
  0
LINE
  8
0
  10
1.71541
  20
29.97179
  30
0
  11
1.60381
  21
30.03696
  31
0
  0
LINE
  8
0
  10
1.60381
  20
30.03696
  30
0
  11
1.49274
  21
30.10432
  31
0
  0
LINE
  8
0
  10
1.49274
  20
30.10432
  30
0
  11
1.3822
  21
30.17377
  31
0
  0
LINE
  8
0
  10
1.3822
  20
30.17377
  30
0
  11
1.27217
  21
30.24527
  31
0
  0
LINE
  8
0
  10
1.27217
  20
30.24527
  30
0
  11
1.16267
  21
30.31875
  31
0
  0
LINE
  8
0
  10
1.16267
  20
30.31875
  30
0
  11
1.05368
  21
30.39417
  31
0
  0
LINE
  8
0
  10
1.05368
  20
30.39417
  30
0
  11
0.94522
  21
30.47148
  31
0
  0
LINE
  8
0
  10
0.94522
  20
30.47148
  30
0
  11
0.83728
  21
30.55064
  31
0
  0
LINE
  8
0
  10
0.83728
  20
30.55064
  30
0
  11
0.72987
  21
30.63161
  31
0
  0
LINE
  8
0
  10
0.72987
  20
30.63161
  30
0
  11
0.62298
  21
30.71436
  31
0
  0
LINE
  8
0
  10
0.62298
  20
30.71436
  30
0
  11
0.93147
  21
31.93257
  31
0
  0
LINE
  8
0
  10
0.93147
  20
31.93257
  30
0
  11
1.06486
  21
31.95448
  31
0
  0
LINE
  8
0
  10
1.06486
  20
31.95448
  30
0
  11
1.19787
  21
31.97457
  31
0
  0
LINE
  8
0
  10
1.19787
  20
31.97457
  30
0
  11
1.33047
  21
31.99281
  31
0
  0
LINE
  8
0
  10
1.33047
  20
31.99281
  30
0
  11
1.46266
  21
32.00918
  31
0
  0
LINE
  8
0
  10
1.46266
  20
32.00918
  30
0
  11
1.5944
  21
32.02364
  31
0
  0
LINE
  8
0
  10
1.5944
  20
32.02364
  30
0
  11
1.72568
  21
32.03615
  31
0
  0
LINE
  8
0
  10
1.72568
  20
32.03615
  30
0
  11
1.85647
  21
32.04666
  31
0
  0
LINE
  8
0
  10
1.85647
  20
32.04666
  30
0
  11
1.98675
  21
32.05513
  31
0
  0
LINE
  8
0
  10
1.98675
  20
32.05513
  30
0
  11
2.11649
  21
32.0615
  31
0
  0
LINE
  8
0
  10
2.11649
  20
32.0615
  30
0
  11
2.24566
  21
32.06571
  31
0
  0
LINE
  8
0
  10
2.24566
  20
32.06571
  30
0
  11
2.37422
  21
32.06767
  31
0
  0
LINE
  8
0
  10
2.37422
  20
32.06767
  30
0
  11
2.50213
  21
32.0673
  31
0
  0
LINE
  8
0
  10
2.50213
  20
32.0673
  30
0
  11
2.62936
  21
32.06449
  31
0
  0
LINE
  8
0
  10
2.62936
  20
32.06449
  30
0
  11
2.75584
  21
32.05908
  31
0
  0
LINE
  8
0
  10
2.75584
  20
32.05908
  30
0
  11
2.88151
  21
32.05092
  31
0
  0
LINE
  8
0
  10
2.88151
  20
32.05092
  30
0
  11
2.91279
  21
32.04842
  31
0
  0
LINE
  8
0
  10
2.91279
  20
32.04842
  30
0
  11
2.94401
  21
32.04573
  31
0
  0
LINE
  8
0
  10
2.94401
  20
32.04573
  30
0
  11
2.97518
  21
32.04284
  31
0
  0
LINE
  8
0
  10
2.97518
  20
32.04284
  30
0
  11
3.00628
  21
32.03975
  31
0
  0
LINE
  8
0
  10
3.00628
  20
32.03975
  30
0
  11
3.44467
  21
33.31674
  31
0
  0
LINE
  8
0
  10
3.44467
  20
33.31674
  30
0
  11
3.41823
  21
33.3334
  31
0
  0
LINE
  8
0
  10
3.41823
  20
33.3334
  30
0
  11
3.39186
  21
33.35027
  31
0
  0
LINE
  8
0
  10
3.39186
  20
33.35027
  30
0
  11
3.36557
  21
33.36732
  31
0
  0
LINE
  8
0
  10
3.36557
  20
33.36732
  30
0
  11
3.33935
  21
33.38457
  31
0
  0
LINE
  8
0
  10
3.33935
  20
33.38457
  30
0
  11
3.23516
  21
33.45531
  31
0
  0
LINE
  8
0
  10
3.23516
  20
33.45531
  30
0
  11
3.13203
  21
33.52873
  31
0
  0
LINE
  8
0
  10
3.13203
  20
33.52873
  30
0
  11
3.02991
  21
33.60465
  31
0
  0
LINE
  8
0
  10
3.02991
  20
33.60465
  30
0
  11
2.92874
  21
33.68292
  31
0
  0
LINE
  8
0
  10
2.92874
  20
33.68292
  30
0
  11
2.82849
  21
33.76344
  31
0
  0
LINE
  8
0
  10
2.82849
  20
33.76344
  30
0
  11
2.72914
  21
33.84609
  31
0
  0
LINE
  8
0
  10
2.72914
  20
33.84609
  30
0
  11
2.63067
  21
33.93081
  31
0
  0
LINE
  8
0
  10
2.63067
  20
33.93081
  30
0
  11
2.53307
  21
34.01751
  31
0
  0
LINE
  8
0
  10
2.53307
  20
34.01751
  30
0
  11
2.43631
  21
34.10614
  31
0
  0
LINE
  8
0
  10
2.43631
  20
34.10614
  30
0
  11
2.3404
  21
34.19665
  31
0
  0
LINE
  8
0
  10
2.3404
  20
34.19665
  30
0
  11
2.24531
  21
34.28898
  31
0
  0
LINE
  8
0
  10
2.24531
  20
34.28898
  30
0
  11
2.15105
  21
34.38308
  31
0
  0
LINE
  8
0
  10
2.15105
  20
34.38308
  30
0
  11
2.05761
  21
34.47893
  31
0
  0
LINE
  8
0
  10
2.05761
  20
34.47893
  30
0
  11
1.96499
  21
34.57648
  31
0
  0
LINE
  8
0
  10
1.96499
  20
34.57648
  30
0
  11
1.87319
  21
34.67569
  31
0
  0
LINE
  8
0
  10
1.87319
  20
34.67569
  30
0
  11
2.37798
  21
35.82651
  31
0
  0
LINE
  8
0
  10
2.37798
  20
35.82651
  30
0
  11
2.51316
  21
35.82616
  31
0
  0
LINE
  8
0
  10
2.51316
  20
35.82616
  30
0
  11
2.64766
  21
35.82409
  31
0
  0
LINE
  8
0
  10
2.64766
  20
35.82409
  30
0
  11
2.78146
  21
35.82026
  31
0
  0
LINE
  8
0
  10
2.78146
  20
35.82026
  30
0
  11
2.91453
  21
35.81464
  31
0
  0
LINE
  8
0
  10
2.91453
  20
35.81464
  30
0
  11
3.04686
  21
35.80722
  31
0
  0
LINE
  8
0
  10
3.04686
  20
35.80722
  30
0
  11
3.17841
  21
35.79795
  31
0
  0
LINE
  8
0
  10
3.17841
  20
35.79795
  30
0
  11
3.30915
  21
35.78679
  31
0
  0
LINE
  8
0
  10
3.30915
  20
35.78679
  30
0
  11
3.43904
  21
35.7737
  31
0
  0
LINE
  8
0
  10
3.43904
  20
35.7737
  30
0
  11
3.56806
  21
35.75864
  31
0
  0
LINE
  8
0
  10
3.56806
  20
35.75864
  30
0
  11
3.69616
  21
35.74153
  31
0
  0
LINE
  8
0
  10
3.69616
  20
35.74153
  30
0
  11
3.82329
  21
35.7223
  31
0
  0
LINE
  8
0
  10
3.82329
  20
35.7223
  30
0
  11
3.9494
  21
35.70088
  31
0
  0
LINE
  8
0
  10
3.9494
  20
35.70088
  30
0
  11
4.07442
  21
35.67716
  31
0
  0
LINE
  8
0
  10
4.07442
  20
35.67716
  30
0
  11
4.19829
  21
35.65101
  31
0
  0
LINE
  8
0
  10
4.19829
  20
35.65101
  30
0
  11
4.3209
  21
35.62228
  31
0
  0
LINE
  8
0
  10
4.3209
  20
35.62228
  30
0
  11
4.35134
  21
35.61466
  31
0
  0
LINE
  8
0
  10
4.35134
  20
35.61466
  30
0
  11
4.3817
  21
35.60687
  31
0
  0
LINE
  8
0
  10
4.3817
  20
35.60687
  30
0
  11
4.41196
  21
35.59889
  31
0
  0
LINE
  8
0
  10
4.41196
  20
35.59889
  30
0
  11
4.44214
  21
35.59073
  31
0
  0
LINE
  8
0
  10
4.44214
  20
35.59073
  30
0
  11
5.08473
  21
36.77814
  31
0
  0
LINE
  8
0
  10
5.08473
  20
36.77814
  30
0
  11
5.06139
  21
36.79893
  31
0
  0
LINE
  8
0
  10
5.06139
  20
36.79893
  30
0
  11
5.03816
  21
36.81991
  31
0
  0
LINE
  8
0
  10
5.03816
  20
36.81991
  30
0
  11
5.01503
  21
36.84106
  31
0
  0
LINE
  8
0
  10
5.01503
  20
36.84106
  30
0
  11
4.99201
  21
36.86238
  31
0
  0
LINE
  8
0
  10
4.99201
  20
36.86238
  30
0
  11
4.90089
  21
36.94931
  31
0
  0
LINE
  8
0
  10
4.90089
  20
36.94931
  30
0
  11
4.81125
  21
37.0387
  31
0
  0
LINE
  8
0
  10
4.81125
  20
37.0387
  30
0
  11
4.72301
  21
37.13039
  31
0
  0
LINE
  8
0
  10
4.72301
  20
37.13039
  30
0
  11
4.6361
  21
37.22425
  31
0
  0
LINE
  8
0
  10
4.6361
  20
37.22425
  30
0
  11
4.55048
  21
37.32017
  31
0
  0
LINE
  8
0
  10
4.55048
  20
37.32017
  30
0
  11
4.46609
  21
37.41805
  31
0
  0
LINE
  8
0
  10
4.46609
  20
37.41805
  30
0
  11
4.38291
  21
37.51781
  31
0
  0
LINE
  8
0
  10
4.38291
  20
37.51781
  30
0
  11
4.30091
  21
37.6194
  31
0
  0
LINE
  8
0
  10
4.30091
  20
37.6194
  30
0
  11
4.22006
  21
37.72275
  31
0
  0
LINE
  8
0
  10
4.22006
  20
37.72275
  30
0
  11
4.14035
  21
37.82781
  31
0
  0
LINE
  8
0
  10
4.14035
  20
37.82781
  30
0
  11
4.06175
  21
37.93453
  31
0
  0
LINE
  8
0
  10
4.06175
  20
37.93453
  30
0
  11
3.98427
  21
38.04286
  31
0
  0
LINE
  8
0
  10
3.98427
  20
38.04286
  30
0
  11
3.90788
  21
38.15278
  31
0
  0
LINE
  8
0
  10
3.90788
  20
38.15278
  30
0
  11
3.83258
  21
38.26424
  31
0
  0
LINE
  8
0
  10
3.83258
  20
38.26424
  30
0
  11
3.75836
  21
38.37722
  31
0
  0
LINE
  8
0
  10
3.75836
  20
38.37722
  30
0
  11
4.44569
  21
39.42925
  31
0
  0
LINE
  8
0
  10
4.44569
  20
39.42925
  30
0
  11
4.57896
  21
39.40666
  31
0
  0
LINE
  8
0
  10
4.57896
  20
39.40666
  30
0
  11
4.71128
  21
39.38248
  31
0
  0
LINE
  8
0
  10
4.71128
  20
39.38248
  30
0
  11
4.84263
  21
39.35668
  31
0
  0
LINE
  8
0
  10
4.84263
  20
39.35668
  30
0
  11
4.97296
  21
39.32924
  31
0
  0
LINE
  8
0
  10
4.97296
  20
39.32924
  30
0
  11
5.10226
  21
39.30013
  31
0
  0
LINE
  8
0
  10
5.10226
  20
39.30013
  30
0
  11
5.23049
  21
39.26934
  31
0
  0
LINE
  8
0
  10
5.23049
  20
39.26934
  30
0
  11
5.35761
  21
39.23681
  31
0
  0
LINE
  8
0
  10
5.35761
  20
39.23681
  30
0
  11
5.48358
  21
39.20252
  31
0
  0
LINE
  8
0
  10
5.48358
  20
39.20252
  30
0
  11
5.60836
  21
39.16642
  31
0
  0
LINE
  8
0
  10
5.60836
  20
39.16642
  30
0
  11
5.7319
  21
39.12846
  31
0
  0
LINE
  8
0
  10
5.7319
  20
39.12846
  30
0
  11
5.85413
  21
39.08858
  31
0
  0
LINE
  8
0
  10
5.85413
  20
39.08858
  30
0
  11
5.97499
  21
39.04669
  31
0
  0
LINE
  8
0
  10
5.97499
  20
39.04669
  30
0
  11
6.09441
  21
39.00272
  31
0
  0
LINE
  8
0
  10
6.09441
  20
39.00272
  30
0
  11
6.21228
  21
38.95654
  31
0
  0
LINE
  8
0
  10
6.21228
  20
38.95654
  30
0
  11
6.32849
  21
38.90801
  31
0
  0
LINE
  8
0
  10
6.32849
  20
38.90801
  30
0
  11
6.35726
  21
38.89549
  31
0
  0
LINE
  8
0
  10
6.35726
  20
38.89549
  30
0
  11
6.38592
  21
38.88281
  31
0
  0
LINE
  8
0
  10
6.38592
  20
38.88281
  30
0
  11
6.41446
  21
38.86996
  31
0
  0
LINE
  8
0
  10
6.41446
  20
38.86996
  30
0
  11
6.44288
  21
38.85694
  31
0
  0
LINE
  8
0
  10
6.44288
  20
38.85694
  30
0
  11
7.27215
  21
39.92239
  31
0
  0
LINE
  8
0
  10
7.27215
  20
39.92239
  30
0
  11
7.25255
  21
39.94674
  31
0
  0
LINE
  8
0
  10
7.25255
  20
39.94674
  30
0
  11
7.23309
  21
39.97125
  31
0
  0
LINE
  8
0
  10
7.23309
  20
39.97125
  30
0
  11
7.21376
  21
39.99592
  31
0
  0
LINE
  8
0
  10
7.21376
  20
39.99592
  30
0
  11
7.19456
  21
40.02074
  31
0
  0
LINE
  8
0
  10
7.19456
  20
40.02074
  30
0
  11
7.11899
  21
40.12148
  31
0
  0
LINE
  8
0
  10
7.11899
  20
40.12148
  30
0
  11
7.04529
  21
40.22441
  31
0
  0
LINE
  8
0
  10
7.04529
  20
40.22441
  30
0
  11
6.97334
  21
40.32937
  31
0
  0
LINE
  8
0
  10
6.97334
  20
40.32937
  30
0
  11
6.90307
  21
40.43626
  31
0
  0
LINE
  8
0
  10
6.90307
  20
40.43626
  30
0
  11
6.8344
  21
40.54496
  31
0
  0
LINE
  8
0
  10
6.8344
  20
40.54496
  30
0
  11
6.76727
  21
40.65539
  31
0
  0
LINE
  8
0
  10
6.76727
  20
40.65539
  30
0
  11
6.70165
  21
40.76749
  31
0
  0
LINE
  8
0
  10
6.70165
  20
40.76749
  30
0
  11
6.63748
  21
40.88119
  31
0
  0
LINE
  8
0
  10
6.63748
  20
40.88119
  30
0
  11
6.57475
  21
40.99643
  31
0
  0
LINE
  8
0
  10
6.57475
  20
40.99643
  30
0
  11
6.51341
  21
41.11318
  31
0
  0
LINE
  8
0
  10
6.51341
  20
41.11318
  30
0
  11
6.45346
  21
41.23138
  31
0
  0
LINE
  8
0
  10
6.45346
  20
41.23138
  30
0
  11
6.39486
  21
41.35099
  31
0
  0
LINE
  8
0
  10
6.39486
  20
41.35099
  30
0
  11
6.33761
  21
41.47198
  31
0
  0
LINE
  8
0
  10
6.33761
  20
41.47198
  30
0
  11
6.28168
  21
41.59432
  31
0
  0
LINE
  8
0
  10
6.28168
  20
41.59432
  30
0
  11
6.22707
  21
41.71797
  31
0
  0
LINE
  8
0
  10
6.22707
  20
41.71797
  30
0
  11
7.07818
  21
42.64252
  31
0
  0
LINE
  8
0
  10
7.07818
  20
42.64252
  30
0
  11
7.20592
  21
42.59831
  31
0
  0
LINE
  8
0
  10
7.20592
  20
42.59831
  30
0
  11
7.33245
  21
42.55267
  31
0
  0
LINE
  8
0
  10
7.33245
  20
42.55267
  30
0
  11
7.45776
  21
42.5056
  31
0
  0
LINE
  8
0
  10
7.45776
  20
42.5056
  30
0
  11
7.5818
  21
42.45709
  31
0
  0
LINE
  8
0
  10
7.5818
  20
42.45709
  30
0
  11
7.70455
  21
42.4071
  31
0
  0
LINE
  8
0
  10
7.70455
  20
42.4071
  30
0
  11
7.82596
  21
42.35561
  31
0
  0
LINE
  8
0
  10
7.82596
  20
42.35561
  30
0
  11
7.94599
  21
42.30261
  31
0
  0
LINE
  8
0
  10
7.94599
  20
42.30261
  30
0
  11
8.0646
  21
42.24806
  31
0
  0
LINE
  8
0
  10
8.0646
  20
42.24806
  30
0
  11
8.18174
  21
42.19191
  31
0
  0
LINE
  8
0
  10
8.18174
  20
42.19191
  30
0
  11
8.29734
  21
42.13413
  31
0
  0
LINE
  8
0
  10
8.29734
  20
42.13413
  30
0
  11
8.41134
  21
42.07467
  31
0
  0
LINE
  8
0
  10
8.41134
  20
42.07467
  30
0
  11
8.52366
  21
42.01347
  31
0
  0
LINE
  8
0
  10
8.52366
  20
42.01347
  30
0
  11
8.63421
  21
41.95044
  31
0
  0
LINE
  8
0
  10
8.63421
  20
41.95044
  30
0
  11
8.74287
  21
41.88549
  31
0
  0
LINE
  8
0
  10
8.74287
  20
41.88549
  30
0
  11
8.84951
  21
41.81849
  31
0
  0
LINE
  8
0
  10
8.84951
  20
41.81849
  30
0
  11
8.87583
  21
41.80141
  31
0
  0
LINE
  8
0
  10
8.87583
  20
41.80141
  30
0
  11
8.90201
  21
41.78418
  31
0
  0
LINE
  8
0
  10
8.90201
  20
41.78418
  30
0
  11
8.92805
  21
41.76681
  31
0
  0
LINE
  8
0
  10
8.92805
  20
41.76681
  30
0
  11
8.95393
  21
41.74929
  31
0
  0
LINE
  8
0
  10
8.95393
  20
41.74929
  30
0
  11
9.94726
  21
42.66371
  31
0
  0
LINE
  8
0
  10
9.94726
  20
42.66371
  30
0
  11
9.93194
  21
42.69096
  31
0
  0
LINE
  8
0
  10
9.93194
  20
42.69096
  30
0
  11
9.91678
  21
42.71834
  31
0
  0
LINE
  8
0
  10
9.91678
  20
42.71834
  30
0
  11
9.90177
  21
42.74585
  31
0
  0
LINE
  8
0
  10
9.90177
  20
42.74585
  30
0
  11
9.88692
  21
42.77349
  31
0
  0
LINE
  8
0
  10
9.88692
  20
42.77349
  30
0
  11
9.82896
  21
42.8853
  31
0
  0
LINE
  8
0
  10
9.82896
  20
42.8853
  30
0
  11
9.7732
  21
42.99895
  31
0
  0
LINE
  8
0
  10
9.7732
  20
42.99895
  30
0
  11
9.71952
  21
43.11433
  31
0
  0
LINE
  8
0
  10
9.71952
  20
43.11433
  30
0
  11
9.66779
  21
43.23132
  31
0
  0
LINE
  8
0
  10
9.66779
  20
43.23132
  30
0
  11
9.61795
  21
43.34984
  31
0
  0
LINE
  8
0
  10
9.61795
  20
43.34984
  30
0
  11
9.56992
  21
43.46982
  31
0
  0
LINE
  8
0
  10
9.56992
  20
43.46982
  30
0
  11
9.52364
  21
43.59119
  31
0
  0
LINE
  8
0
  10
9.52364
  20
43.59119
  30
0
  11
9.47906
  21
43.7139
  31
0
  0
LINE
  8
0
  10
9.47906
  20
43.7139
  30
0
  11
9.43615
  21
43.8379
  31
0
  0
LINE
  8
0
  10
9.43615
  20
43.8379
  30
0
  11
9.39487
  21
43.96315
  31
0
  0
LINE
  8
0
  10
9.39487
  20
43.96315
  30
0
  11
9.35519
  21
44.0896
  31
0
  0
LINE
  8
0
  10
9.35519
  20
44.0896
  30
0
  11
9.31708
  21
44.21723
  31
0
  0
LINE
  8
0
  10
9.31708
  20
44.21723
  30
0
  11
9.28052
  21
44.34599
  31
0
  0
LINE
  8
0
  10
9.28052
  20
44.34599
  30
0
  11
9.24549
  21
44.47587
  31
0
  0
LINE
  8
0
  10
9.24549
  20
44.47587
  30
0
  11
9.21197
  21
44.60682
  31
0
  0
LINE
  8
0
  10
9.21197
  20
44.60682
  30
0
  11
10.20366
  21
45.37868
  31
0
  0
LINE
  8
0
  10
10.20366
  20
45.37868
  30
0
  11
10.32237
  21
45.31404
  31
0
  0
LINE
  8
0
  10
10.32237
  20
45.31404
  30
0
  11
10.43967
  21
45.2482
  31
0
  0
LINE
  8
0
  10
10.43967
  20
45.2482
  30
0
  11
10.55552
  21
45.18115
  31
0
  0
LINE
  8
0
  10
10.55552
  20
45.18115
  30
0
  11
10.66989
  21
45.11287
  31
0
  0
LINE
  8
0
  10
10.66989
  20
45.11287
  30
0
  11
10.78273
  21
45.04336
  31
0
  0
LINE
  8
0
  10
10.78273
  20
45.04336
  30
0
  11
10.89402
  21
44.9726
  31
0
  0
LINE
  8
0
  10
10.89402
  20
44.9726
  30
0
  11
11.00369
  21
44.90056
  31
0
  0
LINE
  8
0
  10
11.00369
  20
44.90056
  30
0
  11
11.1117
  21
44.82723
  31
0
  0
LINE
  8
0
  10
11.1117
  20
44.82723
  30
0
  11
11.218
  21
44.75257
  31
0
  0
LINE
  8
0
  10
11.218
  20
44.75257
  30
0
  11
11.32251
  21
44.67655
  31
0
  0
LINE
  8
0
  10
11.32251
  20
44.67655
  30
0
  11
11.42517
  21
44.59914
  31
0
  0
LINE
  8
0
  10
11.42517
  20
44.59914
  30
0
  11
11.52588
  21
44.52028
  31
0
  0
LINE
  8
0
  10
11.52588
  20
44.52028
  30
0
  11
11.62455
  21
44.43991
  31
0
  0
LINE
  8
0
  10
11.62455
  20
44.43991
  30
0
  11
11.72104
  21
44.35797
  31
0
  0
LINE
  8
0
  10
11.72104
  20
44.35797
  30
0
  11
11.8152
  21
44.27433
  31
0
  0
LINE
  8
0
  10
11.8152
  20
44.27433
  30
0
  11
11.83835
  21
44.25315
  31
0
  0
LINE
  8
0
  10
11.83835
  20
44.25315
  30
0
  11
11.86133
  21
44.23185
  31
0
  0
LINE
  8
0
  10
11.86133
  20
44.23185
  30
0
  11
11.88416
  21
44.21043
  31
0
  0
LINE
  8
0
  10
11.88416
  20
44.21043
  30
0
  11
11.9068
  21
44.18889
  31
0
  0
LINE
  8
0
  10
11.9068
  20
44.18889
  30
0
  11
13.0371
  21
44.92734
  31
0
  0
LINE
  8
0
  10
13.0371
  20
44.92734
  30
0
  11
13.02647
  21
44.95674
  31
0
  0
LINE
  8
0
  10
13.02647
  20
44.95674
  30
0
  11
13.01602
  21
44.98624
  31
0
  0
LINE
  8
0
  10
13.01602
  20
44.98624
  30
0
  11
13.00574
  21
45.01585
  31
0
  0
LINE
  8
0
  10
13.00574
  20
45.01585
  30
0
  11
12.99564
  21
45.04556
  31
0
  0
LINE
  8
0
  10
12.99564
  20
45.04556
  30
0
  11
12.95688
  21
45.16538
  31
0
  0
LINE
  8
0
  10
12.95688
  20
45.16538
  30
0
  11
12.92059
  21
45.28666
  31
0
  0
LINE
  8
0
  10
12.92059
  20
45.28666
  30
0
  11
12.88663
  21
45.4093
  31
0
  0
LINE
  8
0
  10
12.88663
  20
45.4093
  30
0
  11
12.85487
  21
45.53321
  31
0
  0
LINE
  8
0
  10
12.85487
  20
45.53321
  30
0
  11
12.82521
  21
45.65832
  31
0
  0
LINE
  8
0
  10
12.82521
  20
45.65832
  30
0
  11
12.79758
  21
45.78456
  31
0
  0
LINE
  8
0
  10
12.79758
  20
45.78456
  30
0
  11
12.77191
  21
45.9119
  31
0
  0
LINE
  8
0
  10
12.77191
  20
45.9119
  30
0
  11
12.74814
  21
46.04027
  31
0
  0
LINE
  8
0
  10
12.74814
  20
46.04027
  30
0
  11
12.72622
  21
46.16964
  31
0
  0
LINE
  8
0
  10
12.72622
  20
46.16964
  30
0
  11
12.70612
  21
46.29998
  31
0
  0
LINE
  8
0
  10
12.70612
  20
46.29998
  30
0
  11
12.68779
  21
46.43124
  31
0
  0
LINE
  8
0
  10
12.68779
  20
46.43124
  30
0
  11
12.67121
  21
46.5634
  31
0
  0
LINE
  8
0
  10
12.67121
  20
46.5634
  30
0
  11
12.65634
  21
46.69642
  31
0
  0
LINE
  8
0
  10
12.65634
  20
46.69642
  30
0
  11
12.64317
  21
46.83029
  31
0
  0
LINE
  8
0
  10
12.64317
  20
46.83029
  30
0
  11
12.63166
  21
46.96497
  31
0
  0
LINE
  8
0
  10
12.63166
  20
46.96497
  30
0
  11
13.73686
  21
47.56308
  31
0
  0
LINE
  8
0
  10
13.73686
  20
47.56308
  30
0
  11
13.84332
  21
47.47978
  31
0
  0
LINE
  8
0
  10
13.84332
  20
47.47978
  30
0
  11
13.94819
  21
47.39553
  31
0
  0
LINE
  8
0
  10
13.94819
  20
47.39553
  30
0
  11
14.05142
  21
47.31033
  31
0
  0
LINE
  8
0
  10
14.05142
  20
47.31033
  30
0
  11
14.15299
  21
47.22416
  31
0
  0
LINE
  8
0
  10
14.15299
  20
47.22416
  30
0
  11
14.25285
  21
47.13702
  31
0
  0
LINE
  8
0
  10
14.25285
  20
47.13702
  30
0
  11
14.35097
  21
47.04891
  31
0
  0
LINE
  8
0
  10
14.35097
  20
47.04891
  30
0
  11
14.44729
  21
46.9598
  31
0
  0
LINE
  8
0
  10
14.44729
  20
46.9598
  30
0
  11
14.54176
  21
46.86969
  31
0
  0
LINE
  8
0
  10
14.54176
  20
46.86969
  30
0
  11
14.63431
  21
46.77855
  31
0
  0
LINE
  8
0
  10
14.63431
  20
46.77855
  30
0
  11
14.72489
  21
46.68637
  31
0
  0
LINE
  8
0
  10
14.72489
  20
46.68637
  30
0
  11
14.81341
  21
46.59312
  31
0
  0
LINE
  8
0
  10
14.81341
  20
46.59312
  30
0
  11
14.89977
  21
46.49876
  31
0
  0
LINE
  8
0
  10
14.89977
  20
46.49876
  30
0
  11
14.98386
  21
46.40325
  31
0
  0
LINE
  8
0
  10
14.98386
  20
46.40325
  30
0
  11
15.06555
  21
46.30653
  31
0
  0
LINE
  8
0
  10
15.06555
  20
46.30653
  30
0
  11
15.14465
  21
46.20854
  31
0
  0
LINE
  8
0
  10
15.14465
  20
46.20854
  30
0
  11
15.164
  21
46.18384
  31
0
  0
LINE
  8
0
  10
15.164
  20
46.18384
  30
0
  11
15.18317
  21
46.15904
  31
0
  0
LINE
  8
0
  10
15.18317
  20
46.15904
  30
0
  11
15.20215
  21
46.13416
  31
0
  0
LINE
  8
0
  10
15.20215
  20
46.13416
  30
0
  11
15.22095
  21
46.10918
  31
0
  0
LINE
  8
0
  10
15.22095
  20
46.10918
  30
0
  11
16.45737
  21
46.65153
  31
0
  0
LINE
  8
0
  10
16.45737
  20
46.65153
  30
0
  11
16.45172
  21
46.68227
  31
0
  0
LINE
  8
0
  10
16.45172
  20
46.68227
  30
0
  11
16.44627
  21
46.71309
  31
0
  0
LINE
  8
0
  10
16.44627
  20
46.71309
  30
0
  11
16.44101
  21
46.74399
  31
0
  0
LINE
  8
0
  10
16.44101
  20
46.74399
  30
0
  11
16.43594
  21
46.77496
  31
0
  0
LINE
  8
0
  10
16.43594
  20
46.77496
  30
0
  11
16.41742
  21
46.89952
  31
0
  0
LINE
  8
0
  10
16.41742
  20
46.89952
  30
0
  11
16.4016
  21
47.02512
  31
0
  0
LINE
  8
0
  10
16.4016
  20
47.02512
  30
0
  11
16.38828
  21
47.15168
  31
0
  0
LINE
  8
0
  10
16.38828
  20
47.15168
  30
0
  11
16.37735
  21
47.27913
  31
0
  0
LINE
  8
0
  10
16.37735
  20
47.27913
  30
0
  11
16.36869
  21
47.40741
  31
0
  0
LINE
  8
0
  10
16.36869
  20
47.40741
  30
0
  11
16.36221
  21
47.53648
  31
0
  0
LINE
  8
0
  10
16.36221
  20
47.53648
  30
0
  11
16.35785
  21
47.6663
  31
0
  0
LINE
  8
0
  10
16.35785
  20
47.6663
  30
0
  11
16.35554
  21
47.79684
  31
0
  0
LINE
  8
0
  10
16.35554
  20
47.79684
  30
0
  11
16.35521
  21
47.92805
  31
0
  0
LINE
  8
0
  10
16.35521
  20
47.92805
  30
0
  11
16.35684
  21
48.05992
  31
0
  0
LINE
  8
0
  10
16.35684
  20
48.05992
  30
0
  11
16.36036
  21
48.19241
  31
0
  0
LINE
  8
0
  10
16.36036
  20
48.19241
  30
0
  11
16.36576
  21
48.32549
  31
0
  0
LINE
  8
0
  10
16.36576
  20
48.32549
  30
0
  11
16.37299
  21
48.45915
  31
0
  0
LINE
  8
0
  10
16.37299
  20
48.45915
  30
0
  11
16.38203
  21
48.59336
  31
0
  0
LINE
  8
0
  10
16.38203
  20
48.59336
  30
0
  11
16.39285
  21
48.7281
  31
0
  0
LINE
  8
0
  10
16.39285
  20
48.7281
  30
0
  11
17.58142
  21
49.13614
  31
0
  0
LINE
  8
0
  10
17.58142
  20
49.13614
  30
0
  11
17.67272
  21
49.03645
  31
0
  0
LINE
  8
0
  10
17.67272
  20
49.03645
  30
0
  11
17.76228
  21
48.93609
  31
0
  0
LINE
  8
0
  10
17.76228
  20
48.93609
  30
0
  11
17.85009
  21
48.83506
  31
0
  0
LINE
  8
0
  10
17.85009
  20
48.83506
  30
0
  11
17.93609
  21
48.73335
  31
0
  0
LINE
  8
0
  10
17.93609
  20
48.73335
  30
0
  11
18.02025
  21
48.63097
  31
0
  0
LINE
  8
0
  10
18.02025
  20
48.63097
  30
0
  11
18.10252
  21
48.5279
  31
0
  0
LINE
  8
0
  10
18.10252
  20
48.5279
  30
0
  11
18.18286
  21
48.42416
  31
0
  0
LINE
  8
0
  10
18.18286
  20
48.42416
  30
0
  11
18.26121
  21
48.31973
  31
0
  0
LINE
  8
0
  10
18.26121
  20
48.31973
  30
0
  11
18.3375
  21
48.2146
  31
0
  0
LINE
  8
0
  10
18.3375
  20
48.2146
  30
0
  11
18.41167
  21
48.10877
  31
0
  0
LINE
  8
0
  10
18.41167
  20
48.10877
  30
0
  11
18.48363
  21
48.00221
  31
0
  0
LINE
  8
0
  10
18.48363
  20
48.00221
  30
0
  11
18.55328
  21
47.89493
  31
0
  0
LINE
  8
0
  10
18.55328
  20
47.89493
  30
0
  11
18.62051
  21
47.78688
  31
0
  0
LINE
  8
0
  10
18.62051
  20
47.78688
  30
0
  11
18.68516
  21
47.67804
  31
0
  0
LINE
  8
0
  10
18.68516
  20
47.67804
  30
0
  11
18.74706
  21
47.56836
  31
0
  0
LINE
  8
0
  10
18.74706
  20
47.56836
  30
0
  11
18.76208
  21
47.54081
  31
0
  0
LINE
  8
0
  10
18.76208
  20
47.54081
  30
0
  11
18.77691
  21
47.5132
  31
0
  0
LINE
  8
0
  10
18.77691
  20
47.5132
  30
0
  11
18.79153
  21
47.48553
  31
0
  0
LINE
  8
0
  10
18.79153
  20
47.48553
  30
0
  11
18.80596
  21
47.4578
  31
0
  0
LINE
  8
0
  10
18.80596
  20
47.4578
  30
0
  11
20.11479
  21
47.78924
  31
0
  0
LINE
  8
0
  10
20.11479
  20
47.78924
  30
0
  11
20.11428
  21
47.82049
  31
0
  0
LINE
  8
0
  10
20.11428
  20
47.82049
  30
0
  11
20.11398
  21
47.85179
  31
0
  0
LINE
  8
0
  10
20.11398
  20
47.85179
  30
0
  11
20.11387
  21
47.88313
  31
0
  0
LINE
  8
0
  10
20.11387
  20
47.88313
  30
0
  11
20.11397
  21
47.91451
  31
0
  0
LINE
  8
0
  10
20.11397
  20
47.91451
  30
0
  11
20.11621
  21
48.04043
  31
0
  0
LINE
  8
0
  10
20.11621
  20
48.04043
  30
0
  11
20.12127
  21
48.16692
  31
0
  0
LINE
  8
0
  10
20.12127
  20
48.16692
  30
0
  11
20.12896
  21
48.29394
  31
0
  0
LINE
  8
0
  10
20.12896
  20
48.29394
  30
0
  11
20.13916
  21
48.42145
  31
0
  0
LINE
  8
0
  10
20.13916
  20
48.42145
  30
0
  11
20.15173
  21
48.54941
  31
0
  0
LINE
  8
0
  10
20.15173
  20
48.54941
  30
0
  11
20.16659
  21
48.67779
  31
0
  0
LINE
  8
0
  10
20.16659
  20
48.67779
  30
0
  11
20.18365
  21
48.80656
  31
0
  0
LINE
  8
0
  10
20.18365
  20
48.80656
  30
0
  11
20.20285
  21
48.93569
  31
0
  0
LINE
  8
0
  10
20.20285
  20
48.93569
  30
0
  11
20.22413
  21
49.06517
  31
0
  0
LINE
  8
0
  10
20.22413
  20
49.06517
  30
0
  11
20.24744
  21
49.19497
  31
0
  0
LINE
  8
0
  10
20.24744
  20
49.19497
  30
0
  11
20.27273
  21
49.32507
  31
0
  0
LINE
  8
0
  10
20.27273
  20
49.32507
  30
0
  11
20.29995
  21
49.45545
  31
0
  0
LINE
  8
0
  10
20.29995
  20
49.45545
  30
0
  11
20.32909
  21
49.5861
  31
0
  0
LINE
  8
0
  10
20.32909
  20
49.5861
  30
0
  11
20.36009
  21
49.71699
  31
0
  0
LINE
  8
0
  10
20.36009
  20
49.71699
  30
0
  11
20.39294
  21
49.84811
  31
0
  0
LINE
  8
0
  10
20.39294
  20
49.84811
  30
0
  11
21.63246
  21
50.05495
  31
0
  0
LINE
  8
0
  10
21.63246
  20
50.05495
  30
0
  11
21.70611
  21
49.9416
  31
0
  0
LINE
  8
0
  10
21.70611
  20
49.9416
  30
0
  11
21.77793
  21
49.82787
  31
0
  0
LINE
  8
0
  10
21.77793
  20
49.82787
  30
0
  11
21.84791
  21
49.71376
  31
0
  0
LINE
  8
0
  10
21.84791
  20
49.71376
  30
0
  11
21.91599
  21
49.59928
  31
0
  0
LINE
  8
0
  10
21.91599
  20
49.59928
  30
0
  11
21.98215
  21
49.48444
  31
0
  0
LINE
  8
0
  10
21.98215
  20
49.48444
  30
0
  11
22.04634
  21
49.36924
  31
0
  0
LINE
  8
0
  10
22.04634
  20
49.36924
  30
0
  11
22.10851
  21
49.25369
  31
0
  0
LINE
  8
0
  10
22.10851
  20
49.25369
  30
0
  11
22.1686
  21
49.13779
  31
0
  0
LINE
  8
0
  10
22.1686
  20
49.13779
  30
0
  11
22.22655
  21
49.02153
  31
0
  0
LINE
  8
0
  10
22.22655
  20
49.02153
  30
0
  11
22.28229
  21
48.90494
  31
0
  0
LINE
  8
0
  10
22.28229
  20
48.90494
  30
0
  11
22.33573
  21
48.78799
  31
0
  0
LINE
  8
0
  10
22.33573
  20
48.78799
  30
0
  11
22.38677
  21
48.6707
  31
0
  0
LINE
  8
0
  10
22.38677
  20
48.6707
  30
0
  11
22.4353
  21
48.55306
  31
0
  0
LINE
  8
0
  10
22.4353
  20
48.55306
  30
0
  11
22.48115
  21
48.43507
  31
0
  0
LINE
  8
0
  10
22.48115
  20
48.43507
  30
0
  11
22.52416
  21
48.3167
  31
0
  0
LINE
  8
0
  10
22.52416
  20
48.3167
  30
0
  11
22.53443
  21
48.28705
  31
0
  0
LINE
  8
0
  10
22.53443
  20
48.28705
  30
0
  11
22.54451
  21
48.25738
  31
0
  0
LINE
  8
0
  10
22.54451
  20
48.25738
  30
0
  11
22.55439
  21
48.22768
  31
0
  0
LINE
  8
0
  10
22.55439
  20
48.22768
  30
0
  11
22.56406
  21
48.19795
  31
0
  0
LINE
  8
0
  10
22.56406
  20
48.19795
  30
0
  11
23.90958
  21
48.30944
  31
0
  0
LINE
  8
0
  10
23.90958
  20
48.30944
  30
0
  11
23.91423
  21
48.34036
  31
0
  0
LINE
  8
0
  10
23.91423
  20
48.34036
  30
0
  11
23.91908
  21
48.37128
  31
0
  0
LINE
  8
0
  10
23.91908
  20
48.37128
  30
0
  11
23.92414
  21
48.40221
  31
0
  0
LINE
  8
0
  10
23.92414
  20
48.40221
  30
0
  11
23.92939
  21
48.43314
  31
0
  0
LINE
  8
0
  10
23.92939
  20
48.43314
  30
0
  11
23.95233
  21
48.55697
  31
0
  0
LINE
  8
0
  10
23.95233
  20
48.55697
  30
0
  11
23.97814
  21
48.68091
  31
0
  0
LINE
  8
0
  10
23.97814
  20
48.68091
  30
0
  11
24.00664
  21
48.80493
  31
0
  0
LINE
  8
0
  10
24.00664
  20
48.80493
  30
0
  11
24.03768
  21
48.92902
  31
0
  0
LINE
  8
0
  10
24.03768
  20
48.92902
  30
0
  11
24.07114
  21
49.05317
  31
0
  0
LINE
  8
0
  10
24.07114
  20
49.05317
  30
0
  11
24.10693
  21
49.17735
  31
0
  0
LINE
  8
0
  10
24.10693
  20
49.17735
  30
0
  11
24.14495
  21
49.30155
  31
0
  0
LINE
  8
0
  10
24.14495
  20
49.30155
  30
0
  11
24.18515
  21
49.42576
  31
0
  0
LINE
  8
0
  10
24.18515
  20
49.42576
  30
0
  11
24.22745
  21
49.54997
  31
0
  0
LINE
  8
0
  10
24.22745
  20
49.54997
  30
0
  11
24.2718
  21
49.67417
  31
0
  0
LINE
  8
0
  10
24.2718
  20
49.67417
  30
0
  11
24.31816
  21
49.79833
  31
0
  0
LINE
  8
0
  10
24.31816
  20
49.79833
  30
0
  11
24.36647
  21
49.92245
  31
0
  0
LINE
  8
0
  10
24.36647
  20
49.92245
  30
0
  11
24.41671
  21
50.04652
  31
0
  0
LINE
  8
0
  10
24.41671
  20
50.04652
  30
0
  11
24.46884
  21
50.17053
  31
0
  0
LINE
  8
0
  10
24.46884
  20
50.17053
  30
0
  11
24.52282
  21
50.29445
  31
0
  0
LINE
  8
0
  10
24.52282
  20
50.29445
  30
0
  11
25.77948
  21
50.29445
  31
0
  0
LINE
  8
0
  10
25.77948
  20
50.29445
  30
0
  11
25.83346
  21
50.17053
  31
0
  0
LINE
  8
0
  10
25.83346
  20
50.17053
  30
0
  11
25.88559
  21
50.04652
  31
0
  0
LINE
  8
0
  10
25.88559
  20
50.04652
  30
0
  11
25.93583
  21
49.92245
  31
0
  0
LINE
  8
0
  10
25.93583
  20
49.92245
  30
0
  11
25.98415
  21
49.79833
  31
0
  0
LINE
  8
0
  10
25.98415
  20
49.79833
  30
0
  11
26.0305
  21
49.67417
  31
0
  0
LINE
  8
0
  10
26.0305
  20
49.67417
  30
0
  11
26.07485
  21
49.54997
  31
0
  0
LINE
  8
0
  10
26.07485
  20
49.54997
  30
0
  11
26.11715
  21
49.42576
  31
0
  0
LINE
  8
0
  10
26.11715
  20
49.42576
  30
0
  11
26.15735
  21
49.30155
  31
0
  0
LINE
  8
0
  10
26.15735
  20
49.30155
  30
0
  11
26.19537
  21
49.17735
  31
0
  0
LINE
  8
0
  10
26.19537
  20
49.17735
  30
0
  11
26.23116
  21
49.05317
  31
0
  0
LINE
  8
0
  10
26.23116
  20
49.05317
  30
0
  11
26.26462
  21
48.92902
  31
0
  0
LINE
  8
0
  10
26.26462
  20
48.92902
  30
0
  11
26.29567
  21
48.80493
  31
0
  0
LINE
  8
0
  10
26.29567
  20
48.80493
  30
0
  11
26.32417
  21
48.68091
  31
0
  0
LINE
  8
0
  10
26.32417
  20
48.68091
  30
0
  11
26.34998
  21
48.55697
  31
0
  0
LINE
  8
0
  10
26.34998
  20
48.55697
  30
0
  11
26.37291
  21
48.43314
  31
0
  0
LINE
  8
0
  10
26.37291
  20
48.43314
  30
0
  11
26.37817
  21
48.40221
  31
0
  0
LINE
  8
0
  10
26.37817
  20
48.40221
  30
0
  11
26.38322
  21
48.37128
  31
0
  0
LINE
  8
0
  10
26.38322
  20
48.37128
  30
0
  11
26.38808
  21
48.34036
  31
0
  0
LINE
  8
0
  10
26.38808
  20
48.34036
  30
0
  11
26.39272
  21
48.30944
  31
0
  0
LINE
  8
0
  10
26.39272
  20
48.30944
  30
0
  11
27.73825
  21
48.19795
  31
0
  0
LINE
  8
0
  10
27.73825
  20
48.19795
  30
0
  11
27.74791
  21
48.22768
  31
0
  0
LINE
  8
0
  10
27.74791
  20
48.22768
  30
0
  11
27.75779
  21
48.25738
  31
0
  0
LINE
  8
0
  10
27.75779
  20
48.25738
  30
0
  11
27.76787
  21
48.28705
  31
0
  0
LINE
  8
0
  10
27.76787
  20
48.28705
  30
0
  11
27.77815
  21
48.3167
  31
0
  0
LINE
  8
0
  10
27.77815
  20
48.3167
  30
0
  11
27.82115
  21
48.43507
  31
0
  0
LINE
  8
0
  10
27.82115
  20
48.43507
  30
0
  11
27.86701
  21
48.55306
  31
0
  0
LINE
  8
0
  10
27.86701
  20
48.55306
  30
0
  11
27.91553
  21
48.6707
  31
0
  0
LINE
  8
0
  10
27.91553
  20
48.6707
  30
0
  11
27.96657
  21
48.78799
  31
0
  0
LINE
  8
0
  10
27.96657
  20
48.78799
  30
0
  11
28.02001
  21
48.90494
  31
0
  0
LINE
  8
0
  10
28.02001
  20
48.90494
  30
0
  11
28.07575
  21
49.02153
  31
0
  0
LINE
  8
0
  10
28.07575
  20
49.02153
  30
0
  11
28.1337
  21
49.13779
  31
0
  0
LINE
  8
0
  10
28.1337
  20
49.13779
  30
0
  11
28.19379
  21
49.25369
  31
0
  0
LINE
  8
0
  10
28.19379
  20
49.25369
  30
0
  11
28.25596
  21
49.36924
  31
0
  0
LINE
  8
0
  10
28.25596
  20
49.36924
  30
0
  11
28.32015
  21
49.48444
  31
0
  0
LINE
  8
0
  10
28.32015
  20
49.48444
  30
0
  11
28.38631
  21
49.59928
  31
0
  0
LINE
  8
0
  10
28.38631
  20
49.59928
  30
0
  11
28.4544
  21
49.71376
  31
0
  0
LINE
  8
0
  10
28.4544
  20
49.71376
  30
0
  11
28.52437
  21
49.82787
  31
0
  0
LINE
  8
0
  10
28.52437
  20
49.82787
  30
0
  11
28.5962
  21
49.9416
  31
0
  0
LINE
  8
0
  10
28.5962
  20
49.9416
  30
0
  11
28.66984
  21
50.05495
  31
0
  0
LINE
  8
0
  10
28.66984
  20
50.05495
  30
0
  11
29.90936
  21
49.84811
  31
0
  0
LINE
  8
0
  10
29.90936
  20
49.84811
  30
0
  11
29.94221
  21
49.71699
  31
0
  0
LINE
  8
0
  10
29.94221
  20
49.71699
  30
0
  11
29.97322
  21
49.5861
  31
0
  0
LINE
  8
0
  10
29.97322
  20
49.5861
  30
0
  11
30.00235
  21
49.45545
  31
0
  0
LINE
  8
0
  10
30.00235
  20
49.45545
  30
0
  11
30.02958
  21
49.32507
  31
0
  0
LINE
  8
0
  10
30.02958
  20
49.32507
  30
0
  11
30.05486
  21
49.19497
  31
0
  0
LINE
  8
0
  10
30.05486
  20
49.19497
  30
0
  11
30.07817
  21
49.06517
  31
0
  0
LINE
  8
0
  10
30.07817
  20
49.06517
  30
0
  11
30.09945
  21
48.93569
  31
0
  0
LINE
  8
0
  10
30.09945
  20
48.93569
  30
0
  11
30.11865
  21
48.80656
  31
0
  0
LINE
  8
0
  10
30.11865
  20
48.80656
  30
0
  11
30.13571
  21
48.67779
  31
0
  0
LINE
  8
0
  10
30.13571
  20
48.67779
  30
0
  11
30.15057
  21
48.54941
  31
0
  0
LINE
  8
0
  10
30.15057
  20
48.54941
  30
0
  11
30.16315
  21
48.42145
  31
0
  0
LINE
  8
0
  10
30.16315
  20
48.42145
  30
0
  11
30.17334
  21
48.29394
  31
0
  0
LINE
  8
0
  10
30.17334
  20
48.29394
  30
0
  11
30.18104
  21
48.16692
  31
0
  0
LINE
  8
0
  10
30.18104
  20
48.16692
  30
0
  11
30.1861
  21
48.04043
  31
0
  0
LINE
  8
0
  10
30.1861
  20
48.04043
  30
0
  11
30.18834
  21
47.91451
  31
0
  0
LINE
  8
0
  10
30.18834
  20
47.91451
  30
0
  11
30.18843
  21
47.88313
  31
0
  0
LINE
  8
0
  10
30.18843
  20
47.88313
  30
0
  11
30.18833
  21
47.85179
  31
0
  0
LINE
  8
0
  10
30.18833
  20
47.85179
  30
0
  11
30.18802
  21
47.82049
  31
0
  0
LINE
  8
0
  10
30.18802
  20
47.82049
  30
0
  11
30.18752
  21
47.78924
  31
0
  0
LINE
  8
0
  10
30.18752
  20
47.78924
  30
0
  11
31.49634
  21
47.4578
  31
0
  0
LINE
  8
0
  10
31.49634
  20
47.4578
  30
0
  11
31.51077
  21
47.48553
  31
0
  0
LINE
  8
0
  10
31.51077
  20
47.48553
  30
0
  11
31.5254
  21
47.5132
  31
0
  0
LINE
  8
0
  10
31.5254
  20
47.5132
  30
0
  11
31.54022
  21
47.54081
  31
0
  0
LINE
  8
0
  10
31.54022
  20
47.54081
  30
0
  11
31.55524
  21
47.56836
  31
0
  0
LINE
  8
0
  10
31.55524
  20
47.56836
  30
0
  11
31.61714
  21
47.67804
  31
0
  0
LINE
  8
0
  10
31.61714
  20
47.67804
  30
0
  11
31.68179
  21
47.78688
  31
0
  0
LINE
  8
0
  10
31.68179
  20
47.78688
  30
0
  11
31.74902
  21
47.89493
  31
0
  0
LINE
  8
0
  10
31.74902
  20
47.89493
  30
0
  11
31.81867
  21
48.00221
  31
0
  0
LINE
  8
0
  10
31.81867
  20
48.00221
  30
0
  11
31.89063
  21
48.10877
  31
0
  0
LINE
  8
0
  10
31.89063
  20
48.10877
  30
0
  11
31.9648
  21
48.2146
  31
0
  0
LINE
  8
0
  10
31.9648
  20
48.2146
  30
0
  11
32.04109
  21
48.31973
  31
0
  0
LINE
  8
0
  10
32.04109
  20
48.31973
  30
0
  11
32.11944
  21
48.42416
  31
0
  0
LINE
  8
0
  10
32.11944
  20
48.42416
  30
0
  11
32.19978
  21
48.5279
  31
0
  0
LINE
  8
0
  10
32.19978
  20
48.5279
  30
0
  11
32.28206
  21
48.63097
  31
0
  0
LINE
  8
0
  10
32.28206
  20
48.63097
  30
0
  11
32.36622
  21
48.73335
  31
0
  0
LINE
  8
0
  10
32.36622
  20
48.73335
  30
0
  11
32.45222
  21
48.83506
  31
0
  0
LINE
  8
0
  10
32.45222
  20
48.83506
  30
0
  11
32.54002
  21
48.93609
  31
0
  0
LINE
  8
0
  10
32.54002
  20
48.93609
  30
0
  11
32.62959
  21
49.03645
  31
0
  0
LINE
  8
0
  10
32.62959
  20
49.03645
  30
0
  11
32.72088
  21
49.13614
  31
0
  0
LINE
  8
0
  10
32.72088
  20
49.13614
  30
0
  11
33.90945
  21
48.7281
  31
0
  0
LINE
  8
0
  10
33.90945
  20
48.7281
  30
0
  11
33.92027
  21
48.59336
  31
0
  0
LINE
  8
0
  10
33.92027
  20
48.59336
  30
0
  11
33.92931
  21
48.45915
  31
0
  0
LINE
  8
0
  10
33.92931
  20
48.45915
  30
0
  11
33.93654
  21
48.32549
  31
0
  0
LINE
  8
0
  10
33.93654
  20
48.32549
  30
0
  11
33.94194
  21
48.19241
  31
0
  0
LINE
  8
0
  10
33.94194
  20
48.19241
  30
0
  11
33.94547
  21
48.05992
  31
0
  0
LINE
  8
0
  10
33.94547
  20
48.05992
  30
0
  11
33.94709
  21
47.92805
  31
0
  0
LINE
  8
0
  10
33.94709
  20
47.92805
  30
0
  11
33.94677
  21
47.79684
  31
0
  0
LINE
  8
0
  10
33.94677
  20
47.79684
  30
0
  11
33.94445
  21
47.6663
  31
0
  0
LINE
  8
0
  10
33.94445
  20
47.6663
  30
0
  11
33.94009
  21
47.53648
  31
0
  0
LINE
  8
0
  10
33.94009
  20
47.53648
  30
0
  11
33.93361
  21
47.40741
  31
0
  0
LINE
  8
0
  10
33.93361
  20
47.40741
  30
0
  11
33.92496
  21
47.27913
  31
0
  0
LINE
  8
0
  10
33.92496
  20
47.27913
  30
0
  11
33.91402
  21
47.15168
  31
0
  0
LINE
  8
0
  10
33.91402
  20
47.15168
  30
0
  11
33.90071
  21
47.02512
  31
0
  0
LINE
  8
0
  10
33.90071
  20
47.02512
  30
0
  11
33.88488
  21
46.89952
  31
0
  0
LINE
  8
0
  10
33.88488
  20
46.89952
  30
0
  11
33.86636
  21
46.77496
  31
0
  0
LINE
  8
0
  10
33.86636
  20
46.77496
  30
0
  11
33.86129
  21
46.74399
  31
0
  0
LINE
  8
0
  10
33.86129
  20
46.74399
  30
0
  11
33.85603
  21
46.71309
  31
0
  0
LINE
  8
0
  10
33.85603
  20
46.71309
  30
0
  11
33.85058
  21
46.68227
  31
0
  0
LINE
  8
0
  10
33.85058
  20
46.68227
  30
0
  11
33.84493
  21
46.65153
  31
0
  0
LINE
  8
0
  10
33.84493
  20
46.65153
  30
0
  11
35.08135
  21
46.10918
  31
0
  0
LINE
  8
0
  10
35.08135
  20
46.10918
  30
0
  11
35.10015
  21
46.13416
  31
0
  0
LINE
  8
0
  10
35.10015
  20
46.13416
  30
0
  11
35.11913
  21
46.15904
  31
0
  0
LINE
  8
0
  10
35.11913
  20
46.15904
  30
0
  11
35.1383
  21
46.18384
  31
0
  0
LINE
  8
0
  10
35.1383
  20
46.18384
  30
0
  11
35.15765
  21
46.20854
  31
0
  0
LINE
  8
0
  10
35.15765
  20
46.20854
  30
0
  11
35.23676
  21
46.30653
  31
0
  0
LINE
  8
0
  10
35.23676
  20
46.30653
  30
0
  11
35.31844
  21
46.40325
  31
0
  0
LINE
  8
0
  10
35.31844
  20
46.40325
  30
0
  11
35.40254
  21
46.49876
  31
0
  0
LINE
  8
0
  10
35.40254
  20
46.49876
  30
0
  11
35.4889
  21
46.59312
  31
0
  0
LINE
  8
0
  10
35.4889
  20
46.59312
  30
0
  11
35.57741
  21
46.68637
  31
0
  0
LINE
  8
0
  10
35.57741
  20
46.68637
  30
0
  11
35.66799
  21
46.77855
  31
0
  0
LINE
  8
0
  10
35.66799
  20
46.77855
  30
0
  11
35.76055
  21
46.86969
  31
0
  0
LINE
  8
0
  10
35.76055
  20
46.86969
  30
0
  11
35.85502
  21
46.9598
  31
0
  0
LINE
  8
0
  10
35.85502
  20
46.9598
  30
0
  11
35.95134
  21
47.04891
  31
0
  0
LINE
  8
0
  10
35.95134
  20
47.04891
  30
0
  11
36.04945
  21
47.13702
  31
0
  0
LINE
  8
0
  10
36.04945
  20
47.13702
  30
0
  11
36.14932
  21
47.22416
  31
0
  0
LINE
  8
0
  10
36.14932
  20
47.22416
  30
0
  11
36.25088
  21
47.31033
  31
0
  0
LINE
  8
0
  10
36.25088
  20
47.31033
  30
0
  11
36.35412
  21
47.39553
  31
0
  0
LINE
  8
0
  10
36.35412
  20
47.39553
  30
0
  11
36.45898
  21
47.47978
  31
0
  0
LINE
  8
0
  10
36.45898
  20
47.47978
  30
0
  11
36.56544
  21
47.56308
  31
0
  0
LINE
  8
0
  10
36.56544
  20
47.56308
  30
0
  11
37.67064
  21
46.96497
  31
0
  0
LINE
  8
0
  10
37.67064
  20
46.96497
  30
0
  11
37.65913
  21
46.83029
  31
0
  0
LINE
  8
0
  10
37.65913
  20
46.83029
  30
0
  11
37.64596
  21
46.69642
  31
0
  0
LINE
  8
0
  10
37.64596
  20
46.69642
  30
0
  11
37.63109
  21
46.5634
  31
0
  0
LINE
  8
0
  10
37.63109
  20
46.5634
  30
0
  11
37.61451
  21
46.43124
  31
0
  0
LINE
  8
0
  10
37.61451
  20
46.43124
  30
0
  11
37.59618
  21
46.29998
  31
0
  0
LINE
  8
0
  10
37.59618
  20
46.29998
  30
0
  11
37.57608
  21
46.16964
  31
0
  0
LINE
  8
0
  10
37.57608
  20
46.16964
  30
0
  11
37.55416
  21
46.04027
  31
0
  0
LINE
  8
0
  10
37.55416
  20
46.04027
  30
0
  11
37.53039
  21
45.9119
  31
0
  0
LINE
  8
0
  10
37.53039
  20
45.9119
  30
0
  11
37.50472
  21
45.78456
  31
0
  0
LINE
  8
0
  10
37.50472
  20
45.78456
  30
0
  11
37.47709
  21
45.65832
  31
0
  0
LINE
  8
0
  10
37.47709
  20
45.65832
  30
0
  11
37.44744
  21
45.53321
  31
0
  0
LINE
  8
0
  10
37.44744
  20
45.53321
  30
0
  11
37.41568
  21
45.4093
  31
0
  0
LINE
  8
0
  10
37.41568
  20
45.4093
  30
0
  11
37.38171
  21
45.28666
  31
0
  0
LINE
  8
0
  10
37.38171
  20
45.28666
  30
0
  11
37.34543
  21
45.16538
  31
0
  0
LINE
  8
0
  10
37.34543
  20
45.16538
  30
0
  11
37.30666
  21
45.04556
  31
0
  0
LINE
  8
0
  10
37.30666
  20
45.04556
  30
0
  11
37.29656
  21
45.01585
  31
0
  0
LINE
  8
0
  10
37.29656
  20
45.01585
  30
0
  11
37.28629
  21
44.98624
  31
0
  0
LINE
  8
0
  10
37.28629
  20
44.98624
  30
0
  11
37.27584
  21
44.95674
  31
0
  0
LINE
  8
0
  10
37.27584
  20
44.95674
  30
0
  11
37.26521
  21
44.92734
  31
0
  0
LINE
  8
0
  10
37.26521
  20
44.92734
  30
0
  11
38.3955
  21
44.18889
  31
0
  0
LINE
  8
0
  10
38.3955
  20
44.18889
  30
0
  11
38.41815
  21
44.21043
  31
0
  0
LINE
  8
0
  10
38.41815
  20
44.21043
  30
0
  11
38.44097
  21
44.23185
  31
0
  0
LINE
  8
0
  10
38.44097
  20
44.23185
  30
0
  11
38.46396
  21
44.25315
  31
0
  0
LINE
  8
0
  10
38.46396
  20
44.25315
  30
0
  11
38.48711
  21
44.27433
  31
0
  0
LINE
  8
0
  10
38.48711
  20
44.27433
  30
0
  11
38.58126
  21
44.35797
  31
0
  0
LINE
  8
0
  10
38.58126
  20
44.35797
  30
0
  11
38.67775
  21
44.43991
  31
0
  0
LINE
  8
0
  10
38.67775
  20
44.43991
  30
0
  11
38.77642
  21
44.52028
  31
0
  0
LINE
  8
0
  10
38.77642
  20
44.52028
  30
0
  11
38.87713
  21
44.59914
  31
0
  0
LINE
  8
0
  10
38.87713
  20
44.59914
  30
0
  11
38.97979
  21
44.67655
  31
0
  0
LINE
  8
0
  10
38.97979
  20
44.67655
  30
0
  11
39.08431
  21
44.75257
  31
0
  0
LINE
  8
0
  10
39.08431
  20
44.75257
  30
0
  11
39.1906
  21
44.82723
  31
0
  0
LINE
  8
0
  10
39.1906
  20
44.82723
  30
0
  11
39.29862
  21
44.90056
  31
0
  0
LINE
  8
0
  10
39.29862
  20
44.90056
  30
0
  11
39.40829
  21
44.9726
  31
0
  0
LINE
  8
0
  10
39.40829
  20
44.9726
  30
0
  11
39.51957
  21
45.04336
  31
0
  0
LINE
  8
0
  10
39.51957
  20
45.04336
  30
0
  11
39.63241
  21
45.11287
  31
0
  0
LINE
  8
0
  10
39.63241
  20
45.11287
  30
0
  11
39.74678
  21
45.18115
  31
0
  0
LINE
  8
0
  10
39.74678
  20
45.18115
  30
0
  11
39.86263
  21
45.2482
  31
0
  0
LINE
  8
0
  10
39.86263
  20
45.2482
  30
0
  11
39.97993
  21
45.31404
  31
0
  0
LINE
  8
0
  10
39.97993
  20
45.31404
  30
0
  11
40.09865
  21
45.37868
  31
0
  0
LINE
  8
0
  10
40.09865
  20
45.37868
  30
0
  11
41.09033
  21
44.60682
  31
0
  0
LINE
  8
0
  10
41.09033
  20
44.60682
  30
0
  11
41.05681
  21
44.47587
  31
0
  0
LINE
  8
0
  10
41.05681
  20
44.47587
  30
0
  11
41.02178
  21
44.34599
  31
0
  0
LINE
  8
0
  10
41.02178
  20
44.34599
  30
0
  11
40.98522
  21
44.21723
  31
0
  0
LINE
  8
0
  10
40.98522
  20
44.21723
  30
0
  11
40.94711
  21
44.0896
  31
0
  0
LINE
  8
0
  10
40.94711
  20
44.0896
  30
0
  11
40.90743
  21
43.96315
  31
0
  0
LINE
  8
0
  10
40.90743
  20
43.96315
  30
0
  11
40.86615
  21
43.8379
  31
0
  0
LINE
  8
0
  10
40.86615
  20
43.8379
  30
0
  11
40.82324
  21
43.7139
  31
0
  0
LINE
  8
0
  10
40.82324
  20
43.7139
  30
0
  11
40.77866
  21
43.59119
  31
0
  0
LINE
  8
0
  10
40.77866
  20
43.59119
  30
0
  11
40.73238
  21
43.46982
  31
0
  0
LINE
  8
0
  10
40.73238
  20
43.46982
  30
0
  11
40.68435
  21
43.34984
  31
0
  0
LINE
  8
0
  10
40.68435
  20
43.34984
  30
0
  11
40.63451
  21
43.23132
  31
0
  0
LINE
  8
0
  10
40.63451
  20
43.23132
  30
0
  11
40.58279
  21
43.11433
  31
0
  0
LINE
  8
0
  10
40.58279
  20
43.11433
  30
0
  11
40.5291
  21
42.99895
  31
0
  0
LINE
  8
0
  10
40.5291
  20
42.99895
  30
0
  11
40.47334
  21
42.8853
  31
0
  0
LINE
  8
0
  10
40.47334
  20
42.8853
  30
0
  11
40.41539
  21
42.77349
  31
0
  0
LINE
  8
0
  10
40.41539
  20
42.77349
  30
0
  11
40.40053
  21
42.74585
  31
0
  0
LINE
  8
0
  10
40.40053
  20
42.74585
  30
0
  11
40.38553
  21
42.71834
  31
0
  0
LINE
  8
0
  10
40.38553
  20
42.71834
  30
0
  11
40.37036
  21
42.69096
  31
0
  0
LINE
  8
0
  10
40.37036
  20
42.69096
  30
0
  11
40.35504
  21
42.66371
  31
0
  0
LINE
  8
0
  10
40.35504
  20
42.66371
  30
0
  11
41.34837
  21
41.74929
  31
0
  0
LINE
  8
0
  10
41.34837
  20
41.74929
  30
0
  11
41.37426
  21
41.76681
  31
0
  0
LINE
  8
0
  10
41.37426
  20
41.76681
  30
0
  11
41.40029
  21
41.78418
  31
0
  0
LINE
  8
0
  10
41.40029
  20
41.78418
  30
0
  11
41.42647
  21
41.80141
  31
0
  0
LINE
  8
0
  10
41.42647
  20
41.80141
  30
0
  11
41.45279
  21
41.81849
  31
0
  0
LINE
  8
0
  10
41.45279
  20
41.81849
  30
0
  11
41.55943
  21
41.88549
  31
0
  0
LINE
  8
0
  10
41.55943
  20
41.88549
  30
0
  11
41.66809
  21
41.95044
  31
0
  0
LINE
  8
0
  10
41.66809
  20
41.95044
  30
0
  11
41.77864
  21
42.01347
  31
0
  0
LINE
  8
0
  10
41.77864
  20
42.01347
  30
0
  11
41.89096
  21
42.07467
  31
0
  0
LINE
  8
0
  10
41.89096
  20
42.07467
  30
0
  11
42.00496
  21
42.13413
  31
0
  0
LINE
  8
0
  10
42.00496
  20
42.13413
  30
0
  11
42.12056
  21
42.19191
  31
0
  0
LINE
  8
0
  10
42.12056
  20
42.19191
  30
0
  11
42.2377
  21
42.24806
  31
0
  0
LINE
  8
0
  10
42.2377
  20
42.24806
  30
0
  11
42.35631
  21
42.30261
  31
0
  0
LINE
  8
0
  10
42.35631
  20
42.30261
  30
0
  11
42.47634
  21
42.35561
  31
0
  0
LINE
  8
0
  10
42.47634
  20
42.35561
  30
0
  11
42.59775
  21
42.4071
  31
0
  0
LINE
  8
0
  10
42.59775
  20
42.4071
  30
0
  11
42.7205
  21
42.45709
  31
0
  0
LINE
  8
0
  10
42.7205
  20
42.45709
  30
0
  11
42.84454
  21
42.5056
  31
0
  0
LINE
  8
0
  10
42.84454
  20
42.5056
  30
0
  11
42.96985
  21
42.55267
  31
0
  0
LINE
  8
0
  10
42.96985
  20
42.55267
  30
0
  11
43.09639
  21
42.59831
  31
0
  0
LINE
  8
0
  10
43.09639
  20
42.59831
  30
0
  11
43.22412
  21
42.64252
  31
0
  0
LINE
  8
0
  10
43.22412
  20
42.64252
  30
0
  11
44.07524
  21
41.71797
  31
0
  0
LINE
  8
0
  10
44.07524
  20
41.71797
  30
0
  11
44.02062
  21
41.59432
  31
0
  0
LINE
  8
0
  10
44.02062
  20
41.59432
  30
0
  11
43.96469
  21
41.47198
  31
0
  0
LINE
  8
0
  10
43.96469
  20
41.47198
  30
0
  11
43.90744
  21
41.35099
  31
0
  0
LINE
  8
0
  10
43.90744
  20
41.35099
  30
0
  11
43.84884
  21
41.23138
  31
0
  0
LINE
  8
0
  10
43.84884
  20
41.23138
  30
0
  11
43.78889
  21
41.11318
  31
0
  0
LINE
  8
0
  10
43.78889
  20
41.11318
  30
0
  11
43.72756
  21
40.99643
  31
0
  0
LINE
  8
0
  10
43.72756
  20
40.99643
  30
0
  11
43.66482
  21
40.88119
  31
0
  0
LINE
  8
0
  10
43.66482
  20
40.88119
  30
0
  11
43.60066
  21
40.76749
  31
0
  0
LINE
  8
0
  10
43.60066
  20
40.76749
  30
0
  11
43.53503
  21
40.65539
  31
0
  0
LINE
  8
0
  10
43.53503
  20
40.65539
  30
0
  11
43.46791
  21
40.54496
  31
0
  0
LINE
  8
0
  10
43.46791
  20
40.54496
  30
0
  11
43.39923
  21
40.43626
  31
0
  0
LINE
  8
0
  10
43.39923
  20
40.43626
  30
0
  11
43.32896
  21
40.32937
  31
0
  0
LINE
  8
0
  10
43.32896
  20
40.32937
  30
0
  11
43.25702
  21
40.22441
  31
0
  0
LINE
  8
0
  10
43.25702
  20
40.22441
  30
0
  11
43.18331
  21
40.12148
  31
0
  0
LINE
  8
0
  10
43.18331
  20
40.12148
  30
0
  11
43.10774
  21
40.02074
  31
0
  0
LINE
  8
0
  10
43.10774
  20
40.02074
  30
0
  11
43.08854
  21
39.99592
  31
0
  0
LINE
  8
0
  10
43.08854
  20
39.99592
  30
0
  11
43.06921
  21
39.97125
  31
0
  0
LINE
  8
0
  10
43.06921
  20
39.97125
  30
0
  11
43.04975
  21
39.94674
  31
0
  0
LINE
  8
0
  10
43.04975
  20
39.94674
  30
0
  11
43.03015
  21
39.92239
  31
0
  0
LINE
  8
0
  10
43.03015
  20
39.92239
  30
0
  11
43.85942
  21
38.85694
  31
0
  0
LINE
  8
0
  10
43.85942
  20
38.85694
  30
0
  11
43.88784
  21
38.86996
  31
0
  0
LINE
  8
0
  10
43.88784
  20
38.86996
  30
0
  11
43.91638
  21
38.88281
  31
0
  0
LINE
  8
0
  10
43.91638
  20
38.88281
  30
0
  11
43.94504
  21
38.89549
  31
0
  0
LINE
  8
0
  10
43.94504
  20
38.89549
  30
0
  11
43.97382
  21
38.90801
  31
0
  0
LINE
  8
0
  10
43.97382
  20
38.90801
  30
0
  11
44.09002
  21
38.95654
  31
0
  0
LINE
  8
0
  10
44.09002
  20
38.95654
  30
0
  11
44.2079
  21
39.00272
  31
0
  0
LINE
  8
0
  10
44.2079
  20
39.00272
  30
0
  11
44.32731
  21
39.04669
  31
0
  0
LINE
  8
0
  10
44.32731
  20
39.04669
  30
0
  11
44.44817
  21
39.08858
  31
0
  0
LINE
  8
0
  10
44.44817
  20
39.08858
  30
0
  11
44.57041
  21
39.12846
  31
0
  0
LINE
  8
0
  10
44.57041
  20
39.12846
  30
0
  11
44.69394
  21
39.16642
  31
0
  0
LINE
  8
0
  10
44.69394
  20
39.16642
  30
0
  11
44.81872
  21
39.20252
  31
0
  0
LINE
  8
0
  10
44.81872
  20
39.20252
  30
0
  11
44.94469
  21
39.23681
  31
0
  0
LINE
  8
0
  10
44.94469
  20
39.23681
  30
0
  11
45.07181
  21
39.26934
  31
0
  0
LINE
  8
0
  10
45.07181
  20
39.26934
  30
0
  11
45.20004
  21
39.30013
  31
0
  0
LINE
  8
0
  10
45.20004
  20
39.30013
  30
0
  11
45.32934
  21
39.32924
  31
0
  0
LINE
  8
0
  10
45.32934
  20
39.32924
  30
0
  11
45.45968
  21
39.35668
  31
0
  0
LINE
  8
0
  10
45.45968
  20
39.35668
  30
0
  11
45.59102
  21
39.38248
  31
0
  0
LINE
  8
0
  10
45.59102
  20
39.38248
  30
0
  11
45.72334
  21
39.40666
  31
0
  0
LINE
  8
0
  10
45.72334
  20
39.40666
  30
0
  11
45.85662
  21
39.42925
  31
0
  0
LINE
  8
0
  10
45.85662
  20
39.42925
  30
0
  11
46.54394
  21
38.37722
  31
0
  0
LINE
  8
0
  10
46.54394
  20
38.37722
  30
0
  11
46.46972
  21
38.26424
  31
0
  0
LINE
  8
0
  10
46.46972
  20
38.26424
  30
0
  11
46.39442
  21
38.15278
  31
0
  0
LINE
  8
0
  10
46.39442
  20
38.15278
  30
0
  11
46.31803
  21
38.04286
  31
0
  0
LINE
  8
0
  10
46.31803
  20
38.04286
  30
0
  11
46.24055
  21
37.93453
  31
0
  0
LINE
  8
0
  10
46.24055
  20
37.93453
  30
0
  11
46.16196
  21
37.82781
  31
0
  0
LINE
  8
0
  10
46.16196
  20
37.82781
  30
0
  11
46.08225
  21
37.72275
  31
0
  0
LINE
  8
0
  10
46.08225
  20
37.72275
  30
0
  11
46.0014
  21
37.6194
  31
0
  0
LINE
  8
0
  10
46.0014
  20
37.6194
  30
0
  11
45.91939
  21
37.51781
  31
0
  0
LINE
  8
0
  10
45.91939
  20
37.51781
  30
0
  11
45.83621
  21
37.41805
  31
0
  0
LINE
  8
0
  10
45.83621
  20
37.41805
  30
0
  11
45.75183
  21
37.32017
  31
0
  0
LINE
  8
0
  10
45.75183
  20
37.32017
  30
0
  11
45.6662
  21
37.22425
  31
0
  0
LINE
  8
0
  10
45.6662
  20
37.22425
  30
0
  11
45.57929
  21
37.13039
  31
0
  0
LINE
  8
0
  10
45.57929
  20
37.13039
  30
0
  11
45.49105
  21
37.0387
  31
0
  0
LINE
  8
0
  10
45.49105
  20
37.0387
  30
0
  11
45.40141
  21
36.94931
  31
0
  0
LINE
  8
0
  10
45.40141
  20
36.94931
  30
0
  11
45.31029
  21
36.86238
  31
0
  0
LINE
  8
0
  10
45.31029
  20
36.86238
  30
0
  11
45.28727
  21
36.84106
  31
0
  0
LINE
  8
0
  10
45.28727
  20
36.84106
  30
0
  11
45.26414
  21
36.81991
  31
0
  0
LINE
  8
0
  10
45.26414
  20
36.81991
  30
0
  11
45.24091
  21
36.79893
  31
0
  0
LINE
  8
0
  10
45.24091
  20
36.79893
  30
0
  11
45.21757
  21
36.77814
  31
0
  0
LINE
  8
0
  10
45.21757
  20
36.77814
  30
0
  11
45.86017
  21
35.59073
  31
0
  0
LINE
  8
0
  10
45.86017
  20
35.59073
  30
0
  11
45.89034
  21
35.59889
  31
0
  0
LINE
  8
0
  10
45.89034
  20
35.59889
  30
0
  11
45.9206
  21
35.60687
  31
0
  0
LINE
  8
0
  10
45.9206
  20
35.60687
  30
0
  11
45.95096
  21
35.61466
  31
0
  0
LINE
  8
0
  10
45.95096
  20
35.61466
  30
0
  11
45.9814
  21
35.62228
  31
0
  0
LINE
  8
0
  10
45.9814
  20
35.62228
  30
0
  11
46.10401
  21
35.65101
  31
0
  0
LINE
  8
0
  10
46.10401
  20
35.65101
  30
0
  11
46.22788
  21
35.67716
  31
0
  0
LINE
  8
0
  10
46.22788
  20
35.67716
  30
0
  11
46.3529
  21
35.70088
  31
0
  0
LINE
  8
0
  10
46.3529
  20
35.70088
  30
0
  11
46.47901
  21
35.7223
  31
0
  0
LINE
  8
0
  10
46.47901
  20
35.7223
  30
0
  11
46.60614
  21
35.74153
  31
0
  0
LINE
  8
0
  10
46.60614
  20
35.74153
  30
0
  11
46.73424
  21
35.75864
  31
0
  0
LINE
  8
0
  10
46.73424
  20
35.75864
  30
0
  11
46.86326
  21
35.7737
  31
0
  0
LINE
  8
0
  10
46.86326
  20
35.7737
  30
0
  11
46.99316
  21
35.78679
  31
0
  0
LINE
  8
0
  10
46.99316
  20
35.78679
  30
0
  11
47.1239
  21
35.79795
  31
0
  0
LINE
  8
0
  10
47.1239
  20
35.79795
  30
0
  11
47.25544
  21
35.80722
  31
0
  0
LINE
  8
0
  10
47.25544
  20
35.80722
  30
0
  11
47.38777
  21
35.81464
  31
0
  0
LINE
  8
0
  10
47.38777
  20
35.81464
  30
0
  11
47.52085
  21
35.82026
  31
0
  0
LINE
  8
0
  10
47.52085
  20
35.82026
  30
0
  11
47.65465
  21
35.82409
  31
0
  0
LINE
  8
0
  10
47.65465
  20
35.82409
  30
0
  11
47.78914
  21
35.82616
  31
0
  0
LINE
  8
0
  10
47.78914
  20
35.82616
  30
0
  11
47.92432
  21
35.82651
  31
0
  0
LINE
  8
0
  10
47.92432
  20
35.82651
  30
0
  11
48.42911
  21
34.67569
  31
0
  0
LINE
  8
0
  10
48.42911
  20
34.67569
  30
0
  11
48.33731
  21
34.57648
  31
0
  0
LINE
  8
0
  10
48.33731
  20
34.57648
  30
0
  11
48.24469
  21
34.47893
  31
0
  0
LINE
  8
0
  10
48.24469
  20
34.47893
  30
0
  11
48.15125
  21
34.38308
  31
0
  0
LINE
  8
0
  10
48.15125
  20
34.38308
  30
0
  11
48.05699
  21
34.28898
  31
0
  0
LINE
  8
0
  10
48.05699
  20
34.28898
  30
0
  11
47.96191
  21
34.19665
  31
0
  0
LINE
  8
0
  10
47.96191
  20
34.19665
  30
0
  11
47.86599
  21
34.10614
  31
0
  0
LINE
  8
0
  10
47.86599
  20
34.10614
  30
0
  11
47.76923
  21
34.01751
  31
0
  0
LINE
  8
0
  10
47.76923
  20
34.01751
  30
0
  11
47.67163
  21
33.93081
  31
0
  0
LINE
  8
0
  10
47.67163
  20
33.93081
  30
0
  11
47.57316
  21
33.84609
  31
0
  0
LINE
  8
0
  10
47.57316
  20
33.84609
  30
0
  11
47.47381
  21
33.76344
  31
0
  0
LINE
  8
0
  10
47.47381
  20
33.76344
  30
0
  11
47.37357
  21
33.68292
  31
0
  0
LINE
  8
0
  10
47.37357
  20
33.68292
  30
0
  11
47.2724
  21
33.60465
  31
0
  0
LINE
  8
0
  10
47.2724
  20
33.60465
  30
0
  11
47.17027
  21
33.52873
  31
0
  0
LINE
  8
0
  10
47.17027
  20
33.52873
  30
0
  11
47.06714
  21
33.45531
  31
0
  0
LINE
  8
0
  10
47.06714
  20
33.45531
  30
0
  11
46.96295
  21
33.38457
  31
0
  0
LINE
  8
0
  10
46.96295
  20
33.38457
  30
0
  11
46.93673
  21
33.36732
  31
0
  0
LINE
  8
0
  10
46.93673
  20
33.36732
  30
0
  11
46.91044
  21
33.35027
  31
0
  0
LINE
  8
0
  10
46.91044
  20
33.35027
  30
0
  11
46.88407
  21
33.3334
  31
0
  0
LINE
  8
0
  10
46.88407
  20
33.3334
  30
0
  11
46.85763
  21
33.31674
  31
0
  0
LINE
  8
0
  10
46.85763
  20
33.31674
  30
0
  11
47.29602
  21
32.03975
  31
0
  0
LINE
  8
0
  10
47.29602
  20
32.03975
  30
0
  11
47.32712
  21
32.04284
  31
0
  0
LINE
  8
0
  10
47.32712
  20
32.04284
  30
0
  11
47.35829
  21
32.04573
  31
0
  0
LINE
  8
0
  10
47.35829
  20
32.04573
  30
0
  11
47.38951
  21
32.04842
  31
0
  0
LINE
  8
0
  10
47.38951
  20
32.04842
  30
0
  11
47.4208
  21
32.05092
  31
0
  0
LINE
  8
0
  10
47.4208
  20
32.05092
  30
0
  11
47.54647
  21
32.05908
  31
0
  0
LINE
  8
0
  10
47.54647
  20
32.05908
  30
0
  11
47.67294
  21
32.06449
  31
0
  0
LINE
  8
0
  10
47.67294
  20
32.06449
  30
0
  11
47.80017
  21
32.0673
  31
0
  0
LINE
  8
0
  10
47.80017
  20
32.0673
  30
0
  11
47.92808
  21
32.06767
  31
0
  0
LINE
  8
0
  10
47.92808
  20
32.06767
  30
0
  11
48.05664
  21
32.06571
  31
0
  0
LINE
  8
0
  10
48.05664
  20
32.06571
  30
0
  11
48.18581
  21
32.0615
  31
0
  0
LINE
  8
0
  10
48.18581
  20
32.0615
  30
0
  11
48.31555
  21
32.05513
  31
0
  0
LINE
  8
0
  10
48.31555
  20
32.05513
  30
0
  11
48.44583
  21
32.04666
  31
0
  0
LINE
  8
0
  10
48.44583
  20
32.04666
  30
0
  11
48.57662
  21
32.03615
  31
0
  0
LINE
  8
0
  10
48.57662
  20
32.03615
  30
0
  11
48.7079
  21
32.02364
  31
0
  0
LINE
  8
0
  10
48.7079
  20
32.02364
  30
0
  11
48.83965
  21
32.00918
  31
0
  0
LINE
  8
0
  10
48.83965
  20
32.00918
  30
0
  11
48.97183
  21
31.99281
  31
0
  0
LINE
  8
0
  10
48.97183
  20
31.99281
  30
0
  11
49.10444
  21
31.97457
  31
0
  0
LINE
  8
0
  10
49.10444
  20
31.97457
  30
0
  11
49.23744
  21
31.95448
  31
0
  0
LINE
  8
0
  10
49.23744
  20
31.95448
  30
0
  11
49.37083
  21
31.93257
  31
0
  0
LINE
  8
0
  10
49.37083
  20
31.93257
  30
0
  11
49.67932
  21
30.71436
  31
0
  0
LINE
  8
0
  10
49.67932
  20
30.71436
  30
0
  11
49.57244
  21
30.63161
  31
0
  0
LINE
  8
0
  10
49.57244
  20
30.63161
  30
0
  11
49.46502
  21
30.55064
  31
0
  0
LINE
  8
0
  10
49.46502
  20
30.55064
  30
0
  11
49.35708
  21
30.47148
  31
0
  0
LINE
  8
0
  10
49.35708
  20
30.47148
  30
0
  11
49.24862
  21
30.39417
  31
0
  0
LINE
  8
0
  10
49.24862
  20
30.39417
  30
0
  11
49.13964
  21
30.31875
  31
0
  0
LINE
  8
0
  10
49.13964
  20
30.31875
  30
0
  11
49.03013
  21
30.24527
  31
0
  0
LINE
  8
0
  10
49.03013
  20
30.24527
  30
0
  11
48.92011
  21
30.17377
  31
0
  0
LINE
  8
0
  10
48.92011
  20
30.17377
  30
0
  11
48.80956
  21
30.10432
  31
0
  0
LINE
  8
0
  10
48.80956
  20
30.10432
  30
0
  11
48.69849
  21
30.03696
  31
0
  0
LINE
  8
0
  10
48.69849
  20
30.03696
  30
0
  11
48.5869
  21
29.97179
  31
0
  0
LINE
  8
0
  10
48.5869
  20
29.97179
  30
0
  11
48.47477
  21
29.90887
  31
0
  0
LINE
  8
0
  10
48.47477
  20
29.90887
  30
0
  11
48.36209
  21
29.84832
  31
0
  0
LINE
  8
0
  10
48.36209
  20
29.84832
  30
0
  11
48.24886
  21
29.79024
  31
0
  0
LINE
  8
0
  10
48.24886
  20
29.79024
  30
0
  11
48.13505
  21
29.7348
  31
0
  0
LINE
  8
0
  10
48.13505
  20
29.7348
  30
0
  11
48.02064
  21
29.68217
  31
0
  0
LINE
  8
0
  10
48.02064
  20
29.68217
  30
0
  11
47.99194
  21
29.66948
  31
0
  0
LINE
  8
0
  10
47.99194
  20
29.66948
  30
0
  11
47.9632
  21
29.65698
  31
0
  0
LINE
  8
0
  10
47.9632
  20
29.65698
  30
0
  11
47.93442
  21
29.64469
  31
0
  0
LINE
  8
0
  10
47.93442
  20
29.64469
  30
0
  11
47.90559
  21
29.6326
  31
0
  0
LINE
  8
0
  10
47.90559
  20
29.6326
  30
0
  11
48.12782
  21
28.30088
  31
0
  0
LINE
  8
0
  10
48.12782
  20
28.30088
  30
0
  11
48.15901
  21
28.2988
  31
0
  0
LINE
  8
0
  10
48.15901
  20
28.2988
  30
0
  11
48.19022
  21
28.29652
  31
0
  0
LINE
  8
0
  10
48.19022
  20
28.29652
  30
0
  11
48.22146
  21
28.29403
  31
0
  0
LINE
  8
0
  10
48.22146
  20
28.29403
  30
0
  11
48.25273
  21
28.29135
  31
0
  0
LINE
  8
0
  10
48.25273
  20
28.29135
  30
0
  11
48.37803
  21
28.27872
  31
0
  0
LINE
  8
0
  10
48.37803
  20
28.27872
  30
0
  11
48.50367
  21
28.26323
  31
0
  0
LINE
  8
0
  10
48.50367
  20
28.26323
  30
0
  11
48.62963
  21
28.24507
  31
0
  0
LINE
  8
0
  10
48.62963
  20
28.24507
  30
0
  11
48.75586
  21
28.22438
  31
0
  0
LINE
  8
0
  10
48.75586
  20
28.22438
  30
0
  11
48.88234
  21
28.20129
  31
0
  0
LINE
  8
0
  10
48.88234
  20
28.20129
  30
0
  11
49.00905
  21
28.17588
  31
0
  0
LINE
  8
0
  10
49.00905
  20
28.17588
  30
0
  11
49.13597
  21
28.14824
  31
0
  0
LINE
  8
0
  10
49.13597
  20
28.14824
  30
0
  11
49.26308
  21
28.11844
  31
0
  0
LINE
  8
0
  10
49.26308
  20
28.11844
  30
0
  11
49.39036
  21
28.08654
  31
0
  0
LINE
  8
0
  10
49.39036
  20
28.08654
  30
0
  11
49.51779
  21
28.05259
  31
0
  0
LINE
  8
0
  10
49.51779
  20
28.05259
  30
0
  11
49.64536
  21
28.01665
  31
0
  0
LINE
  8
0
  10
49.64536
  20
28.01665
  30
0
  11
49.77305
  21
27.97875
  31
0
  0
LINE
  8
0
  10
49.77305
  20
27.97875
  30
0
  11
49.90084
  21
27.93893
  31
0
  0
LINE
  8
0
  10
49.90084
  20
27.93893
  30
0
  11
50.02873
  21
27.89722
  31
0
  0
LINE
  8
0
  10
50.02873
  20
27.89722
  30
0
  11
50.15669
  21
27.85365
  31
0
  0
LINE
  8
0
  10
50.15669
  20
27.85365
  30
0
  11
50.26046
  21
26.60128
  31
0
  0
LINE
  8
0
  10
50.26046
  20
26.60128
  30
0
  11
50.14142
  21
26.53725
  31
0
  0
LINE
  8
0
  10
50.14142
  20
26.53725
  30
0
  11
50.02214
  21
26.47506
  31
0
  0
LINE
  8
0
  10
50.02214
  20
26.47506
  30
0
  11
49.90264
  21
26.41475
  31
0
  0
LINE
  8
0
  10
49.90264
  20
26.41475
  30
0
  11
49.78294
  21
26.35635
  31
0
  0
LINE
  8
0
  10
49.78294
  20
26.35635
  30
0
  11
49.66302
  21
26.2999
  31
0
  0
LINE
  8
0
  10
49.66302
  20
26.2999
  30
0
  11
49.54292
  21
26.24544
  31
0
  0
LINE
  8
0
  10
49.54292
  20
26.24544
  30
0
  11
49.42263
  21
26.19303
  31
0
  0
LINE
  8
0
  10
49.42263
  20
26.19303
  30
0
  11
49.30216
  21
26.14272
  31
0
  0
LINE
  8
0
  10
49.30216
  20
26.14272
  30
0
  11
49.18152
  21
26.09456
  31
0
  0
LINE
  8
0
  10
49.18152
  20
26.09456
  30
0
  11
49.06071
  21
26.04864
  31
0
  0
LINE
  8
0
  10
49.06071
  20
26.04864
  30
0
  11
48.93976
  21
26.00504
  31
0
  0
LINE
  8
0
  10
48.93976
  20
26.00504
  30
0
  11
48.81865
  21
25.96386
  31
0
  0
LINE
  8
0
  10
48.81865
  20
25.96386
  30
0
  11
48.69741
  21
25.92522
  31
0
  0
LINE
  8
0
  10
48.69741
  20
25.92522
  30
0
  11
48.57603
  21
25.88926
  31
0
  0
LINE
  8
0
  10
48.57603
  20
25.88926
  30
0
  11
48.45452
  21
25.85618
  31
0
  0
LINE
  8
0
  10
48.45452
  20
25.85618
  30
0
  11
48.42412
  21
25.84838
  31
0
  0
LINE
  8
0
  10
48.42412
  20
25.84838
  30
0
  11
48.39371
  21
25.84079
  31
0
  0
LINE
  8
0
  10
48.39371
  20
25.84079
  30
0
  11
48.3633
  21
25.8334
  31
0
  0
LINE
  8
0
  10
48.3633
  20
25.8334
  30
0
  11
48.33288
  21
25.82622
  31
0
  0
LINE
  8
0
  10
48.33288
  20
25.82622
  30
0
  11
48.33288
  21
24.47608
  31
0
  0
LINE
  8
0
  10
48.33288
  20
24.47608
  30
0
  11
48.3633
  21
24.4689
  31
0
  0
LINE
  8
0
  10
48.3633
  20
24.4689
  30
0
  11
48.39371
  21
24.46151
  31
0
  0
LINE
  8
0
  10
48.39371
  20
24.46151
  30
0
  11
48.42412
  21
24.45392
  31
0
  0
LINE
  8
0
  10
48.42412
  20
24.45392
  30
0
  11
48.45452
  21
24.44613
  31
0
  0
LINE
  8
0
  10
48.45452
  20
24.44613
  30
0
  11
48.57603
  21
24.41304
  31
0
  0
LINE
  8
0
  10
48.57603
  20
24.41304
  30
0
  11
48.69741
  21
24.37709
  31
0
  0
LINE
  8
0
  10
48.69741
  20
24.37709
  30
0
  11
48.81865
  21
24.33844
  31
0
  0
LINE
  8
0
  10
48.81865
  20
24.33844
  30
0
  11
48.93976
  21
24.29726
  31
0
  0
LINE
  8
0
  10
48.93976
  20
24.29726
  30
0
  11
49.06071
  21
24.25366
  31
0
  0
LINE
  8
0
  10
49.06071
  20
24.25366
  30
0
  11
49.18152
  21
24.20774
  31
0
  0
LINE
  8
0
  10
49.18152
  20
24.20774
  30
0
  11
49.30216
  21
24.15959
  31
0
  0
LINE
  8
0
  10
49.30216
  20
24.15959
  30
0
  11
49.42263
  21
24.10927
  31
0
  0
LINE
  8
0
  10
49.42263
  20
24.10927
  30
0
  11
49.54292
  21
24.05686
  31
0
  0
LINE
  8
0
  10
49.54292
  20
24.05686
  30
0
  11
49.66302
  21
24.0024
  31
0
  0
LINE
  8
0
  10
49.66302
  20
24.0024
  30
0
  11
49.78294
  21
23.94595
  31
0
  0
LINE
  8
0
  10
49.78294
  20
23.94595
  30
0
  11
49.90264
  21
23.88755
  31
0
  0
LINE
  8
0
  10
49.90264
  20
23.88755
  30
0
  11
50.02214
  21
23.82724
  31
0
  0
LINE
  8
0
  10
50.02214
  20
23.82724
  30
0
  11
50.14142
  21
23.76505
  31
0
  0
LINE
  8
0
  10
50.14142
  20
23.76505
  30
0
  11
50.26046
  21
23.70102
  31
0
  0
LINE
  8
0
  10
50.26046
  20
23.70102
  30
0
  11
50.15669
  21
22.44865
  31
0
  0
LINE
  8
0
  10
50.15669
  20
22.44865
  30
0
  11
50.02873
  21
22.40508
  31
0
  0
LINE
  8
0
  10
50.02873
  20
22.40508
  30
0
  11
49.90084
  21
22.36338
  31
0
  0
LINE
  8
0
  10
49.90084
  20
22.36338
  30
0
  11
49.77305
  21
22.32356
  31
0
  0
LINE
  8
0
  10
49.77305
  20
22.32356
  30
0
  11
49.64536
  21
22.28565
  31
0
  0
LINE
  8
0
  10
49.64536
  20
22.28565
  30
0
  11
49.51779
  21
22.24971
  31
0
  0
LINE
  8
0
  10
49.51779
  20
22.24971
  30
0
  11
49.39036
  21
22.21577
  31
0
  0
LINE
  8
0
  10
49.39036
  20
22.21577
  30
0
  11
49.26308
  21
22.18387
  31
0
  0
LINE
  8
0
  10
49.26308
  20
22.18387
  30
0
  11
49.13597
  21
22.15407
  31
0
  0
LINE
  8
0
  10
49.13597
  20
22.15407
  30
0
  11
49.00905
  21
22.12643
  31
0
  0
LINE
  8
0
  10
49.00905
  20
22.12643
  30
0
  11
48.88234
  21
22.10102
  31
0
  0
LINE
  8
0
  10
48.88234
  20
22.10102
  30
0
  11
48.75586
  21
22.07792
  31
0
  0
LINE
  8
0
  10
48.75586
  20
22.07792
  30
0
  11
48.62963
  21
22.05723
  31
0
  0
LINE
  8
0
  10
48.62963
  20
22.05723
  30
0
  11
48.50367
  21
22.03907
  31
0
  0
LINE
  8
0
  10
48.50367
  20
22.03907
  30
0
  11
48.37803
  21
22.02358
  31
0
  0
LINE
  8
0
  10
48.37803
  20
22.02358
  30
0
  11
48.25273
  21
22.01095
  31
0
  0
LINE
  8
0
  10
48.25273
  20
22.01095
  30
0
  11
48.22146
  21
22.00827
  31
0
  0
LINE
  8
0
  10
48.22146
  20
22.00827
  30
0
  11
48.19022
  21
22.00578
  31
0
  0
LINE
  8
0
  10
48.19022
  20
22.00578
  30
0
  11
48.15901
  21
22.0035
  31
0
  0
LINE
  8
0
  10
48.15901
  20
22.0035
  30
0
  11
48.12782
  21
22.00143
  31
0
  0
LINE
  8
0
  10
48.12782
  20
22.00143
  30
0
  11
47.90559
  21
20.6697
  31
0
  0
LINE
  8
0
  10
47.90559
  20
20.6697
  30
0
  11
47.93442
  21
20.65761
  31
0
  0
LINE
  8
0
  10
47.93442
  20
20.65761
  30
0
  11
47.9632
  21
20.64532
  31
0
  0
LINE
  8
0
  10
47.9632
  20
20.64532
  30
0
  11
47.99194
  21
20.63282
  31
0
  0
LINE
  8
0
  10
47.99194
  20
20.63282
  30
0
  11
48.02064
  21
20.62013
  31
0
  0
LINE
  8
0
  10
48.02064
  20
20.62013
  30
0
  11
48.13505
  21
20.5675
  31
0
  0
LINE
  8
0
  10
48.13505
  20
20.5675
  30
0
  11
48.24886
  21
20.51206
  31
0
  0
LINE
  8
0
  10
48.24886
  20
20.51206
  30
0
  11
48.36209
  21
20.45398
  31
0
  0
LINE
  8
0
  10
48.36209
  20
20.45398
  30
0
  11
48.47477
  21
20.39343
  31
0
  0
LINE
  8
0
  10
48.47477
  20
20.39343
  30
0
  11
48.5869
  21
20.33052
  31
0
  0
LINE
  8
0
  10
48.5869
  20
20.33052
  30
0
  11
48.69849
  21
20.26534
  31
0
  0
LINE
  8
0
  10
48.69849
  20
20.26534
  30
0
  11
48.80956
  21
20.19799
  31
0
  0
LINE
  8
0
  10
48.80956
  20
20.19799
  30
0
  11
48.92011
  21
20.12853
  31
0
  0
LINE
  8
0
  10
48.92011
  20
20.12853
  30
0
  11
49.03013
  21
20.05703
  31
0
  0
LINE
  8
0
  10
49.03013
  20
20.05703
  30
0
  11
49.13964
  21
19.98355
  31
0
  0
LINE
  8
0
  10
49.13964
  20
19.98355
  30
0
  11
49.24862
  21
19.90813
  31
0
  0
LINE
  8
0
  10
49.24862
  20
19.90813
  30
0
  11
49.35708
  21
19.83082
  31
0
  0
LINE
  8
0
  10
49.35708
  20
19.83082
  30
0
  11
49.46502
  21
19.75167
  31
0
  0
LINE
  8
0
  10
49.46502
  20
19.75167
  30
0
  11
49.57244
  21
19.67069
  31
0
  0
LINE
  8
0
  10
49.57244
  20
19.67069
  30
0
  11
49.67932
  21
19.58794
  31
0
  0
LINE
  8
0
  10
49.67932
  20
19.58794
  30
0
  11
49.37083
  21
18.36973
  31
0
  0
LINE
  8
0
  10
49.37083
  20
18.36973
  30
0
  11
49.23744
  21
18.34782
  31
0
  0
LINE
  8
0
  10
49.23744
  20
18.34782
  30
0
  11
49.10444
  21
18.32773
  31
0
  0
LINE
  8
0
  10
49.10444
  20
18.32773
  30
0
  11
48.97183
  21
18.30949
  31
0
  0
LINE
  8
0
  10
48.97183
  20
18.30949
  30
0
  11
48.83965
  21
18.29312
  31
0
  0
LINE
  8
0
  10
48.83965
  20
18.29312
  30
0
  11
48.7079
  21
18.27866
  31
0
  0
LINE
  8
0
  10
48.7079
  20
18.27866
  30
0
  11
48.57662
  21
18.26616
  31
0
  0
LINE
  8
0
  10
48.57662
  20
18.26616
  30
0
  11
48.44583
  21
18.25564
  31
0
  0
LINE
  8
0
  10
48.44583
  20
18.25564
  30
0
  11
48.31555
  21
18.24717
  31
0
  0
LINE
  8
0
  10
48.31555
  20
18.24717
  30
0
  11
48.18581
  21
18.2408
  31
0
  0
LINE
  8
0
  10
48.18581
  20
18.2408
  30
0
  11
48.05664
  21
18.23659
  31
0
  0
LINE
  8
0
  10
48.05664
  20
18.23659
  30
0
  11
47.92808
  21
18.23463
  31
0
  0
LINE
  8
0
  10
47.92808
  20
18.23463
  30
0
  11
47.80017
  21
18.235
  31
0
  0
LINE
  8
0
  10
47.80017
  20
18.235
  30
0
  11
47.67294
  21
18.23782
  31
0
  0
LINE
  8
0
  10
47.67294
  20
18.23782
  30
0
  11
47.54647
  21
18.24322
  31
0
  0
LINE
  8
0
  10
47.54647
  20
18.24322
  30
0
  11
47.4208
  21
18.25139
  31
0
  0
LINE
  8
0
  10
47.4208
  20
18.25139
  30
0
  11
47.38951
  21
18.25389
  31
0
  0
LINE
  8
0
  10
47.38951
  20
18.25389
  30
0
  11
47.35829
  21
18.25658
  31
0
  0
LINE
  8
0
  10
47.35829
  20
18.25658
  30
0
  11
47.32712
  21
18.25946
  31
0
  0
LINE
  8
0
  10
47.32712
  20
18.25946
  30
0
  11
47.29602
  21
18.26255
  31
0
  0
LINE
  8
0
  10
47.29602
  20
18.26255
  30
0
  11
46.85763
  21
16.98557
  31
0
  0
LINE
  8
0
  10
46.85763
  20
16.98557
  30
0
  11
46.88407
  21
16.9689
  31
0
  0
LINE
  8
0
  10
46.88407
  20
16.9689
  30
0
  11
46.91044
  21
16.95203
  31
0
  0
LINE
  8
0
  10
46.91044
  20
16.95203
  30
0
  11
46.93673
  21
16.93498
  31
0
  0
LINE
  8
0
  10
46.93673
  20
16.93498
  30
0
  11
46.96295
  21
16.91774
  31
0
  0
LINE
  8
0
  10
46.96295
  20
16.91774
  30
0
  11
47.06714
  21
16.84699
  31
0
  0
LINE
  8
0
  10
47.06714
  20
16.84699
  30
0
  11
47.17027
  21
16.77357
  31
0
  0
LINE
  8
0
  10
47.17027
  20
16.77357
  30
0
  11
47.2724
  21
16.69765
  31
0
  0
LINE
  8
0
  10
47.2724
  20
16.69765
  30
0
  11
47.37357
  21
16.61938
  31
0
  0
LINE
  8
0
  10
47.37357
  20
16.61938
  30
0
  11
47.47381
  21
16.53887
  31
0
  0
LINE
  8
0
  10
47.47381
  20
16.53887
  30
0
  11
47.57316
  21
16.45621
  31
0
  0
LINE
  8
0
  10
47.57316
  20
16.45621
  30
0
  11
47.67163
  21
16.37149
  31
0
  0
LINE
  8
0
  10
47.67163
  20
16.37149
  30
0
  11
47.76923
  21
16.28479
  31
0
  0
LINE
  8
0
  10
47.76923
  20
16.28479
  30
0
  11
47.86599
  21
16.19616
  31
0
  0
LINE
  8
0
  10
47.86599
  20
16.19616
  30
0
  11
47.96191
  21
16.10565
  31
0
  0
LINE
  8
0
  10
47.96191
  20
16.10565
  30
0
  11
48.05699
  21
16.01333
  31
0
  0
LINE
  8
0
  10
48.05699
  20
16.01333
  30
0
  11
48.15125
  21
15.91922
  31
0
  0
LINE
  8
0
  10
48.15125
  20
15.91922
  30
0
  11
48.24469
  21
15.82338
  31
0
  0
LINE
  8
0
  10
48.24469
  20
15.82338
  30
0
  11
48.33731
  21
15.72583
  31
0
  0
LINE
  8
0
  10
48.33731
  20
15.72583
  30
0
  11
48.42911
  21
15.62661
  31
0
  0
LINE
  8
0
  10
48.42911
  20
15.62661
  30
0
  11
47.92432
  21
14.47579
  31
0
  0
LINE
  8
0
  10
47.92432
  20
14.47579
  30
0
  11
47.78914
  21
14.47614
  31
0
  0
LINE
  8
0
  10
47.78914
  20
14.47614
  30
0
  11
47.65465
  21
14.47821
  31
0
  0
LINE
  8
0
  10
47.65465
  20
14.47821
  30
0
  11
47.52085
  21
14.48205
  31
0
  0
LINE
  8
0
  10
47.52085
  20
14.48205
  30
0
  11
47.38777
  21
14.48766
  31
0
  0
LINE
  8
0
  10
47.38777
  20
14.48766
  30
0
  11
47.25544
  21
14.49508
  31
0
  0
LINE
  8
0
  10
47.25544
  20
14.49508
  30
0
  11
47.1239
  21
14.50435
  31
0
  0
LINE
  8
0
  10
47.1239
  20
14.50435
  30
0
  11
46.99316
  21
14.51551
  31
0
  0
LINE
  8
0
  10
46.99316
  20
14.51551
  30
0
  11
46.86326
  21
14.5286
  31
0
  0
LINE
  8
0
  10
46.86326
  20
14.5286
  30
0
  11
46.73424
  21
14.54367
  31
0
  0
LINE
  8
0
  10
46.73424
  20
14.54367
  30
0
  11
46.60614
  21
14.56078
  31
0
  0
LINE
  8
0
  10
46.60614
  20
14.56078
  30
0
  11
46.47901
  21
14.58
  31
0
  0
LINE
  8
0
  10
46.47901
  20
14.58
  30
0
  11
46.3529
  21
14.60142
  31
0
  0
LINE
  8
0
  10
46.3529
  20
14.60142
  30
0
  11
46.22788
  21
14.62514
  31
0
  0
LINE
  8
0
  10
46.22788
  20
14.62514
  30
0
  11
46.10401
  21
14.65129
  31
0
  0
LINE
  8
0
  10
46.10401
  20
14.65129
  30
0
  11
45.9814
  21
14.68003
  31
0
  0
LINE
  8
0
  10
45.9814
  20
14.68003
  30
0
  11
45.95096
  21
14.68764
  31
0
  0
LINE
  8
0
  10
45.95096
  20
14.68764
  30
0
  11
45.9206
  21
14.69543
  31
0
  0
LINE
  8
0
  10
45.9206
  20
14.69543
  30
0
  11
45.89034
  21
14.70341
  31
0
  0
LINE
  8
0
  10
45.89034
  20
14.70341
  30
0
  11
45.86017
  21
14.71158
  31
0
  0
LINE
  8
0
  10
45.86017
  20
14.71158
  30
0
  11
45.21757
  21
13.52416
  31
0
  0
LINE
  8
0
  10
45.21757
  20
13.52416
  30
0
  11
45.24091
  21
13.50337
  31
0
  0
LINE
  8
0
  10
45.24091
  20
13.50337
  30
0
  11
45.26414
  21
13.4824
  31
0
  0
LINE
  8
0
  10
45.26414
  20
13.4824
  30
0
  11
45.28727
  21
13.46125
  31
0
  0
LINE
  8
0
  10
45.28727
  20
13.46125
  30
0
  11
45.31029
  21
13.43992
  31
0
  0
LINE
  8
0
  10
45.31029
  20
13.43992
  30
0
  11
45.40141
  21
13.353
  31
0
  0
LINE
  8
0
  10
45.40141
  20
13.353
  30
0
  11
45.49105
  21
13.2636
  31
0
  0
LINE
  8
0
  10
45.49105
  20
13.2636
  30
0
  11
45.57929
  21
13.17191
  31
0
  0
LINE
  8
0
  10
45.57929
  20
13.17191
  30
0
  11
45.6662
  21
13.07805
  31
0
  0
LINE
  8
0
  10
45.6662
  20
13.07805
  30
0
  11
45.75183
  21
12.98214
  31
0
  0
LINE
  8
0
  10
45.75183
  20
12.98214
  30
0
  11
45.83621
  21
12.88426
  31
0
  0
LINE
  8
0
  10
45.83621
  20
12.88426
  30
0
  11
45.91939
  21
12.78449
  31
0
  0
LINE
  8
0
  10
45.91939
  20
12.78449
  30
0
  11
46.0014
  21
12.6829
  31
0
  0
LINE
  8
0
  10
46.0014
  20
12.6829
  30
0
  11
46.08225
  21
12.57955
  31
0
  0
LINE
  8
0
  10
46.08225
  20
12.57955
  30
0
  11
46.16196
  21
12.4745
  31
0
  0
LINE
  8
0
  10
46.16196
  20
12.4745
  30
0
  11
46.24055
  21
12.36778
  31
0
  0
LINE
  8
0
  10
46.24055
  20
12.36778
  30
0
  11
46.31803
  21
12.25944
  31
0
  0
LINE
  8
0
  10
46.31803
  20
12.25944
  30
0
  11
46.39442
  21
12.14952
  31
0
  0
LINE
  8
0
  10
46.39442
  20
12.14952
  30
0
  11
46.46972
  21
12.03806
  31
0
  0
LINE
  8
0
  10
46.46972
  20
12.03806
  30
0
  11
46.54394
  21
11.92509
  31
0
  0
LINE
  8
0
  10
46.54394
  20
11.92509
  30
0
  11
45.85662
  21
10.87305
  31
0
  0
LINE
  8
0
  10
45.85662
  20
10.87305
  30
0
  11
45.72334
  21
10.89564
  31
0
  0
LINE
  8
0
  10
45.72334
  20
10.89564
  30
0
  11
45.59102
  21
10.91983
  31
0
  0
LINE
  8
0
  10
45.59102
  20
10.91983
  30
0
  11
45.45968
  21
10.94563
  31
0
  0
LINE
  8
0
  10
45.45968
  20
10.94563
  30
0
  11
45.32934
  21
10.97307
  31
0
  0
LINE
  8
0
  10
45.32934
  20
10.97307
  30
0
  11
45.20004
  21
11.00217
  31
0
  0
LINE
  8
0
  10
45.20004
  20
11.00217
  30
0
  11
45.07181
  21
11.03297
  31
0
  0
LINE
  8
0
  10
45.07181
  20
11.03297
  30
0
  11
44.94469
  21
11.06549
  31
0
  0
LINE
  8
0
  10
44.94469
  20
11.06549
  30
0
  11
44.81872
  21
11.09978
  31
0
  0
LINE
  8
0
  10
44.81872
  20
11.09978
  30
0
  11
44.69394
  21
11.13588
  31
0
  0
LINE
  8
0
  10
44.69394
  20
11.13588
  30
0
  11
44.57041
  21
11.17384
  31
0
  0
LINE
  8
0
  10
44.57041
  20
11.17384
  30
0
  11
44.44817
  21
11.21373
  31
0
  0
LINE
  8
0
  10
44.44817
  20
11.21373
  30
0
  11
44.32731
  21
11.25561
  31
0
  0
LINE
  8
0
  10
44.32731
  20
11.25561
  30
0
  11
44.2079
  21
11.29959
  31
0
  0
LINE
  8
0
  10
44.2079
  20
11.29959
  30
0
  11
44.09002
  21
11.34577
  31
0
  0
LINE
  8
0
  10
44.09002
  20
11.34577
  30
0
  11
43.97382
  21
11.39429
  31
0
  0
LINE
  8
0
  10
43.97382
  20
11.39429
  30
0
  11
43.94504
  21
11.40681
  31
0
  0
LINE
  8
0
  10
43.94504
  20
11.40681
  30
0
  11
43.91638
  21
11.4195
  31
0
  0
LINE
  8
0
  10
43.91638
  20
11.4195
  30
0
  11
43.88784
  21
11.43235
  31
0
  0
LINE
  8
0
  10
43.88784
  20
11.43235
  30
0
  11
43.85942
  21
11.44537
  31
0
  0
LINE
  8
0
  10
43.85942
  20
11.44537
  30
0
  11
43.03015
  21
10.37992
  31
0
  0
LINE
  8
0
  10
43.03015
  20
10.37992
  30
0
  11
43.04975
  21
10.35557
  31
0
  0
LINE
  8
0
  10
43.04975
  20
10.35557
  30
0
  11
43.06921
  21
10.33105
  31
0
  0
LINE
  8
0
  10
43.06921
  20
10.33105
  30
0
  11
43.08854
  21
10.30639
  31
0
  0
LINE
  8
0
  10
43.08854
  20
10.30639
  30
0
  11
43.10774
  21
10.28157
  31
0
  0
LINE
  8
0
  10
43.10774
  20
10.28157
  30
0
  11
43.18331
  21
10.18082
  31
0
  0
LINE
  8
0
  10
43.18331
  20
10.18082
  30
0
  11
43.25702
  21
10.0779
  31
0
  0
LINE
  8
0
  10
43.25702
  20
10.0779
  30
0
  11
43.32896
  21
9.97293
  31
0
  0
LINE
  8
0
  10
43.32896
  20
9.97293
  30
0
  11
43.39923
  21
9.86605
  31
0
  0
LINE
  8
0
  10
43.39923
  20
9.86605
  30
0
  11
43.46791
  21
9.75735
  31
0
  0
LINE
  8
0
  10
43.46791
  20
9.75735
  30
0
  11
43.53503
  21
9.64691
  31
0
  0
LINE
  8
0
  10
43.53503
  20
9.64691
  30
0
  11
43.60066
  21
9.53481
  31
0
  0
LINE
  8
0
  10
43.60066
  20
9.53481
  30
0
  11
43.66482
  21
9.42111
  31
0
  0
LINE
  8
0
  10
43.66482
  20
9.42111
  30
0
  11
43.72756
  21
9.30587
  31
0
  0
LINE
  8
0
  10
43.72756
  20
9.30587
  30
0
  11
43.78889
  21
9.18912
  31
0
  0
LINE
  8
0
  10
43.78889
  20
9.18912
  30
0
  11
43.84884
  21
9.07093
  31
0
  0
LINE
  8
0
  10
43.84884
  20
9.07093
  30
0
  11
43.90744
  21
8.95131
  31
0
  0
LINE
  8
0
  10
43.90744
  20
8.95131
  30
0
  11
43.96469
  21
8.83032
  31
0
  0
LINE
  8
0
  10
43.96469
  20
8.83032
  30
0
  11
44.02062
  21
8.70798
  31
0
  0
LINE
  8
0
  10
44.02062
  20
8.70798
  30
0
  11
44.07524
  21
8.58433
  31
0
  0
LINE
  8
0
  10
44.07524
  20
8.58433
  30
0
  11
43.22412
  21
7.65978
  31
0
  0
LINE
  8
0
  10
43.22412
  20
7.65978
  30
0
  11
43.09639
  21
7.704
  31
0
  0
LINE
  8
0
  10
43.09639
  20
7.704
  30
0
  11
42.96985
  21
7.74963
  31
0
  0
LINE
  8
0
  10
42.96985
  20
7.74963
  30
0
  11
42.84454
  21
7.7967
  31
0
  0
LINE
  8
0
  10
42.84454
  20
7.7967
  30
0
  11
42.7205
  21
7.84522
  31
0
  0
LINE
  8
0
  10
42.7205
  20
7.84522
  30
0
  11
42.59775
  21
7.89521
  31
0
  0
LINE
  8
0
  10
42.59775
  20
7.89521
  30
0
  11
42.47634
  21
7.94669
  31
0
  0
LINE
  8
0
  10
42.47634
  20
7.94669
  30
0
  11
42.35631
  21
7.99969
  31
0
  0
LINE
  8
0
  10
42.35631
  20
7.99969
  30
0
  11
42.2377
  21
8.05425
  31
0
  0
LINE
  8
0
  10
42.2377
  20
8.05425
  30
0
  11
42.12056
  21
8.11039
  31
0
  0
LINE
  8
0
  10
42.12056
  20
8.11039
  30
0
  11
42.00496
  21
8.16817
  31
0
  0
LINE
  8
0
  10
42.00496
  20
8.16817
  30
0
  11
41.89096
  21
8.22763
  31
0
  0
LINE
  8
0
  10
41.89096
  20
8.22763
  30
0
  11
41.77864
  21
8.28884
  31
0
  0
LINE
  8
0
  10
41.77864
  20
8.28884
  30
0
  11
41.66809
  21
8.35187
  31
0
  0
LINE
  8
0
  10
41.66809
  20
8.35187
  30
0
  11
41.55943
  21
8.41682
  31
0
  0
LINE
  8
0
  10
41.55943
  20
8.41682
  30
0
  11
41.45279
  21
8.48381
  31
0
  0
LINE
  8
0
  10
41.45279
  20
8.48381
  30
0
  11
41.42647
  21
8.5009
  31
0
  0
LINE
  8
0
  10
41.42647
  20
8.5009
  30
0
  11
41.40029
  21
8.51812
  31
0
  0
LINE
  8
0
  10
41.40029
  20
8.51812
  30
0
  11
41.37426
  21
8.53549
  31
0
  0
LINE
  8
0
  10
41.37426
  20
8.53549
  30
0
  11
41.34837
  21
8.55301
  31
0
  0
LINE
  8
0
  10
41.34837
  20
8.55301
  30
0
  11
40.35504
  21
7.63859
  31
0
  0
LINE
  8
0
  10
40.35504
  20
7.63859
  30
0
  11
40.37036
  21
7.61135
  31
0
  0
LINE
  8
0
  10
40.37036
  20
7.61135
  30
0
  11
40.38553
  21
7.58397
  31
0
  0
LINE
  8
0
  10
40.38553
  20
7.58397
  30
0
  11
40.40053
  21
7.55645
  31
0
  0
LINE
  8
0
  10
40.40053
  20
7.55645
  30
0
  11
40.41539
  21
7.52881
  31
0
  0
LINE
  8
0
  10
40.41539
  20
7.52881
  30
0
  11
40.47334
  21
7.417
  31
0
  0
LINE
  8
0
  10
40.47334
  20
7.417
  30
0
  11
40.5291
  21
7.30335
  31
0
  0
LINE
  8
0
  10
40.5291
  20
7.30335
  30
0
  11
40.58279
  21
7.18797
  31
0
  0
LINE
  8
0
  10
40.58279
  20
7.18797
  30
0
  11
40.63451
  21
7.07098
  31
0
  0
LINE
  8
0
  10
40.63451
  20
7.07098
  30
0
  11
40.68435
  21
6.95246
  31
0
  0
LINE
  8
0
  10
40.68435
  20
6.95246
  30
0
  11
40.73238
  21
6.83248
  31
0
  0
LINE
  8
0
  10
40.73238
  20
6.83248
  30
0
  11
40.77866
  21
6.71111
  31
0
  0
LINE
  8
0
  10
40.77866
  20
6.71111
  30
0
  11
40.82324
  21
6.5884
  31
0
  0
LINE
  8
0
  10
40.82324
  20
6.5884
  30
0
  11
40.86615
  21
6.4644
  31
0
  0
LINE
  8
0
  10
40.86615
  20
6.4644
  30
0
  11
40.90743
  21
6.33915
  31
0
  0
LINE
  8
0
  10
40.90743
  20
6.33915
  30
0
  11
40.94711
  21
6.2127
  31
0
  0
LINE
  8
0
  10
40.94711
  20
6.2127
  30
0
  11
40.98522
  21
6.08507
  31
0
  0
LINE
  8
0
  10
40.98522
  20
6.08507
  30
0
  11
41.02178
  21
5.95631
  31
0
  0
LINE
  8
0
  10
41.02178
  20
5.95631
  30
0
  11
41.05681
  21
5.82644
  31
0
  0
LINE
  8
0
  10
41.05681
  20
5.82644
  30
0
  11
41.09033
  21
5.69548
  31
0
  0
LINE
  8
0
  10
41.09033
  20
5.69548
  30
0
  11
40.09865
  21
4.92362
  31
0
  0
LINE
  8
0
  10
40.09865
  20
4.92362
  30
0
  11
39.97993
  21
4.98826
  31
0
  0
LINE
  8
0
  10
39.97993
  20
4.98826
  30
0
  11
39.86263
  21
5.0541
  31
0
  0
LINE
  8
0
  10
39.86263
  20
5.0541
  30
0
  11
39.74678
  21
5.12115
  31
0
  0
LINE
  8
0
  10
39.74678
  20
5.12115
  30
0
  11
39.63241
  21
5.18943
  31
0
  0
LINE
  8
0
  10
39.63241
  20
5.18943
  30
0
  11
39.51957
  21
5.25894
  31
0
  0
LINE
  8
0
  10
39.51957
  20
5.25894
  30
0
  11
39.40829
  21
5.3297
  31
0
  0
LINE
  8
0
  10
39.40829
  20
5.3297
  30
0
  11
39.29862
  21
5.40174
  31
0
  0
LINE
  8
0
  10
39.29862
  20
5.40174
  30
0
  11
39.1906
  21
5.47507
  31
0
  0
LINE
  8
0
  10
39.1906
  20
5.47507
  30
0
  11
39.08431
  21
5.54973
  31
0
  0
LINE
  8
0
  10
39.08431
  20
5.54973
  30
0
  11
38.97979
  21
5.62575
  31
0
  0
LINE
  8
0
  10
38.97979
  20
5.62575
  30
0
  11
38.87713
  21
5.70316
  31
0
  0
LINE
  8
0
  10
38.87713
  20
5.70316
  30
0
  11
38.77642
  21
5.78202
  31
0
  0
LINE
  8
0
  10
38.77642
  20
5.78202
  30
0
  11
38.67775
  21
5.86239
  31
0
  0
LINE
  8
0
  10
38.67775
  20
5.86239
  30
0
  11
38.58126
  21
5.94434
  31
0
  0
LINE
  8
0
  10
38.58126
  20
5.94434
  30
0
  11
38.48711
  21
6.02797
  31
0
  0
LINE
  8
0
  10
38.48711
  20
6.02797
  30
0
  11
38.46396
  21
6.04915
  31
0
  0
LINE
  8
0
  10
38.46396
  20
6.04915
  30
0
  11
38.44097
  21
6.07046
  31
0
  0
LINE
  8
0
  10
38.44097
  20
6.07046
  30
0
  11
38.41815
  21
6.09188
  31
0
  0
LINE
  8
0
  10
38.41815
  20
6.09188
  30
0
  11
38.3955
  21
6.11342
  31
0
  0
LINE
  8
0
  10
38.3955
  20
6.11342
  30
0
  11
37.26521
  21
5.37496
  31
0
  0
LINE
  8
0
  10
37.26521
  20
5.37496
  30
0
  11
37.27584
  21
5.34557
  31
0
  0
LINE
  8
0
  10
37.27584
  20
5.34557
  30
0
  11
37.28629
  21
5.31606
  31
0
  0
LINE
  8
0
  10
37.28629
  20
5.31606
  30
0
  11
37.29656
  21
5.28645
  31
0
  0
LINE
  8
0
  10
37.29656
  20
5.28645
  30
0
  11
37.30666
  21
5.25674
  31
0
  0
LINE
  8
0
  10
37.30666
  20
5.25674
  30
0
  11
37.34543
  21
5.13692
  31
0
  0
LINE
  8
0
  10
37.34543
  20
5.13692
  30
0
  11
37.38171
  21
5.01564
  31
0
  0
LINE
  8
0
  10
37.38171
  20
5.01564
  30
0
  11
37.41568
  21
4.893
  31
0
  0
LINE
  8
0
  10
37.41568
  20
4.893
  30
0
  11
37.44744
  21
4.76909
  31
0
  0
LINE
  8
0
  10
37.44744
  20
4.76909
  30
0
  11
37.47709
  21
4.64399
  31
0
  0
LINE
  8
0
  10
37.47709
  20
4.64399
  30
0
  11
37.50472
  21
4.51774
  31
0
  0
LINE
  8
0
  10
37.50472
  20
4.51774
  30
0
  11
37.53039
  21
4.39041
  31
0
  0
LINE
  8
0
  10
37.53039
  20
4.39041
  30
0
  11
37.55416
  21
4.26203
  31
0
  0
LINE
  8
0
  10
37.55416
  20
4.26203
  30
0
  11
37.57608
  21
4.13266
  31
0
  0
LINE
  8
0
  10
37.57608
  20
4.13266
  30
0
  11
37.59618
  21
4.00233
  31
0
  0
LINE
  8
0
  10
37.59618
  20
4.00233
  30
0
  11
37.61451
  21
3.87107
  31
0
  0
LINE
  8
0
  10
37.61451
  20
3.87107
  30
0
  11
37.63109
  21
3.73891
  31
0
  0
LINE
  8
0
  10
37.63109
  20
3.73891
  30
0
  11
37.64596
  21
3.60588
  31
0
  0
LINE
  8
0
  10
37.64596
  20
3.60588
  30
0
  11
37.65913
  21
3.47201
  31
0
  0
LINE
  8
0
  10
37.65913
  20
3.47201
  30
0
  11
37.67064
  21
3.33733
  31
0
  0
LINE
  8
0
  10
37.67064
  20
3.33733
  30
0
  11
36.56544
  21
2.73923
  31
0
  0
LINE
  8
0
  10
36.56544
  20
2.73923
  30
0
  11
36.45898
  21
2.82252
  31
0
  0
LINE
  8
0
  10
36.45898
  20
2.82252
  30
0
  11
36.35412
  21
2.90677
  31
0
  0
LINE
  8
0
  10
36.35412
  20
2.90677
  30
0
  11
36.25088
  21
2.99198
  31
0
  0
LINE
  8
0
  10
36.25088
  20
2.99198
  30
0
  11
36.14932
  21
3.07814
  31
0
  0
LINE
  8
0
  10
36.14932
  20
3.07814
  30
0
  11
36.04945
  21
3.16528
  31
0
  0
LINE
  8
0
  10
36.04945
  20
3.16528
  30
0
  11
35.95134
  21
3.25339
  31
0
  0
LINE
  8
0
  10
35.95134
  20
3.25339
  30
0
  11
35.85502
  21
3.3425
  31
0
  0
LINE
  8
0
  10
35.85502
  20
3.3425
  30
0
  11
35.76055
  21
3.43261
  31
0
  0
LINE
  8
0
  10
35.76055
  20
3.43261
  30
0
  11
35.66799
  21
3.52375
  31
0
  0
LINE
  8
0
  10
35.66799
  20
3.52375
  30
0
  11
35.57741
  21
3.61593
  31
0
  0
LINE
  8
0
  10
35.57741
  20
3.61593
  30
0
  11
35.4889
  21
3.70918
  31
0
  0
LINE
  8
0
  10
35.4889
  20
3.70918
  30
0
  11
35.40254
  21
3.80355
  31
0
  0
LINE
  8
0
  10
35.40254
  20
3.80355
  30
0
  11
35.31844
  21
3.89906
  31
0
  0
LINE
  8
0
  10
35.31844
  20
3.89906
  30
0
  11
35.23676
  21
3.99577
  31
0
  0
LINE
  8
0
  10
35.23676
  20
3.99577
  30
0
  11
35.15765
  21
4.09376
  31
0
  0
LINE
  8
0
  10
35.15765
  20
4.09376
  30
0
  11
35.1383
  21
4.11846
  31
0
  0
LINE
  8
0
  10
35.1383
  20
4.11846
  30
0
  11
35.11913
  21
4.14326
  31
0
  0
LINE
  8
0
  10
35.11913
  20
4.14326
  30
0
  11
35.10015
  21
4.16814
  31
0
  0
LINE
  8
0
  10
35.10015
  20
4.16814
  30
0
  11
35.08135
  21
4.19312
  31
0
  0
LINE
  8
0
  10
35.08135
  20
4.19312
  30
0
  11
33.84493
  21
3.65077
  31
0
  0
LINE
  8
0
  10
33.84493
  20
3.65077
  30
0
  11
33.85058
  21
3.62003
  31
0
  0
LINE
  8
0
  10
33.85058
  20
3.62003
  30
0
  11
33.85603
  21
3.58921
  31
0
  0
LINE
  8
0
  10
33.85603
  20
3.58921
  30
0
  11
33.86129
  21
3.55832
  31
0
  0
LINE
  8
0
  10
33.86129
  20
3.55832
  30
0
  11
33.86636
  21
3.52735
  31
0
  0
LINE
  8
0
  10
33.86636
  20
3.52735
  30
0
  11
33.88488
  21
3.40278
  31
0
  0
LINE
  8
0
  10
33.88488
  20
3.40278
  30
0
  11
33.90071
  21
3.27718
  31
0
  0
LINE
  8
0
  10
33.90071
  20
3.27718
  30
0
  11
33.91402
  21
3.15062
  31
0
  0
LINE
  8
0
  10
33.91402
  20
3.15062
  30
0
  11
33.92496
  21
3.02318
  31
0
  0
LINE
  8
0
  10
33.92496
  20
3.02318
  30
0
  11
33.93361
  21
2.89489
  31
0
  0
LINE
  8
0
  10
33.93361
  20
2.89489
  30
0
  11
33.94009
  21
2.76582
  31
0
  0
LINE
  8
0
  10
33.94009
  20
2.76582
  30
0
  11
33.94445
  21
2.636
  31
0
  0
LINE
  8
0
  10
33.94445
  20
2.636
  30
0
  11
33.94677
  21
2.50546
  31
0
  0
LINE
  8
0
  10
33.94677
  20
2.50546
  30
0
  11
33.94709
  21
2.37425
  31
0
  0
LINE
  8
0
  10
33.94709
  20
2.37425
  30
0
  11
33.94547
  21
2.24239
  31
0
  0
LINE
  8
0
  10
33.94547
  20
2.24239
  30
0
  11
33.94194
  21
2.1099
  31
0
  0
LINE
  8
0
  10
33.94194
  20
2.1099
  30
0
  11
33.93654
  21
1.97681
  31
0
  0
LINE
  8
0
  10
33.93654
  20
1.97681
  30
0
  11
33.92931
  21
1.84315
  31
0
  0
LINE
  8
0
  10
33.92931
  20
1.84315
  30
0
  11
33.92027
  21
1.70894
  31
0
  0
LINE
  8
0
  10
33.92027
  20
1.70894
  30
0
  11
33.90945
  21
1.5742
  31
0
  0
LINE
  8
0
  10
33.90945
  20
1.5742
  30
0
  11
32.72088
  21
1.16616
  31
0
  0
LINE
  8
0
  10
32.72088
  20
1.16616
  30
0
  11
32.62959
  21
1.26585
  31
0
  0
LINE
  8
0
  10
32.62959
  20
1.26585
  30
0
  11
32.54002
  21
1.36621
  31
0
  0
LINE
  8
0
  10
32.54002
  20
1.36621
  30
0
  11
32.45222
  21
1.46724
  31
0
  0
LINE
  8
0
  10
32.45222
  20
1.46724
  30
0
  11
32.36622
  21
1.56895
  31
0
  0
LINE
  8
0
  10
32.36622
  20
1.56895
  30
0
  11
32.28206
  21
1.67134
  31
0
  0
LINE
  8
0
  10
32.28206
  20
1.67134
  30
0
  11
32.19978
  21
1.7744
  31
0
  0
LINE
  8
0
  10
32.19978
  20
1.7744
  30
0
  11
32.11944
  21
1.87814
  31
0
  0
LINE
  8
0
  10
32.11944
  20
1.87814
  30
0
  11
32.04109
  21
1.98258
  31
0
  0
LINE
  8
0
  10
32.04109
  20
1.98258
  30
0
  11
31.9648
  21
2.0877
  31
0
  0
LINE
  8
0
  10
31.9648
  20
2.0877
  30
0
  11
31.89063
  21
2.19354
  31
0
  0
LINE
  8
0
  10
31.89063
  20
2.19354
  30
0
  11
31.81867
  21
2.30009
  31
0
  0
LINE
  8
0
  10
31.81867
  20
2.30009
  30
0
  11
31.74902
  21
2.40738
  31
0
  0
LINE
  8
0
  10
31.74902
  20
2.40738
  30
0
  11
31.68179
  21
2.51543
  31
0
  0
LINE
  8
0
  10
31.68179
  20
2.51543
  30
0
  11
31.61714
  21
2.62427
  31
0
  0
LINE
  8
0
  10
31.61714
  20
2.62427
  30
0
  11
31.55524
  21
2.73394
  31
0
  0
LINE
  8
0
  10
31.55524
  20
2.73394
  30
0
  11
31.54022
  21
2.76149
  31
0
  0
LINE
  8
0
  10
31.54022
  20
2.76149
  30
0
  11
31.5254
  21
2.7891
  31
0
  0
LINE
  8
0
  10
31.5254
  20
2.7891
  30
0
  11
31.51077
  21
2.81677
  31
0
  0
LINE
  8
0
  10
31.51077
  20
2.81677
  30
0
  11
31.49634
  21
2.8445
  31
0
  0
LINE
  8
0
  10
31.49634
  20
2.8445
  30
0
  11
30.18752
  21
2.51306
  31
0
  0
LINE
  8
0
  10
30.18752
  20
2.51306
  30
0
  11
30.18802
  21
2.48181
  31
0
  0
LINE
  8
0
  10
30.18802
  20
2.48181
  30
0
  11
30.18833
  21
2.45051
  31
0
  0
LINE
  8
0
  10
30.18833
  20
2.45051
  30
0
  11
30.18843
  21
2.41917
  31
0
  0
LINE
  8
0
  10
30.18843
  20
2.41917
  30
0
  11
30.18834
  21
2.38779
  31
0
  0
LINE
  8
0
  10
30.18834
  20
2.38779
  30
0
  11
30.1861
  21
2.26188
  31
0
  0
LINE
  8
0
  10
30.1861
  20
2.26188
  30
0
  11
30.18104
  21
2.13538
  31
0
  0
LINE
  8
0
  10
30.18104
  20
2.13538
  30
0
  11
30.17334
  21
2.00836
  31
0
  0
LINE
  8
0
  10
30.17334
  20
2.00836
  30
0
  11
30.16315
  21
1.88085
  31
0
  0
LINE
  8
0
  10
30.16315
  20
1.88085
  30
0
  11
30.15057
  21
1.75289
  31
0
  0
LINE
  8
0
  10
30.15057
  20
1.75289
  30
0
  11
30.13571
  21
1.62452
  31
0
  0
LINE
  8
0
  10
30.13571
  20
1.62452
  30
0
  11
30.11865
  21
1.49575
  31
0
  0
LINE
  8
0
  10
30.11865
  20
1.49575
  30
0
  11
30.09945
  21
1.36661
  31
0
  0
LINE
  8
0
  10
30.09945
  20
1.36661
  30
0
  11
30.07817
  21
1.23713
  31
0
  0
LINE
  8
0
  10
30.07817
  20
1.23713
  30
0
  11
30.05486
  21
1.10733
  31
0
  0
LINE
  8
0
  10
30.05486
  20
1.10733
  30
0
  11
30.02958
  21
0.97723
  31
0
  0
LINE
  8
0
  10
30.02958
  20
0.97723
  30
0
  11
30.00235
  21
0.84685
  31
0
  0
LINE
  8
0
  10
30.00235
  20
0.84685
  30
0
  11
29.97322
  21
0.71621
  31
0
  0
LINE
  8
0
  10
29.97322
  20
0.71621
  30
0
  11
29.94221
  21
0.58531
  31
0
  0
LINE
  8
0
  10
29.94221
  20
0.58531
  30
0
  11
29.90936
  21
0.45419
  31
0
  0
LINE
  8
0
  10
29.90936
  20
0.45419
  30
0
  11
28.66984
  21
0.24735
  31
0
  0
LINE
  8
0
  10
28.66984
  20
0.24735
  30
0
  11
28.5962
  21
0.3607
  31
0
  0
LINE
  8
0
  10
28.5962
  20
0.3607
  30
0
  11
28.52437
  21
0.47444
  31
0
  0
LINE
  8
0
  10
28.52437
  20
0.47444
  30
0
  11
28.4544
  21
0.58854
  31
0
  0
LINE
  8
0
  10
28.4544
  20
0.58854
  30
0
  11
28.38631
  21
0.70302
  31
0
  0
LINE
  8
0
  10
28.38631
  20
0.70302
  30
0
  11
28.32015
  21
0.81786
  31
0
  0
LINE
  8
0
  10
28.32015
  20
0.81786
  30
0
  11
28.25596
  21
0.93306
  31
0
  0
LINE
  8
0
  10
28.25596
  20
0.93306
  30
0
  11
28.19379
  21
1.04861
  31
0
  0
LINE
  8
0
  10
28.19379
  20
1.04861
  30
0
  11
28.1337
  21
1.16452
  31
0
  0
LINE
  8
0
  10
28.1337
  20
1.16452
  30
0
  11
28.07575
  21
1.28077
  31
0
  0
LINE
  8
0
  10
28.07575
  20
1.28077
  30
0
  11
28.02001
  21
1.39737
  31
0
  0
LINE
  8
0
  10
28.02001
  20
1.39737
  30
0
  11
27.96657
  21
1.51431
  31
0
  0
LINE
  8
0
  10
27.96657
  20
1.51431
  30
0
  11
27.91553
  21
1.6316
  31
0
  0
LINE
  8
0
  10
27.91553
  20
1.6316
  30
0
  11
27.86701
  21
1.74924
  31
0
  0
LINE
  8
0
  10
27.86701
  20
1.74924
  30
0
  11
27.82115
  21
1.86724
  31
0
  0
LINE
  8
0
  10
27.82115
  20
1.86724
  30
0
  11
27.77815
  21
1.9856
  31
0
  0
LINE
  8
0
  10
27.77815
  20
1.9856
  30
0
  11
27.76787
  21
2.01525
  31
0
  0
LINE
  8
0
  10
27.76787
  20
2.01525
  30
0
  11
27.75779
  21
2.04493
  31
0
  0
LINE
  8
0
  10
27.75779
  20
2.04493
  30
0
  11
27.74791
  21
2.07463
  31
0
  0
LINE
  8
0
  10
27.74791
  20
2.07463
  30
0
  11
27.73825
  21
2.10435
  31
0
  0
LINE
  8
0
  10
27.73825
  20
2.10435
  30
0
  11
26.39272
  21
1.99286
  31
0
  0
LINE
  8
0
  10
26.39272
  20
1.99286
  30
0
  11
26.38808
  21
1.96195
  31
0
  0
LINE
  8
0
  10
26.38808
  20
1.96195
  30
0
  11
26.38322
  21
1.93103
  31
0
  0
LINE
  8
0
  10
26.38322
  20
1.93103
  30
0
  11
26.37817
  21
1.9001
  31
0
  0
LINE
  8
0
  10
26.37817
  20
1.9001
  30
0
  11
26.37291
  21
1.86916
  31
0
  0
LINE
  8
0
  10
26.37291
  20
1.86916
  30
0
  11
26.34998
  21
1.74533
  31
0
  0
LINE
  8
0
  10
26.34998
  20
1.74533
  30
0
  11
26.32417
  21
1.6214
  31
0
  0
LINE
  8
0
  10
26.32417
  20
1.6214
  30
0
  11
26.29567
  21
1.49737
  31
0
  0
LINE
  8
0
  10
26.29567
  20
1.49737
  30
0
  11
26.26462
  21
1.37328
  31
0
  0
LINE
  8
0
  10
26.26462
  20
1.37328
  30
0
  11
26.23116
  21
1.24914
  31
0
  0
LINE
  8
0
  10
26.23116
  20
1.24914
  30
0
  11
26.19537
  21
1.12496
  31
0
  0
LINE
  8
0
  10
26.19537
  20
1.12496
  30
0
  11
26.15735
  21
1.00075
  31
0
  0
LINE
  8
0
  10
26.15735
  20
1.00075
  30
0
  11
26.11715
  21
0.87654
  31
0
  0
LINE
  8
0
  10
26.11715
  20
0.87654
  30
0
  11
26.07485
  21
0.75233
  31
0
  0
LINE
  8
0
  10
26.07485
  20
0.75233
  30
0
  11
26.0305
  21
0.62814
  31
0
  0
LINE
  8
0
  10
26.0305
  20
0.62814
  30
0
  11
25.98415
  21
0.50397
  31
0
  0
LINE
  8
0
  10
25.98415
  20
0.50397
  30
0
  11
25.93583
  21
0.37985
  31
0
  0
LINE
  8
0
  10
25.93583
  20
0.37985
  30
0
  11
25.88559
  21
0.25578
  31
0
  0
LINE
  8
0
  10
25.88559
  20
0.25578
  30
0
  11
25.83346
  21
0.13178
  31
0
  0
LINE
  8
0
  10
25.83346
  20
0.13178
  30
0
  11
25.77948
  21
0.00785
  31
0
  0
LINE
  8
0
  10
25.77948
  20
0.00785
  30
0
  11
24.52282
  21
0.00785
  31
0
  0
LINE
  8
0
  10
24.52282
  20
0.00785
  30
0
  11
24.46884
  21
0.13178
  31
0
  0
LINE
  8
0
  10
24.46884
  20
0.13178
  30
0
  11
24.41671
  21
0.25578
  31
0
  0
LINE
  8
0
  10
24.41671
  20
0.25578
  30
0
  11
24.36647
  21
0.37985
  31
0
  0
LINE
  8
0
  10
24.36647
  20
0.37985
  30
0
  11
24.31816
  21
0.50397
  31
0
  0
LINE
  8
0
  10
24.31816
  20
0.50397
  30
0
  11
24.2718
  21
0.62814
  31
0
  0
LINE
  8
0
  10
24.2718
  20
0.62814
  30
0
  11
24.22745
  21
0.75233
  31
0
  0
LINE
  8
0
  10
24.22745
  20
0.75233
  30
0
  11
24.18515
  21
0.87654
  31
0
  0
LINE
  8
0
  10
24.18515
  20
0.87654
  30
0
  11
24.14495
  21
1.00075
  31
0
  0
LINE
  8
0
  10
24.14495
  20
1.00075
  30
0
  11
24.10693
  21
1.12496
  31
0
  0
LINE
  8
0
  10
24.10693
  20
1.12496
  30
0
  11
24.07114
  21
1.24914
  31
0
  0
LINE
  8
0
  10
24.07114
  20
1.24914
  30
0
  11
24.03768
  21
1.37328
  31
0
  0
LINE
  8
0
  10
24.03768
  20
1.37328
  30
0
  11
24.00664
  21
1.49737
  31
0
  0
LINE
  8
0
  10
24.00664
  20
1.49737
  30
0
  11
23.97814
  21
1.6214
  31
0
  0
LINE
  8
0
  10
23.97814
  20
1.6214
  30
0
  11
23.95233
  21
1.74533
  31
0
  0
LINE
  8
0
  10
23.95233
  20
1.74533
  30
0
  11
23.92939
  21
1.86916
  31
0
  0
LINE
  8
0
  10
23.92939
  20
1.86916
  30
0
  11
23.92414
  21
1.9001
  31
0
  0
LINE
  8
0
  10
23.92414
  20
1.9001
  30
0
  11
23.91908
  21
1.93103
  31
0
  0
LINE
  8
0
  10
23.91908
  20
1.93103
  30
0
  11
23.91423
  21
1.96195
  31
0
  0
LINE
  8
0
  10
23.91423
  20
1.96195
  30
0
  11
23.90958
  21
1.99286
  31
0
  0
LINE
  8
0
  10
23.90958
  20
1.99286
  30
0
  11
22.56406
  21
2.10435
  31
0
  0
LINE
  8
0
  10
22.56406
  20
2.10435
  30
0
  11
22.55439
  21
2.07463
  31
0
  0
LINE
  8
0
  10
22.55439
  20
2.07463
  30
0
  11
22.54451
  21
2.04493
  31
0
  0
LINE
  8
0
  10
22.54451
  20
2.04493
  30
0
  11
22.53443
  21
2.01525
  31
0
  0
LINE
  8
0
  10
22.53443
  20
2.01525
  30
0
  11
22.52416
  21
1.9856
  31
0
  0
LINE
  8
0
  10
22.52416
  20
1.9856
  30
0
  11
22.48115
  21
1.86724
  31
0
  0
LINE
  8
0
  10
22.48115
  20
1.86724
  30
0
  11
22.4353
  21
1.74924
  31
0
  0
LINE
  8
0
  10
22.4353
  20
1.74924
  30
0
  11
22.38677
  21
1.6316
  31
0
  0
LINE
  8
0
  10
22.38677
  20
1.6316
  30
0
  11
22.33573
  21
1.51431
  31
0
  0
LINE
  8
0
  10
22.33573
  20
1.51431
  30
0
  11
22.28229
  21
1.39737
  31
0
  0
LINE
  8
0
  10
22.28229
  20
1.39737
  30
0
  11
22.22655
  21
1.28077
  31
0
  0
LINE
  8
0
  10
22.22655
  20
1.28077
  30
0
  11
22.1686
  21
1.16452
  31
0
  0
LINE
  8
0
  10
22.1686
  20
1.16452
  30
0
  11
22.10851
  21
1.04861
  31
0
  0
LINE
  8
0
  10
22.10851
  20
1.04861
  30
0
  11
22.04634
  21
0.93306
  31
0
  0
LINE
  8
0
  10
22.04634
  20
0.93306
  30
0
  11
21.98215
  21
0.81786
  31
0
  0
LINE
  8
0
  10
21.98215
  20
0.81786
  30
0
  11
21.91599
  21
0.70302
  31
0
  0
LINE
  8
0
  10
21.91599
  20
0.70302
  30
0
  11
21.84791
  21
0.58854
  31
0
  0
LINE
  8
0
  10
21.84791
  20
0.58854
  30
0
  11
21.77793
  21
0.47444
  31
0
  0
LINE
  8
0
  10
21.77793
  20
0.47444
  30
0
  11
21.70611
  21
0.3607
  31
0
  0
LINE
  8
0
  10
21.70611
  20
0.3607
  30
0
  11
21.63246
  21
0.24735
  31
0
  0
LINE
  8
0
  10
21.63246
  20
0.24735
  30
0
  11
20.39294
  21
0.45419
  31
0
  0
LINE
  8
0
  10
20.39294
  20
0.45419
  30
0
  11
20.36009
  21
0.58531
  31
0
  0
LINE
  8
0
  10
20.36009
  20
0.58531
  30
0
  11
20.32909
  21
0.71621
  31
0
  0
LINE
  8
0
  10
20.32909
  20
0.71621
  30
0
  11
20.29995
  21
0.84685
  31
0
  0
LINE
  8
0
  10
20.29995
  20
0.84685
  30
0
  11
20.27273
  21
0.97723
  31
0
  0
LINE
  8
0
  10
20.27273
  20
0.97723
  30
0
  11
20.24744
  21
1.10733
  31
0
  0
LINE
  8
0
  10
20.24744
  20
1.10733
  30
0
  11
20.22413
  21
1.23713
  31
0
  0
LINE
  8
0
  10
20.22413
  20
1.23713
  30
0
  11
20.20285
  21
1.36661
  31
0
  0
LINE
  8
0
  10
20.20285
  20
1.36661
  30
0
  11
20.18365
  21
1.49575
  31
0
  0
LINE
  8
0
  10
20.18365
  20
1.49575
  30
0
  11
20.16659
  21
1.62452
  31
0
  0
LINE
  8
0
  10
20.16659
  20
1.62452
  30
0
  11
20.15173
  21
1.75289
  31
0
  0
LINE
  8
0
  10
20.15173
  20
1.75289
  30
0
  11
20.13916
  21
1.88085
  31
0
  0
LINE
  8
0
  10
20.13916
  20
1.88085
  30
0
  11
20.12896
  21
2.00836
  31
0
  0
LINE
  8
0
  10
20.12896
  20
2.00836
  30
0
  11
20.12127
  21
2.13538
  31
0
  0
LINE
  8
0
  10
20.12127
  20
2.13538
  30
0
  11
20.11621
  21
2.26188
  31
0
  0
LINE
  8
0
  10
20.11621
  20
2.26188
  30
0
  11
20.11397
  21
2.38779
  31
0
  0
LINE
  8
0
  10
20.11397
  20
2.38779
  30
0
  11
20.11387
  21
2.41917
  31
0
  0
LINE
  8
0
  10
20.11387
  20
2.41917
  30
0
  11
20.11398
  21
2.45051
  31
0
  0
LINE
  8
0
  10
20.11398
  20
2.45051
  30
0
  11
20.11428
  21
2.48181
  31
0
  0
LINE
  8
0
  10
20.11428
  20
2.48181
  30
0
  11
20.11479
  21
2.51306
  31
0
  0
LINE
  8
0
  10
20.11479
  20
2.51306
  30
0
  11
18.80596
  21
2.8445
  31
0
  0
LINE
  8
0
  10
18.80596
  20
2.8445
  30
0
  11
18.79153
  21
2.81677
  31
0
  0
LINE
  8
0
  10
18.79153
  20
2.81677
  30
0
  11
18.77691
  21
2.7891
  31
0
  0
LINE
  8
0
  10
18.77691
  20
2.7891
  30
0
  11
18.76208
  21
2.76149
  31
0
  0
LINE
  8
0
  10
18.76208
  20
2.76149
  30
0
  11
18.74706
  21
2.73394
  31
0
  0
LINE
  8
0
  10
18.74706
  20
2.73394
  30
0
  11
18.68516
  21
2.62427
  31
0
  0
LINE
  8
0
  10
18.68516
  20
2.62427
  30
0
  11
18.62051
  21
2.51543
  31
0
  0
LINE
  8
0
  10
18.62051
  20
2.51543
  30
0
  11
18.55328
  21
2.40738
  31
0
  0
LINE
  8
0
  10
18.55328
  20
2.40738
  30
0
  11
18.48363
  21
2.30009
  31
0
  0
LINE
  8
0
  10
18.48363
  20
2.30009
  30
0
  11
18.41167
  21
2.19354
  31
0
  0
LINE
  8
0
  10
18.41167
  20
2.19354
  30
0
  11
18.3375
  21
2.0877
  31
0
  0
LINE
  8
0
  10
18.3375
  20
2.0877
  30
0
  11
18.26121
  21
1.98258
  31
0
  0
LINE
  8
0
  10
18.26121
  20
1.98258
  30
0
  11
18.18286
  21
1.87814
  31
0
  0
LINE
  8
0
  10
18.18286
  20
1.87814
  30
0
  11
18.10252
  21
1.7744
  31
0
  0
LINE
  8
0
  10
18.10252
  20
1.7744
  30
0
  11
18.02025
  21
1.67134
  31
0
  0
LINE
  8
0
  10
18.02025
  20
1.67134
  30
0
  11
17.93609
  21
1.56895
  31
0
  0
LINE
  8
0
  10
17.93609
  20
1.56895
  30
0
  11
17.85009
  21
1.46724
  31
0
  0
LINE
  8
0
  10
17.85009
  20
1.46724
  30
0
  11
17.76228
  21
1.36621
  31
0
  0
LINE
  8
0
  10
17.76228
  20
1.36621
  30
0
  11
17.67272
  21
1.26585
  31
0
  0
LINE
  8
0
  10
17.67272
  20
1.26585
  30
0
  11
17.58142
  21
1.16616
  31
0
  0
LINE
  8
0
  10
17.58142
  20
1.16616
  30
0
  11
16.39285
  21
1.5742
  31
0
  0
LINE
  8
0
  10
16.39285
  20
1.5742
  30
0
  11
16.38203
  21
1.70894
  31
0
  0
LINE
  8
0
  10
16.38203
  20
1.70894
  30
0
  11
16.37299
  21
1.84315
  31
0
  0
LINE
  8
0
  10
16.37299
  20
1.84315
  30
0
  11
16.36576
  21
1.97681
  31
0
  0
LINE
  8
0
  10
16.36576
  20
1.97681
  30
0
  11
16.36036
  21
2.1099
  31
0
  0
LINE
  8
0
  10
16.36036
  20
2.1099
  30
0
  11
16.35684
  21
2.24239
  31
0
  0
LINE
  8
0
  10
16.35684
  20
2.24239
  30
0
  11
16.35521
  21
2.37425
  31
0
  0
LINE
  8
0
  10
16.35521
  20
2.37425
  30
0
  11
16.35554
  21
2.50546
  31
0
  0
LINE
  8
0
  10
16.35554
  20
2.50546
  30
0
  11
16.35785
  21
2.636
  31
0
  0
LINE
  8
0
  10
16.35785
  20
2.636
  30
0
  11
16.36221
  21
2.76582
  31
0
  0
LINE
  8
0
  10
16.36221
  20
2.76582
  30
0
  11
16.36869
  21
2.89489
  31
0
  0
LINE
  8
0
  10
16.36869
  20
2.89489
  30
0
  11
16.37735
  21
3.02318
  31
0
  0
LINE
  8
0
  10
16.37735
  20
3.02318
  30
0
  11
16.38828
  21
3.15062
  31
0
  0
LINE
  8
0
  10
16.38828
  20
3.15062
  30
0
  11
16.4016
  21
3.27718
  31
0
  0
LINE
  8
0
  10
16.4016
  20
3.27718
  30
0
  11
16.41742
  21
3.40278
  31
0
  0
LINE
  8
0
  10
16.41742
  20
3.40278
  30
0
  11
16.43594
  21
3.52735
  31
0
  0
LINE
  8
0
  10
16.43594
  20
3.52735
  30
0
  11
16.44101
  21
3.55832
  31
0
  0
LINE
  8
0
  10
16.44101
  20
3.55832
  30
0
  11
16.44627
  21
3.58921
  31
0
  0
LINE
  8
0
  10
16.44627
  20
3.58921
  30
0
  11
16.45172
  21
3.62003
  31
0
  0
LINE
  8
0
  10
16.45172
  20
3.62003
  30
0
  11
16.45737
  21
3.65077
  31
0
  0
LINE
  8
0
  10
16.45737
  20
3.65077
  30
0
  11
15.22095
  21
4.19312
  31
0
  0
LINE
  8
0
  10
15.22095
  20
4.19312
  30
0
  11
15.20215
  21
4.16814
  31
0
  0
LINE
  8
0
  10
15.20215
  20
4.16814
  30
0
  11
15.18317
  21
4.14326
  31
0
  0
LINE
  8
0
  10
15.18317
  20
4.14326
  30
0
  11
15.164
  21
4.11846
  31
0
  0
LINE
  8
0
  10
15.164
  20
4.11846
  30
0
  11
15.14465
  21
4.09376
  31
0
  0
LINE
  8
0
  10
15.14465
  20
4.09376
  30
0
  11
15.06555
  21
3.99577
  31
0
  0
LINE
  8
0
  10
15.06555
  20
3.99577
  30
0
  11
14.98386
  21
3.89906
  31
0
  0
LINE
  8
0
  10
14.98386
  20
3.89906
  30
0
  11
14.89977
  21
3.80355
  31
0
  0
LINE
  8
0
  10
14.89977
  20
3.80355
  30
0
  11
14.81341
  21
3.70918
  31
0
  0
LINE
  8
0
  10
14.81341
  20
3.70918
  30
0
  11
14.72489
  21
3.61593
  31
0
  0
LINE
  8
0
  10
14.72489
  20
3.61593
  30
0
  11
14.63431
  21
3.52375
  31
0
  0
LINE
  8
0
  10
14.63431
  20
3.52375
  30
0
  11
14.54176
  21
3.43261
  31
0
  0
LINE
  8
0
  10
14.54176
  20
3.43261
  30
0
  11
14.44729
  21
3.3425
  31
0
  0
LINE
  8
0
  10
14.44729
  20
3.3425
  30
0
  11
14.35097
  21
3.25339
  31
0
  0
LINE
  8
0
  10
14.35097
  20
3.25339
  30
0
  11
14.25285
  21
3.16528
  31
0
  0
LINE
  8
0
  10
14.25285
  20
3.16528
  30
0
  11
14.15299
  21
3.07814
  31
0
  0
LINE
  8
0
  10
14.15299
  20
3.07814
  30
0
  11
14.05142
  21
2.99198
  31
0
  0
LINE
  8
0
  10
14.05142
  20
2.99198
  30
0
  11
13.94819
  21
2.90677
  31
0
  0
LINE
  8
0
  10
13.94819
  20
2.90677
  30
0
  11
13.84332
  21
2.82252
  31
0
  0
LINE
  8
0
  10
13.84332
  20
2.82252
  30
0
  11
13.73686
  21
2.73923
  31
0
  0
LINE
  8
0
  10
13.73686
  20
2.73923
  30
0
  11
12.63166
  21
3.33733
  31
0
  0
LINE
  8
0
  10
12.63166
  20
3.33733
  30
0
  11
12.64317
  21
3.47201
  31
0
  0
LINE
  8
0
  10
12.64317
  20
3.47201
  30
0
  11
12.65634
  21
3.60588
  31
0
  0
LINE
  8
0
  10
12.65634
  20
3.60588
  30
0
  11
12.67121
  21
3.73891
  31
0
  0
LINE
  8
0
  10
12.67121
  20
3.73891
  30
0
  11
12.68779
  21
3.87107
  31
0
  0
LINE
  8
0
  10
12.68779
  20
3.87107
  30
0
  11
12.70612
  21
4.00233
  31
0
  0
LINE
  8
0
  10
12.70612
  20
4.00233
  30
0
  11
12.72622
  21
4.13266
  31
0
  0
LINE
  8
0
  10
12.72622
  20
4.13266
  30
0
  11
12.74814
  21
4.26203
  31
0
  0
LINE
  8
0
  10
12.74814
  20
4.26203
  30
0
  11
12.77191
  21
4.39041
  31
0
  0
LINE
  8
0
  10
12.77191
  20
4.39041
  30
0
  11
12.79758
  21
4.51774
  31
0
  0
LINE
  8
0
  10
12.79758
  20
4.51774
  30
0
  11
12.82521
  21
4.64399
  31
0
  0
LINE
  8
0
  10
12.82521
  20
4.64399
  30
0
  11
12.85487
  21
4.76909
  31
0
  0
LINE
  8
0
  10
12.85487
  20
4.76909
  30
0
  11
12.88663
  21
4.893
  31
0
  0
LINE
  8
0
  10
12.88663
  20
4.893
  30
0
  11
12.92059
  21
5.01564
  31
0
  0
LINE
  8
0
  10
12.92059
  20
5.01564
  30
0
  11
12.95688
  21
5.13692
  31
0
  0
LINE
  8
0
  10
12.95688
  20
5.13692
  30
0
  11
12.99564
  21
5.25674
  31
0
  0
LINE
  8
0
  10
12.99564
  20
5.25674
  30
0
  11
13.00574
  21
5.28645
  31
0
  0
LINE
  8
0
  10
13.00574
  20
5.28645
  30
0
  11
13.01602
  21
5.31606
  31
0
  0
LINE
  8
0
  10
13.01602
  20
5.31606
  30
0
  11
13.02647
  21
5.34557
  31
0
  0
LINE
  8
0
  10
13.02647
  20
5.34557
  30
0
  11
13.0371
  21
5.37496
  31
0
  0
LINE
  8
0
  10
13.0371
  20
5.37496
  30
0
  11
11.9068
  21
6.11342
  31
0
  0
LINE
  8
0
  10
11.9068
  20
6.11342
  30
0
  11
11.88416
  21
6.09188
  31
0
  0
LINE
  8
0
  10
11.88416
  20
6.09188
  30
0
  11
11.86133
  21
6.07046
  31
0
  0
LINE
  8
0
  10
11.86133
  20
6.07046
  30
0
  11
11.83835
  21
6.04915
  31
0
  0
LINE
  8
0
  10
11.83835
  20
6.04915
  30
0
  11
11.8152
  21
6.02797
  31
0
  0
LINE
  8
0
  10
11.8152
  20
6.02797
  30
0
  11
11.72104
  21
5.94434
  31
0
  0
LINE
  8
0
  10
11.72104
  20
5.94434
  30
0
  11
11.62455
  21
5.86239
  31
0
  0
LINE
  8
0
  10
11.62455
  20
5.86239
  30
0
  11
11.52588
  21
5.78202
  31
0
  0
LINE
  8
0
  10
11.52588
  20
5.78202
  30
0
  11
11.42517
  21
5.70316
  31
0
  0
LINE
  8
0
  10
11.42517
  20
5.70316
  30
0
  11
11.32251
  21
5.62575
  31
0
  0
LINE
  8
0
  10
11.32251
  20
5.62575
  30
0
  11
11.218
  21
5.54973
  31
0
  0
LINE
  8
0
  10
11.218
  20
5.54973
  30
0
  11
11.1117
  21
5.47507
  31
0
  0
LINE
  8
0
  10
11.1117
  20
5.47507
  30
0
  11
11.00369
  21
5.40174
  31
0
  0
LINE
  8
0
  10
11.00369
  20
5.40174
  30
0
  11
10.89402
  21
5.3297
  31
0
  0
LINE
  8
0
  10
10.89402
  20
5.3297
  30
0
  11
10.78273
  21
5.25894
  31
0
  0
LINE
  8
0
  10
10.78273
  20
5.25894
  30
0
  11
10.66989
  21
5.18943
  31
0
  0
LINE
  8
0
  10
10.66989
  20
5.18943
  30
0
  11
10.55552
  21
5.12115
  31
0
  0
LINE
  8
0
  10
10.55552
  20
5.12115
  30
0
  11
10.43967
  21
5.0541
  31
0
  0
LINE
  8
0
  10
10.43967
  20
5.0541
  30
0
  11
10.32237
  21
4.98826
  31
0
  0
LINE
  8
0
  10
10.32237
  20
4.98826
  30
0
  11
10.20366
  21
4.92362
  31
0
  0
LINE
  8
0
  10
10.20366
  20
4.92362
  30
0
  11
9.21197
  21
5.69548
  31
0
  0
LINE
  8
0
  10
9.21197
  20
5.69548
  30
0
  11
9.24549
  21
5.82644
  31
0
  0
LINE
  8
0
  10
9.24549
  20
5.82644
  30
0
  11
9.28052
  21
5.95631
  31
0
  0
LINE
  8
0
  10
9.28052
  20
5.95631
  30
0
  11
9.31708
  21
6.08507
  31
0
  0
LINE
  8
0
  10
9.31708
  20
6.08507
  30
0
  11
9.35519
  21
6.2127
  31
0
  0
LINE
  8
0
  10
9.35519
  20
6.2127
  30
0
  11
9.39487
  21
6.33915
  31
0
  0
LINE
  8
0
  10
9.39487
  20
6.33915
  30
0
  11
9.43615
  21
6.4644
  31
0
  0
LINE
  8
0
  10
9.43615
  20
6.4644
  30
0
  11
9.47906
  21
6.5884
  31
0
  0
LINE
  8
0
  10
9.47906
  20
6.5884
  30
0
  11
9.52364
  21
6.71111
  31
0
  0
LINE
  8
0
  10
9.52364
  20
6.71111
  30
0
  11
9.56992
  21
6.83248
  31
0
  0
LINE
  8
0
  10
9.56992
  20
6.83248
  30
0
  11
9.61795
  21
6.95246
  31
0
  0
LINE
  8
0
  10
9.61795
  20
6.95246
  30
0
  11
9.66779
  21
7.07098
  31
0
  0
LINE
  8
0
  10
9.66779
  20
7.07098
  30
0
  11
9.71952
  21
7.18797
  31
0
  0
LINE
  8
0
  10
9.71952
  20
7.18797
  30
0
  11
9.7732
  21
7.30335
  31
0
  0
LINE
  8
0
  10
9.7732
  20
7.30335
  30
0
  11
9.82896
  21
7.417
  31
0
  0
LINE
  8
0
  10
9.82896
  20
7.417
  30
0
  11
9.88692
  21
7.52881
  31
0
  0
LINE
  8
0
  10
9.88692
  20
7.52881
  30
0
  11
9.90177
  21
7.55645
  31
0
  0
LINE
  8
0
  10
9.90177
  20
7.55645
  30
0
  11
9.91678
  21
7.58397
  31
0
  0
LINE
  8
0
  10
9.91678
  20
7.58397
  30
0
  11
9.93194
  21
7.61135
  31
0
  0
LINE
  8
0
  10
9.93194
  20
7.61135
  30
0
  11
9.94726
  21
7.63859
  31
0
  0
LINE
  8
0
  10
9.94726
  20
7.63859
  30
0
  11
8.95393
  21
8.55301
  31
0
  0
LINE
  8
0
  10
8.95393
  20
8.55301
  30
0
  11
8.92805
  21
8.53549
  31
0
  0
LINE
  8
0
  10
8.92805
  20
8.53549
  30
0
  11
8.90201
  21
8.51812
  31
0
  0
LINE
  8
0
  10
8.90201
  20
8.51812
  30
0
  11
8.87583
  21
8.5009
  31
0
  0
LINE
  8
0
  10
8.87583
  20
8.5009
  30
0
  11
8.84951
  21
8.48381
  31
0
  0
LINE
  8
0
  10
8.84951
  20
8.48381
  30
0
  11
8.74287
  21
8.41682
  31
0
  0
LINE
  8
0
  10
8.74287
  20
8.41682
  30
0
  11
8.63421
  21
8.35187
  31
0
  0
LINE
  8
0
  10
8.63421
  20
8.35187
  30
0
  11
8.52366
  21
8.28884
  31
0
  0
LINE
  8
0
  10
8.52366
  20
8.28884
  30
0
  11
8.41134
  21
8.22763
  31
0
  0
LINE
  8
0
  10
8.41134
  20
8.22763
  30
0
  11
8.29734
  21
8.16817
  31
0
  0
LINE
  8
0
  10
8.29734
  20
8.16817
  30
0
  11
8.18174
  21
8.11039
  31
0
  0
LINE
  8
0
  10
8.18174
  20
8.11039
  30
0
  11
8.0646
  21
8.05425
  31
0
  0
LINE
  8
0
  10
8.0646
  20
8.05425
  30
0
  11
7.94599
  21
7.99969
  31
0
  0
LINE
  8
0
  10
7.94599
  20
7.99969
  30
0
  11
7.82596
  21
7.94669
  31
0
  0
LINE
  8
0
  10
7.82596
  20
7.94669
  30
0
  11
7.70455
  21
7.89521
  31
0
  0
LINE
  8
0
  10
7.70455
  20
7.89521
  30
0
  11
7.5818
  21
7.84522
  31
0
  0
LINE
  8
0
  10
7.5818
  20
7.84522
  30
0
  11
7.45776
  21
7.7967
  31
0
  0
LINE
  8
0
  10
7.45776
  20
7.7967
  30
0
  11
7.33245
  21
7.74963
  31
0
  0
LINE
  8
0
  10
7.33245
  20
7.74963
  30
0
  11
7.20592
  21
7.704
  31
0
  0
LINE
  8
0
  10
7.20592
  20
7.704
  30
0
  11
7.07818
  21
7.65978
  31
0
  0
LINE
  8
0
  10
7.07818
  20
7.65978
  30
0
  11
6.22707
  21
8.58433
  31
0
  0
LINE
  8
0
  10
6.22707
  20
8.58433
  30
0
  11
6.28168
  21
8.70798
  31
0
  0
LINE
  8
0
  10
6.28168
  20
8.70798
  30
0
  11
6.33761
  21
8.83032
  31
0
  0
LINE
  8
0
  10
6.33761
  20
8.83032
  30
0
  11
6.39486
  21
8.95131
  31
0
  0
LINE
  8
0
  10
6.39486
  20
8.95131
  30
0
  11
6.45346
  21
9.07093
  31
0
  0
LINE
  8
0
  10
6.45346
  20
9.07093
  30
0
  11
6.51341
  21
9.18912
  31
0
  0
LINE
  8
0
  10
6.51341
  20
9.18912
  30
0
  11
6.57475
  21
9.30587
  31
0
  0
LINE
  8
0
  10
6.57475
  20
9.30587
  30
0
  11
6.63748
  21
9.42111
  31
0
  0
LINE
  8
0
  10
6.63748
  20
9.42111
  30
0
  11
6.70165
  21
9.53481
  31
0
  0
LINE
  8
0
  10
6.70165
  20
9.53481
  30
0
  11
6.76727
  21
9.64691
  31
0
  0
LINE
  8
0
  10
6.76727
  20
9.64691
  30
0
  11
6.8344
  21
9.75735
  31
0
  0
LINE
  8
0
  10
6.8344
  20
9.75735
  30
0
  11
6.90307
  21
9.86605
  31
0
  0
LINE
  8
0
  10
6.90307
  20
9.86605
  30
0
  11
6.97334
  21
9.97293
  31
0
  0
LINE
  8
0
  10
6.97334
  20
9.97293
  30
0
  11
7.04529
  21
10.0779
  31
0
  0
LINE
  8
0
  10
7.04529
  20
10.0779
  30
0
  11
7.11899
  21
10.18082
  31
0
  0
LINE
  8
0
  10
7.11899
  20
10.18082
  30
0
  11
7.19456
  21
10.28157
  31
0
  0
LINE
  8
0
  10
7.19456
  20
10.28157
  30
0
  11
7.21376
  21
10.30639
  31
0
  0
LINE
  8
0
  10
7.21376
  20
10.30639
  30
0
  11
7.23309
  21
10.33105
  31
0
  0
LINE
  8
0
  10
7.23309
  20
10.33105
  30
0
  11
7.25255
  21
10.35557
  31
0
  0
LINE
  8
0
  10
7.25255
  20
10.35557
  30
0
  11
7.27215
  21
10.37992
  31
0
  0
LINE
  8
0
  10
7.27215
  20
10.37992
  30
0
  11
6.44288
  21
11.44537
  31
0
  0
LINE
  8
0
  10
6.44288
  20
11.44537
  30
0
  11
6.41446
  21
11.43235
  31
0
  0
LINE
  8
0
  10
6.41446
  20
11.43235
  30
0
  11
6.38592
  21
11.4195
  31
0
  0
LINE
  8
0
  10
6.38592
  20
11.4195
  30
0
  11
6.35726
  21
11.40681
  31
0
  0
LINE
  8
0
  10
6.35726
  20
11.40681
  30
0
  11
6.32849
  21
11.39429
  31
0
  0
LINE
  8
0
  10
6.32849
  20
11.39429
  30
0
  11
6.21228
  21
11.34577
  31
0
  0
LINE
  8
0
  10
6.21228
  20
11.34577
  30
0
  11
6.09441
  21
11.29959
  31
0
  0
LINE
  8
0
  10
6.09441
  20
11.29959
  30
0
  11
5.97499
  21
11.25561
  31
0
  0
LINE
  8
0
  10
5.97499
  20
11.25561
  30
0
  11
5.85413
  21
11.21373
  31
0
  0
LINE
  8
0
  10
5.85413
  20
11.21373
  30
0
  11
5.7319
  21
11.17384
  31
0
  0
LINE
  8
0
  10
5.7319
  20
11.17384
  30
0
  11
5.60836
  21
11.13588
  31
0
  0
LINE
  8
0
  10
5.60836
  20
11.13588
  30
0
  11
5.48358
  21
11.09978
  31
0
  0
LINE
  8
0
  10
5.48358
  20
11.09978
  30
0
  11
5.35761
  21
11.06549
  31
0
  0
LINE
  8
0
  10
5.35761
  20
11.06549
  30
0
  11
5.23049
  21
11.03297
  31
0
  0
LINE
  8
0
  10
5.23049
  20
11.03297
  30
0
  11
5.10226
  21
11.00217
  31
0
  0
LINE
  8
0
  10
5.10226
  20
11.00217
  30
0
  11
4.97296
  21
10.97307
  31
0
  0
LINE
  8
0
  10
4.97296
  20
10.97307
  30
0
  11
4.84263
  21
10.94563
  31
0
  0
LINE
  8
0
  10
4.84263
  20
10.94563
  30
0
  11
4.71128
  21
10.91983
  31
0
  0
LINE
  8
0
  10
4.71128
  20
10.91983
  30
0
  11
4.57896
  21
10.89564
  31
0
  0
LINE
  8
0
  10
4.57896
  20
10.89564
  30
0
  11
4.44569
  21
10.87305
  31
0
  0
LINE
  8
0
  10
4.44569
  20
10.87305
  30
0
  11
3.75836
  21
11.92509
  31
0
  0
LINE
  8
0
  10
3.75836
  20
11.92509
  30
0
  11
3.83258
  21
12.03806
  31
0
  0
LINE
  8
0
  10
3.83258
  20
12.03806
  30
0
  11
3.90788
  21
12.14952
  31
0
  0
LINE
  8
0
  10
3.90788
  20
12.14952
  30
0
  11
3.98427
  21
12.25944
  31
0
  0
LINE
  8
0
  10
3.98427
  20
12.25944
  30
0
  11
4.06175
  21
12.36778
  31
0
  0
LINE
  8
0
  10
4.06175
  20
12.36778
  30
0
  11
4.14035
  21
12.4745
  31
0
  0
LINE
  8
0
  10
4.14035
  20
12.4745
  30
0
  11
4.22006
  21
12.57955
  31
0
  0
LINE
  8
0
  10
4.22006
  20
12.57955
  30
0
  11
4.30091
  21
12.6829
  31
0
  0
LINE
  8
0
  10
4.30091
  20
12.6829
  30
0
  11
4.38291
  21
12.78449
  31
0
  0
LINE
  8
0
  10
4.38291
  20
12.78449
  30
0
  11
4.46609
  21
12.88426
  31
0
  0
LINE
  8
0
  10
4.46609
  20
12.88426
  30
0
  11
4.55048
  21
12.98214
  31
0
  0
LINE
  8
0
  10
4.55048
  20
12.98214
  30
0
  11
4.6361
  21
13.07805
  31
0
  0
LINE
  8
0
  10
4.6361
  20
13.07805
  30
0
  11
4.72301
  21
13.17191
  31
0
  0
LINE
  8
0
  10
4.72301
  20
13.17191
  30
0
  11
4.81125
  21
13.2636
  31
0
  0
LINE
  8
0
  10
4.81125
  20
13.2636
  30
0
  11
4.90089
  21
13.353
  31
0
  0
LINE
  8
0
  10
4.90089
  20
13.353
  30
0
  11
4.99201
  21
13.43992
  31
0
  0
LINE
  8
0
  10
4.99201
  20
13.43992
  30
0
  11
5.01503
  21
13.46125
  31
0
  0
LINE
  8
0
  10
5.01503
  20
13.46125
  30
0
  11
5.03816
  21
13.4824
  31
0
  0
LINE
  8
0
  10
5.03816
  20
13.4824
  30
0
  11
5.06139
  21
13.50337
  31
0
  0
LINE
  8
0
  10
5.06139
  20
13.50337
  30
0
  11
5.08473
  21
13.52416
  31
0
  0
LINE
  8
0
  10
5.08473
  20
13.52416
  30
0
  11
4.44214
  21
14.71158
  31
0
  0
LINE
  8
0
  10
4.44214
  20
14.71158
  30
0
  11
4.41196
  21
14.70341
  31
0
  0
LINE
  8
0
  10
4.41196
  20
14.70341
  30
0
  11
4.3817
  21
14.69543
  31
0
  0
LINE
  8
0
  10
4.3817
  20
14.69543
  30
0
  11
4.35134
  21
14.68764
  31
0
  0
LINE
  8
0
  10
4.35134
  20
14.68764
  30
0
  11
4.3209
  21
14.68003
  31
0
  0
LINE
  8
0
  10
4.3209
  20
14.68003
  30
0
  11
4.19829
  21
14.65129
  31
0
  0
LINE
  8
0
  10
4.19829
  20
14.65129
  30
0
  11
4.07442
  21
14.62514
  31
0
  0
LINE
  8
0
  10
4.07442
  20
14.62514
  30
0
  11
3.9494
  21
14.60142
  31
0
  0
LINE
  8
0
  10
3.9494
  20
14.60142
  30
0
  11
3.82329
  21
14.58
  31
0
  0
LINE
  8
0
  10
3.82329
  20
14.58
  30
0
  11
3.69616
  21
14.56078
  31
0
  0
LINE
  8
0
  10
3.69616
  20
14.56078
  30
0
  11
3.56806
  21
14.54367
  31
0
  0
LINE
  8
0
  10
3.56806
  20
14.54367
  30
0
  11
3.43904
  21
14.5286
  31
0
  0
LINE
  8
0
  10
3.43904
  20
14.5286
  30
0
  11
3.30915
  21
14.51551
  31
0
  0
LINE
  8
0
  10
3.30915
  20
14.51551
  30
0
  11
3.17841
  21
14.50435
  31
0
  0
LINE
  8
0
  10
3.17841
  20
14.50435
  30
0
  11
3.04686
  21
14.49508
  31
0
  0
LINE
  8
0
  10
3.04686
  20
14.49508
  30
0
  11
2.91453
  21
14.48766
  31
0
  0
LINE
  8
0
  10
2.91453
  20
14.48766
  30
0
  11
2.78146
  21
14.48205
  31
0
  0
LINE
  8
0
  10
2.78146
  20
14.48205
  30
0
  11
2.64766
  21
14.47821
  31
0
  0
LINE
  8
0
  10
2.64766
  20
14.47821
  30
0
  11
2.51316
  21
14.47614
  31
0
  0
LINE
  8
0
  10
2.51316
  20
14.47614
  30
0
  11
2.37798
  21
14.47579
  31
0
  0
LINE
  8
0
  10
2.37798
  20
14.47579
  30
0
  11
1.87319
  21
15.62661
  31
0
  0
LINE
  8
0
  10
1.87319
  20
15.62661
  30
0
  11
1.96499
  21
15.72583
  31
0
  0
LINE
  8
0
  10
1.96499
  20
15.72583
  30
0
  11
2.05761
  21
15.82338
  31
0
  0
LINE
  8
0
  10
2.05761
  20
15.82338
  30
0
  11
2.15105
  21
15.91922
  31
0
  0
LINE
  8
0
  10
2.15105
  20
15.91922
  30
0
  11
2.24531
  21
16.01333
  31
0
  0
LINE
  8
0
  10
2.24531
  20
16.01333
  30
0
  11
2.3404
  21
16.10565
  31
0
  0
LINE
  8
0
  10
2.3404
  20
16.10565
  30
0
  11
2.43631
  21
16.19616
  31
0
  0
LINE
  8
0
  10
2.43631
  20
16.19616
  30
0
  11
2.53307
  21
16.28479
  31
0
  0
LINE
  8
0
  10
2.53307
  20
16.28479
  30
0
  11
2.63067
  21
16.37149
  31
0
  0
LINE
  8
0
  10
2.63067
  20
16.37149
  30
0
  11
2.72914
  21
16.45621
  31
0
  0
LINE
  8
0
  10
2.72914
  20
16.45621
  30
0
  11
2.82849
  21
16.53887
  31
0
  0
LINE
  8
0
  10
2.82849
  20
16.53887
  30
0
  11
2.92874
  21
16.61938
  31
0
  0
LINE
  8
0
  10
2.92874
  20
16.61938
  30
0
  11
3.02991
  21
16.69765
  31
0
  0
LINE
  8
0
  10
3.02991
  20
16.69765
  30
0
  11
3.13203
  21
16.77357
  31
0
  0
LINE
  8
0
  10
3.13203
  20
16.77357
  30
0
  11
3.23516
  21
16.84699
  31
0
  0
LINE
  8
0
  10
3.23516
  20
16.84699
  30
0
  11
3.33935
  21
16.91774
  31
0
  0
LINE
  8
0
  10
3.33935
  20
16.91774
  30
0
  11
3.36557
  21
16.93498
  31
0
  0
LINE
  8
0
  10
3.36557
  20
16.93498
  30
0
  11
3.39186
  21
16.95203
  31
0
  0
LINE
  8
0
  10
3.39186
  20
16.95203
  30
0
  11
3.41823
  21
16.9689
  31
0
  0
LINE
  8
0
  10
3.41823
  20
16.9689
  30
0
  11
3.44467
  21
16.98557
  31
0
  0
LINE
  8
0
  10
3.44467
  20
16.98557
  30
0
  11
3.00628
  21
18.26255
  31
0
  0
LINE
  8
0
  10
3.00628
  20
18.26255
  30
0
  11
2.97518
  21
18.25946
  31
0
  0
LINE
  8
0
  10
2.97518
  20
18.25946
  30
0
  11
2.94401
  21
18.25658
  31
0
  0
LINE
  8
0
  10
2.94401
  20
18.25658
  30
0
  11
2.91279
  21
18.25389
  31
0
  0
LINE
  8
0
  10
2.91279
  20
18.25389
  30
0
  11
2.88151
  21
18.25139
  31
0
  0
LINE
  8
0
  10
2.88151
  20
18.25139
  30
0
  11
2.75584
  21
18.24322
  31
0
  0
LINE
  8
0
  10
2.75584
  20
18.24322
  30
0
  11
2.62936
  21
18.23782
  31
0
  0
LINE
  8
0
  10
2.62936
  20
18.23782
  30
0
  11
2.50213
  21
18.235
  31
0
  0
LINE
  8
0
  10
2.50213
  20
18.235
  30
0
  11
2.37422
  21
18.23463
  31
0
  0
LINE
  8
0
  10
2.37422
  20
18.23463
  30
0
  11
2.24566
  21
18.23659
  31
0
  0
LINE
  8
0
  10
2.24566
  20
18.23659
  30
0
  11
2.11649
  21
18.2408
  31
0
  0
LINE
  8
0
  10
2.11649
  20
18.2408
  30
0
  11
1.98675
  21
18.24717
  31
0
  0
LINE
  8
0
  10
1.98675
  20
18.24717
  30
0
  11
1.85647
  21
18.25564
  31
0
  0
LINE
  8
0
  10
1.85647
  20
18.25564
  30
0
  11
1.72568
  21
18.26616
  31
0
  0
LINE
  8
0
  10
1.72568
  20
18.26616
  30
0
  11
1.5944
  21
18.27866
  31
0
  0
LINE
  8
0
  10
1.5944
  20
18.27866
  30
0
  11
1.46266
  21
18.29312
  31
0
  0
LINE
  8
0
  10
1.46266
  20
18.29312
  30
0
  11
1.33047
  21
18.30949
  31
0
  0
LINE
  8
0
  10
1.33047
  20
18.30949
  30
0
  11
1.19787
  21
18.32773
  31
0
  0
LINE
  8
0
  10
1.19787
  20
18.32773
  30
0
  11
1.06486
  21
18.34782
  31
0
  0
LINE
  8
0
  10
1.06486
  20
18.34782
  30
0
  11
0.93147
  21
18.36973
  31
0
  0
LINE
  8
0
  10
0.93147
  20
18.36973
  30
0
  11
0.62298
  21
19.58794
  31
0
  0
LINE
  8
0
  10
0.62298
  20
19.58794
  30
0
  11
0.72987
  21
19.67069
  31
0
  0
LINE
  8
0
  10
0.72987
  20
19.67069
  30
0
  11
0.83728
  21
19.75167
  31
0
  0
LINE
  8
0
  10
0.83728
  20
19.75167
  30
0
  11
0.94522
  21
19.83082
  31
0
  0
LINE
  8
0
  10
0.94522
  20
19.83082
  30
0
  11
1.05368
  21
19.90813
  31
0
  0
LINE
  8
0
  10
1.05368
  20
19.90813
  30
0
  11
1.16267
  21
19.98355
  31
0
  0
LINE
  8
0
  10
1.16267
  20
19.98355
  30
0
  11
1.27217
  21
20.05703
  31
0
  0
LINE
  8
0
  10
1.27217
  20
20.05703
  30
0
  11
1.3822
  21
20.12853
  31
0
  0
LINE
  8
0
  10
1.3822
  20
20.12853
  30
0
  11
1.49274
  21
20.19799
  31
0
  0
LINE
  8
0
  10
1.49274
  20
20.19799
  30
0
  11
1.60381
  21
20.26534
  31
0
  0
LINE
  8
0
  10
1.60381
  20
20.26534
  30
0
  11
1.71541
  21
20.33052
  31
0
  0
LINE
  8
0
  10
1.71541
  20
20.33052
  30
0
  11
1.82754
  21
20.39343
  31
0
  0
LINE
  8
0
  10
1.82754
  20
20.39343
  30
0
  11
1.94021
  21
20.45398
  31
0
  0
LINE
  8
0
  10
1.94021
  20
20.45398
  30
0
  11
2.05344
  21
20.51206
  31
0
  0
LINE
  8
0
  10
2.05344
  20
20.51206
  30
0
  11
2.16725
  21
20.5675
  31
0
  0
LINE
  8
0
  10
2.16725
  20
20.5675
  30
0
  11
2.28166
  21
20.62013
  31
0
  0
LINE
  8
0
  10
2.28166
  20
20.62013
  30
0
  11
2.31036
  21
20.63282
  31
0
  0
LINE
  8
0
  10
2.31036
  20
20.63282
  30
0
  11
2.3391
  21
20.64532
  31
0
  0
LINE
  8
0
  10
2.3391
  20
20.64532
  30
0
  11
2.36788
  21
20.65761
  31
0
  0
LINE
  8
0
  10
2.36788
  20
20.65761
  30
0
  11
2.39671
  21
20.6697
  31
0
  0
LINE
  8
0
  10
2.39671
  20
20.6697
  30
0
  11
2.17448
  21
22.00143
  31
0
  0
LINE
  8
0
  10
2.17448
  20
22.00143
  30
0
  11
2.14329
  21
22.0035
  31
0
  0
LINE
  8
0
  10
2.14329
  20
22.0035
  30
0
  11
2.11208
  21
22.00578
  31
0
  0
LINE
  8
0
  10
2.11208
  20
22.00578
  30
0
  11
2.08084
  21
22.00827
  31
0
  0
LINE
  8
0
  10
2.08084
  20
22.00827
  30
0
  11
2.04957
  21
22.01095
  31
0
  0
LINE
  8
0
  10
2.04957
  20
22.01095
  30
0
  11
1.92427
  21
22.02358
  31
0
  0
LINE
  8
0
  10
1.92427
  20
22.02358
  30
0
  11
1.79863
  21
22.03907
  31
0
  0
LINE
  8
0
  10
1.79863
  20
22.03907
  30
0
  11
1.67268
  21
22.05723
  31
0
  0
LINE
  8
0
  10
1.67268
  20
22.05723
  30
0
  11
1.54645
  21
22.07792
  31
0
  0
LINE
  8
0
  10
1.54645
  20
22.07792
  30
0
  11
1.41996
  21
22.10102
  31
0
  0
LINE
  8
0
  10
1.41996
  20
22.10102
  30
0
  11
1.29325
  21
22.12643
  31
0
  0
LINE
  8
0
  10
1.29325
  20
22.12643
  30
0
  11
1.16633
  21
22.15407
  31
0
  0
LINE
  8
0
  10
1.16633
  20
22.15407
  30
0
  11
1.03922
  21
22.18387
  31
0
  0
LINE
  8
0
  10
1.03922
  20
22.18387
  30
0
  11
0.91194
  21
22.21577
  31
0
  0
LINE
  8
0
  10
0.91194
  20
22.21577
  30
0
  11
0.78451
  21
22.24971
  31
0
  0
LINE
  8
0
  10
0.78451
  20
22.24971
  30
0
  11
0.65694
  21
22.28565
  31
0
  0
LINE
  8
0
  10
0.65694
  20
22.28565
  30
0
  11
0.52925
  21
22.32356
  31
0
  0
LINE
  8
0
  10
0.52925
  20
22.32356
  30
0
  11
0.40146
  21
22.36338
  31
0
  0
LINE
  8
0
  10
0.40146
  20
22.36338
  30
0
  11
0.27358
  21
22.40508
  31
0
  0
LINE
  8
0
  10
0.27358
  20
22.40508
  30
0
  11
0.14561
  21
22.44865
  31
0
  0
LINE
  8
0
  10
0.14561
  20
22.44865
  30
0
  11
0.04184
  21
23.70102
  31
0
  0
LINE
  8
0
  10
0.04184
  20
23.70102
  30
0
  11
0.16089
  21
23.76505
  31
0
  0
LINE
  8
0
  10
0.16089
  20
23.76505
  30
0
  11
0.28016
  21
23.82724
  31
0
  0
LINE
  8
0
  10
0.28016
  20
23.82724
  30
0
  11
0.39966
  21
23.88755
  31
0
  0
LINE
  8
0
  10
0.39966
  20
23.88755
  30
0
  11
0.51937
  21
23.94595
  31
0
  0
LINE
  8
0
  10
0.51937
  20
23.94595
  30
0
  11
0.63928
  21
24.0024
  31
0
  0
LINE
  8
0
  10
0.63928
  20
24.0024
  30
0
  11
0.75938
  21
24.05686
  31
0
  0
LINE
  8
0
  10
0.75938
  20
24.05686
  30
0
  11
0.87968
  21
24.10927
  31
0
  0
LINE
  8
0
  10
0.87968
  20
24.10927
  30
0
  11
1.00015
  21
24.15959
  31
0
  0
LINE
  8
0
  10
1.00015
  20
24.15959
  30
0
  11
1.12079
  21
24.20774
  31
0
  0
LINE
  8
0
  10
1.12079
  20
24.20774
  30
0
  11
1.24159
  21
24.25366
  31
0
  0
LINE
  8
0
  10
1.24159
  20
24.25366
  30
0
  11
1.36255
  21
24.29726
  31
0
  0
LINE
  8
0
  10
1.36255
  20
24.29726
  30
0
  11
1.48365
  21
24.33844
  31
0
  0
LINE
  8
0
  10
1.48365
  20
24.33844
  30
0
  11
1.60489
  21
24.37709
  31
0
  0
LINE
  8
0
  10
1.60489
  20
24.37709
  30
0
  11
1.72628
  21
24.41304
  31
0
  0
LINE
  8
0
  10
1.72628
  20
24.41304
  30
0
  11
1.84779
  21
24.44613
  31
0
  0
LINE
  8
0
  10
1.84779
  20
24.44613
  30
0
  11
1.87819
  21
24.45392
  31
0
  0
LINE
  8
0
  10
1.87819
  20
24.45392
  30
0
  11
1.90859
  21
24.46151
  31
0
  0
LINE
  8
0
  10
1.90859
  20
24.46151
  30
0
  11
1.93901
  21
24.4689
  31
0
  0
LINE
  8
0
  10
1.93901
  20
24.4689
  30
0
  11
1.96943
  21
24.47608
  31
0
  0
LINE
  8
0
  10
1.96943
  20
24.47608
  30
0
  11
1.96943
  21
25.82622
  31
0
  0
LINE
  8
0
  10
25.65115
  20
25.15115
  30
0
  11
25.65115
  21
25.15115
  31
0
  0
LINE
  8
0
  10
25.65115
  20
25.15115
  30
0
  11
25.63411
  21
25.28056
  31
0
  0
LINE
  8
0
  10
25.63411
  20
25.28056
  30
0
  11
25.58416
  21
25.40115
  31
0
  0
LINE
  8
0
  10
25.58416
  20
25.40115
  30
0
  11
25.5047
  21
25.5047
  31
0
  0
LINE
  8
0
  10
25.5047
  20
25.5047
  30
0
  11
25.40115
  21
25.58416
  31
0
  0
LINE
  8
0
  10
25.40115
  20
25.58416
  30
0
  11
25.28056
  21
25.63411
  31
0
  0
LINE
  8
0
  10
25.28056
  20
25.63411
  30
0
  11
25.15115
  21
25.65115
  31
0
  0
LINE
  8
0
  10
25.15115
  20
25.65115
  30
0
  11
25.02174
  21
25.63411
  31
0
  0
LINE
  8
0
  10
25.02174
  20
25.63411
  30
0
  11
24.90115
  21
25.58416
  31
0
  0
LINE
  8
0
  10
24.90115
  20
25.58416
  30
0
  11
24.7976
  21
25.5047
  31
0
  0
LINE
  8
0
  10
24.7976
  20
25.5047
  30
0
  11
24.71814
  21
25.40115
  31
0
  0
LINE
  8
0
  10
24.71814
  20
25.40115
  30
0
  11
24.66819
  21
25.28056
  31
0
  0
LINE
  8
0
  10
24.66819
  20
25.28056
  30
0
  11
24.65115
  21
25.15115
  31
0
  0
LINE
  8
0
  10
24.65115
  20
25.15115
  30
0
  11
24.66819
  21
25.02174
  31
0
  0
LINE
  8
0
  10
24.66819
  20
25.02174
  30
0
  11
24.71814
  21
24.90115
  31
0
  0
LINE
  8
0
  10
24.71814
  20
24.90115
  30
0
  11
24.7976
  21
24.7976
  31
0
  0
LINE
  8
0
  10
24.7976
  20
24.7976
  30
0
  11
24.90115
  21
24.71814
  31
0
  0
LINE
  8
0
  10
24.90115
  20
24.71814
  30
0
  11
25.02174
  21
24.66819
  31
0
  0
LINE
  8
0
  10
25.02174
  20
24.66819
  30
0
  11
25.15115
  21
24.65115
  31
0
  0
LINE
  8
0
  10
25.15115
  20
24.65115
  30
0
  11
25.28056
  21
24.66819
  31
0
  0
LINE
  8
0
  10
25.28056
  20
24.66819
  30
0
  11
25.40115
  21
24.71814
  31
0
  0
LINE
  8
0
  10
25.40115
  20
24.71814
  30
0
  11
25.5047
  21
24.7976
  31
0
  0
LINE
  8
0
  10
25.5047
  20
24.7976
  30
0
  11
25.58416
  21
24.90115
  31
0
  0
LINE
  8
0
  10
25.58416
  20
24.90115
  30
0
  11
25.63411
  21
25.02174
  31
0
  0
LINE
  8
0
  10
25.63411
  20
25.02174
  30
0
  11
25.65115
  21
25.15115
  31
0
  0
LINE
  8
0
  10
25.65115
  20
25.15115
  30
0
  11
25.65115
  21
25.15115
  31
0
  0
LINE
  8
0
  10
16.76743
  20
25.15115
  30
0
  11
33.53487
  21
25.15115
  31
0
  0
LINE
  8
0
  10
25.15115
  20
16.76743
  30
0
  11
25.15115
  21
33.53487
  31
0
  0
ENDSEC
  0
EOF
