  999
file created by gear template generator
  0
SECTION
  2
HEADER
  9
$ACADVER
  1
AC1006
  9
$INSBASE
  10
0.0
  20
0.0
  30
0.0
  9
$EXTMIN
  10
0.0
  20
0.0
  9
$EXTMAX
  10
10000.0
  20
10000.0
  0
ENDSEC
  0
SECTION
  2
ENTITIES
  0
LINE
  8
0
  10
1.97604
  20
13.65909
  30
0
  11
1.97604
  21
13.65909
  31
0
  0
LINE
  8
0
  10
1.97604
  20
13.65909
  30
0
  11
1.94893
  21
13.7213
  31
0
  0
LINE
  8
0
  10
1.94893
  20
13.7213
  30
0
  11
1.91977
  21
13.74618
  31
0
  0
LINE
  8
0
  10
1.91977
  20
13.74618
  30
0
  11
1.89023
  21
13.76438
  31
0
  0
LINE
  8
0
  10
1.89023
  20
13.76438
  30
0
  11
1.86048
  21
13.77892
  31
0
  0
LINE
  8
0
  10
1.86048
  20
13.77892
  30
0
  11
1.74028
  21
13.81736
  31
0
  0
LINE
  8
0
  10
1.74028
  20
13.81736
  30
0
  11
1.61907
  21
13.84009
  31
0
  0
LINE
  8
0
  10
1.61907
  20
13.84009
  30
0
  11
1.4983
  21
13.86889
  31
0
  0
LINE
  8
0
  10
1.4983
  20
13.86889
  30
0
  11
1.37808
  21
13.90489
  31
0
  0
LINE
  8
0
  10
1.37808
  20
13.90489
  30
0
  11
1.25838
  21
13.94673
  31
0
  0
LINE
  8
0
  10
1.25838
  20
13.94673
  30
0
  11
1.13916
  21
13.99368
  31
0
  0
LINE
  8
0
  10
1.13916
  20
13.99368
  30
0
  11
1.02044
  21
14.0453
  31
0
  0
LINE
  8
0
  10
1.02044
  20
14.0453
  30
0
  11
0.90224
  21
14.10125
  31
0
  0
LINE
  8
0
  10
0.90224
  20
14.10125
  30
0
  11
0.78458
  21
14.16129
  31
0
  0
LINE
  8
0
  10
0.78458
  20
14.16129
  30
0
  11
0.66749
  21
14.22522
  31
0
  0
LINE
  8
0
  10
0.66749
  20
14.22522
  30
0
  11
0.55099
  21
14.2929
  31
0
  0
LINE
  8
0
  10
0.55099
  20
14.2929
  30
0
  11
0.43511
  21
14.36419
  31
0
  0
LINE
  8
0
  10
0.43511
  20
14.36419
  30
0
  11
0.31989
  21
14.439
  31
0
  0
LINE
  8
0
  10
0.31989
  20
14.439
  30
0
  11
0.20536
  21
14.51721
  31
0
  0
LINE
  8
0
  10
0.20536
  20
14.51721
  30
0
  11
0.09155
  21
14.59877
  31
0
  0
LINE
  8
0
  10
0.09155
  20
14.59877
  30
0
  11
0.29283
  21
15.80496
  31
0
  0
LINE
  8
0
  10
0.29283
  20
15.80496
  30
0
  11
0.42695
  21
15.84514
  31
0
  0
LINE
  8
0
  10
0.42695
  20
15.84514
  30
0
  11
0.56067
  21
15.88193
  31
0
  0
LINE
  8
0
  10
0.56067
  20
15.88193
  30
0
  11
0.69394
  21
15.91527
  31
0
  0
LINE
  8
0
  10
0.69394
  20
15.91527
  30
0
  11
0.82669
  21
15.94507
  31
0
  0
LINE
  8
0
  10
0.82669
  20
15.94507
  30
0
  11
0.95885
  21
15.97126
  31
0
  0
LINE
  8
0
  10
0.95885
  20
15.97126
  30
0
  11
1.09036
  21
15.99371
  31
0
  0
LINE
  8
0
  10
1.09036
  20
15.99371
  30
0
  11
1.22114
  21
16.01229
  31
0
  0
LINE
  8
0
  10
1.22114
  20
16.01229
  30
0
  11
1.3511
  21
16.02682
  31
0
  0
LINE
  8
0
  10
1.3511
  20
16.02682
  30
0
  11
1.48015
  21
16.0371
  31
0
  0
LINE
  8
0
  10
1.48015
  20
16.0371
  30
0
  11
1.60815
  21
16.0428
  31
0
  0
LINE
  8
0
  10
1.60815
  20
16.0428
  30
0
  11
1.73496
  21
16.0435
  31
0
  0
LINE
  8
0
  10
1.73496
  20
16.0435
  30
0
  11
1.86034
  21
16.03852
  31
0
  0
LINE
  8
0
  10
1.86034
  20
16.03852
  30
0
  11
1.98392
  21
16.02655
  31
0
  0
LINE
  8
0
  10
1.98392
  20
16.02655
  30
0
  11
2.10595
  21
16.00869
  31
0
  0
LINE
  8
0
  10
2.10595
  20
16.00869
  30
0
  11
2.23212
  21
16.00601
  31
0
  0
LINE
  8
0
  10
2.23212
  20
16.00601
  30
0
  11
2.26498
  21
16.0101
  31
0
  0
LINE
  8
0
  10
2.26498
  20
16.0101
  30
0
  11
2.29882
  21
16.01773
  31
0
  0
LINE
  8
0
  10
2.29882
  20
16.01773
  30
0
  11
2.33448
  21
16.03179
  31
0
  0
LINE
  8
0
  10
2.33448
  20
16.03179
  30
0
  11
2.38032
  21
16.08183
  31
0
  0
LINE
  8
0
  10
2.38032
  20
16.08183
  30
0
  11
2.77237
  21
17.22384
  31
0
  0
LINE
  8
0
  10
2.77237
  20
17.22384
  30
0
  11
2.76693
  21
17.29148
  31
0
  0
LINE
  8
0
  10
2.76693
  20
17.29148
  30
0
  11
2.74743
  21
17.32448
  31
0
  0
LINE
  8
0
  10
2.74743
  20
17.32448
  30
0
  11
2.72541
  21
17.35128
  31
0
  0
LINE
  8
0
  10
2.72541
  20
17.35128
  30
0
  11
2.70199
  21
17.37469
  31
0
  0
LINE
  8
0
  10
2.70199
  20
17.37469
  30
0
  11
2.60078
  21
17.45008
  31
0
  0
LINE
  8
0
  10
2.60078
  20
17.45008
  30
0
  11
2.49351
  21
17.51093
  31
0
  0
LINE
  8
0
  10
2.49351
  20
17.51093
  30
0
  11
2.38864
  21
17.57739
  31
0
  0
LINE
  8
0
  10
2.38864
  20
17.57739
  30
0
  11
2.28663
  21
17.65047
  31
0
  0
LINE
  8
0
  10
2.28663
  20
17.65047
  30
0
  11
2.18699
  21
17.72891
  31
0
  0
LINE
  8
0
  10
2.18699
  20
17.72891
  30
0
  11
2.08948
  21
17.81203
  31
0
  0
LINE
  8
0
  10
2.08948
  20
17.81203
  30
0
  11
1.99396
  21
17.8994
  31
0
  0
LINE
  8
0
  10
1.99396
  20
17.8994
  30
0
  11
1.90033
  21
17.9907
  31
0
  0
LINE
  8
0
  10
1.90033
  20
17.9907
  30
0
  11
1.80854
  21
18.08568
  31
0
  0
LINE
  8
0
  10
1.80854
  20
18.08568
  30
0
  11
1.71855
  21
18.18418
  31
0
  0
LINE
  8
0
  10
1.71855
  20
18.18418
  30
0
  11
1.63033
  21
18.28602
  31
0
  0
LINE
  8
0
  10
1.63033
  20
18.28602
  30
0
  11
1.54388
  21
18.39107
  31
0
  0
LINE
  8
0
  10
1.54388
  20
18.39107
  30
0
  11
1.45919
  21
18.49923
  31
0
  0
LINE
  8
0
  10
1.45919
  20
18.49923
  30
0
  11
1.37627
  21
18.6104
  31
0
  0
LINE
  8
0
  10
1.37627
  20
18.6104
  30
0
  11
1.2951
  21
18.72449
  31
0
  0
LINE
  8
0
  10
1.2951
  20
18.72449
  30
0
  11
1.87712
  21
19.79997
  31
0
  0
LINE
  8
0
  10
1.87712
  20
19.79997
  30
0
  11
2.01703
  21
19.79442
  31
0
  0
LINE
  8
0
  10
2.01703
  20
19.79442
  30
0
  11
2.15545
  21
19.7858
  31
0
  0
LINE
  8
0
  10
2.15545
  20
19.7858
  30
0
  11
2.29232
  21
19.77406
  31
0
  0
LINE
  8
0
  10
2.29232
  20
19.77406
  30
0
  11
2.42755
  21
19.75915
  31
0
  0
LINE
  8
0
  10
2.42755
  20
19.75915
  30
0
  11
2.56106
  21
19.741
  31
0
  0
LINE
  8
0
  10
2.56106
  20
19.741
  30
0
  11
2.69273
  21
19.71953
  31
0
  0
LINE
  8
0
  10
2.69273
  20
19.71953
  30
0
  11
2.82246
  21
19.69464
  31
0
  0
LINE
  8
0
  10
2.82246
  20
19.69464
  30
0
  11
2.9501
  21
19.66619
  31
0
  0
LINE
  8
0
  10
2.9501
  20
19.66619
  30
0
  11
3.07549
  21
19.63401
  31
0
  0
LINE
  8
0
  10
3.07549
  20
19.63401
  30
0
  11
3.19841
  21
19.59784
  31
0
  0
LINE
  8
0
  10
3.19841
  20
19.59784
  30
0
  11
3.31857
  21
19.55733
  31
0
  0
LINE
  8
0
  10
3.31857
  20
19.55733
  30
0
  11
3.43554
  21
19.5119
  31
0
  0
LINE
  8
0
  10
3.43554
  20
19.5119
  30
0
  11
3.54854
  21
19.46046
  31
0
  0
LINE
  8
0
  10
3.54854
  20
19.46046
  30
0
  11
3.65816
  21
19.40394
  31
0
  0
LINE
  8
0
  10
3.65816
  20
19.40394
  30
0
  11
3.77662
  21
19.36045
  31
0
  0
LINE
  8
0
  10
3.77662
  20
19.36045
  30
0
  11
3.80903
  21
19.35364
  31
0
  0
LINE
  8
0
  10
3.80903
  20
19.35364
  30
0
  11
3.84352
  21
19.34986
  31
0
  0
LINE
  8
0
  10
3.84352
  20
19.34986
  30
0
  11
3.88181
  21
19.35159
  31
0
  0
LINE
  8
0
  10
3.88181
  20
19.35159
  30
0
  11
3.94141
  21
19.38403
  31
0
  0
LINE
  8
0
  10
3.94141
  20
19.38403
  30
0
  11
4.68303
  21
20.33686
  31
0
  0
LINE
  8
0
  10
4.68303
  20
20.33686
  30
0
  11
4.69985
  21
20.40261
  31
0
  0
LINE
  8
0
  10
4.69985
  20
20.40261
  30
0
  11
4.69212
  21
20.44015
  31
0
  0
LINE
  8
0
  10
4.69212
  20
20.44015
  30
0
  11
4.67999
  21
20.47266
  31
0
  0
LINE
  8
0
  10
4.67999
  20
20.47266
  30
0
  11
4.66544
  21
20.5024
  31
0
  0
LINE
  8
0
  10
4.66544
  20
20.5024
  30
0
  11
4.59419
  21
20.60656
  31
0
  0
LINE
  8
0
  10
4.59419
  20
20.60656
  30
0
  11
4.5125
  21
20.69895
  31
0
  0
LINE
  8
0
  10
4.5125
  20
20.69895
  30
0
  11
4.43489
  21
20.79586
  31
0
  0
LINE
  8
0
  10
4.43489
  20
20.79586
  30
0
  11
4.36213
  21
20.8981
  31
0
  0
LINE
  8
0
  10
4.36213
  20
20.8981
  30
0
  11
4.29336
  21
21.00464
  31
0
  0
LINE
  8
0
  10
4.29336
  20
21.00464
  30
0
  11
4.22813
  21
21.11492
  31
0
  0
LINE
  8
0
  10
4.22813
  20
21.11492
  30
0
  11
4.16615
  21
21.22857
  31
0
  0
LINE
  8
0
  10
4.16615
  20
21.22857
  30
0
  11
4.10724
  21
21.34532
  31
0
  0
LINE
  8
0
  10
4.10724
  20
21.34532
  30
0
  11
4.05126
  21
21.46497
  31
0
  0
LINE
  8
0
  10
4.05126
  20
21.46497
  30
0
  11
3.99813
  21
21.58735
  31
0
  0
LINE
  8
0
  10
3.99813
  20
21.58735
  30
0
  11
3.94776
  21
21.71231
  31
0
  0
LINE
  8
0
  10
3.94776
  20
21.71231
  30
0
  11
3.90011
  21
21.83974
  31
0
  0
LINE
  8
0
  10
3.90011
  20
21.83974
  30
0
  11
3.85512
  21
21.96954
  31
0
  0
LINE
  8
0
  10
3.85512
  20
21.96954
  30
0
  11
3.81279
  21
22.10162
  31
0
  0
LINE
  8
0
  10
3.81279
  20
22.10162
  30
0
  11
3.77307
  21
22.23588
  31
0
  0
LINE
  8
0
  10
3.77307
  20
22.23588
  30
0
  11
4.67276
  21
23.0641
  31
0
  0
LINE
  8
0
  10
4.67276
  20
23.0641
  30
0
  11
4.80328
  21
23.01343
  31
0
  0
LINE
  8
0
  10
4.80328
  20
23.01343
  30
0
  11
4.93141
  21
22.96033
  31
0
  0
LINE
  8
0
  10
4.93141
  20
22.96033
  30
0
  11
5.05705
  21
22.90478
  31
0
  0
LINE
  8
0
  10
5.05705
  20
22.90478
  30
0
  11
5.18011
  21
22.84677
  31
0
  0
LINE
  8
0
  10
5.18011
  20
22.84677
  30
0
  11
5.30049
  21
22.78625
  31
0
  0
LINE
  8
0
  10
5.30049
  20
22.78625
  30
0
  11
5.41806
  21
22.72319
  31
0
  0
LINE
  8
0
  10
5.41806
  20
22.72319
  30
0
  11
5.53267
  21
22.65753
  31
0
  0
LINE
  8
0
  10
5.53267
  20
22.65753
  30
0
  11
5.64416
  21
22.58918
  31
0
  0
LINE
  8
0
  10
5.64416
  20
22.58918
  30
0
  11
5.7523
  21
22.51803
  31
0
  0
LINE
  8
0
  10
5.7523
  20
22.51803
  30
0
  11
5.85682
  21
22.44391
  31
0
  0
LINE
  8
0
  10
5.85682
  20
22.44391
  30
0
  11
5.95732
  21
22.36657
  31
0
  0
LINE
  8
0
  10
5.95732
  20
22.36657
  30
0
  11
6.0532
  21
22.28562
  31
0
  0
LINE
  8
0
  10
6.0532
  20
22.28562
  30
0
  11
6.14337
  21
22.20028
  31
0
  0
LINE
  8
0
  10
6.14337
  20
22.20028
  30
0
  11
6.2287
  21
22.11123
  31
0
  0
LINE
  8
0
  10
6.2287
  20
22.11123
  30
0
  11
6.32662
  21
22.03163
  31
0
  0
LINE
  8
0
  10
6.32662
  20
22.03163
  30
0
  11
6.35506
  21
22.01467
  31
0
  0
LINE
  8
0
  10
6.35506
  20
22.01467
  30
0
  11
6.38646
  21
21.9999
  31
0
  0
LINE
  8
0
  10
6.38646
  20
21.9999
  30
0
  11
6.42323
  21
21.9891
  31
0
  0
LINE
  8
0
  10
6.42323
  20
21.9891
  30
0
  11
6.49014
  21
22.00043
  31
0
  0
LINE
  8
0
  10
6.49014
  20
22.00043
  30
0
  11
7.50096
  21
22.66083
  31
0
  0
LINE
  8
0
  10
7.50096
  20
22.66083
  30
0
  11
7.53821
  21
22.71755
  31
0
  0
LINE
  8
0
  10
7.53821
  20
22.71755
  30
0
  11
7.5431
  21
22.75557
  31
0
  0
LINE
  8
0
  10
7.5431
  20
22.75557
  30
0
  11
7.54218
  21
22.79025
  31
0
  0
LINE
  8
0
  10
7.54218
  20
22.79025
  30
0
  11
7.53807
  21
22.8231
  31
0
  0
LINE
  8
0
  10
7.53807
  20
22.8231
  30
0
  11
7.50451
  21
22.94476
  31
0
  0
LINE
  8
0
  10
7.50451
  20
22.94476
  30
0
  11
7.45724
  21
23.05867
  31
0
  0
LINE
  8
0
  10
7.45724
  20
23.05867
  30
0
  11
7.4153
  21
23.17553
  31
0
  0
LINE
  8
0
  10
7.4153
  20
23.17553
  30
0
  11
7.37969
  21
23.29585
  31
0
  0
LINE
  8
0
  10
7.37969
  20
23.29585
  30
0
  11
7.34924
  21
23.41895
  31
0
  0
LINE
  8
0
  10
7.34924
  20
23.41895
  30
0
  11
7.32334
  21
23.54444
  31
0
  0
LINE
  8
0
  10
7.32334
  20
23.54444
  30
0
  11
7.30162
  21
23.67205
  31
0
  0
LINE
  8
0
  10
7.30162
  20
23.67205
  30
0
  11
7.28381
  21
23.80161
  31
0
  0
LINE
  8
0
  10
7.28381
  20
23.80161
  30
0
  11
7.26972
  21
23.93295
  31
0
  0
LINE
  8
0
  10
7.26972
  20
23.93295
  30
0
  11
7.2592
  21
24.06594
  31
0
  0
LINE
  8
0
  10
7.2592
  20
24.06594
  30
0
  11
7.25214
  21
24.20049
  31
0
  0
LINE
  8
0
  10
7.25214
  20
24.20049
  30
0
  11
7.24844
  21
24.33649
  31
0
  0
LINE
  8
0
  10
7.24844
  20
24.33649
  30
0
  11
7.24805
  21
24.47387
  31
0
  0
LINE
  8
0
  10
7.24805
  20
24.47387
  30
0
  11
7.25088
  21
24.61253
  31
0
  0
LINE
  8
0
  10
7.25088
  20
24.61253
  30
0
  11
7.25691
  21
24.75241
  31
0
  0
LINE
  8
0
  10
7.25691
  20
24.75241
  30
0
  11
8.37678
  21
25.24363
  31
0
  0
LINE
  8
0
  10
8.37678
  20
25.24363
  30
0
  11
8.48378
  21
25.15333
  31
0
  0
LINE
  8
0
  10
8.48378
  20
25.15333
  30
0
  11
8.58772
  21
25.0615
  31
0
  0
LINE
  8
0
  10
8.58772
  20
25.0615
  30
0
  11
8.68852
  21
24.96817
  31
0
  0
LINE
  8
0
  10
8.68852
  20
24.96817
  30
0
  11
8.78607
  21
24.87334
  31
0
  0
LINE
  8
0
  10
8.78607
  20
24.87334
  30
0
  11
8.88028
  21
24.77702
  31
0
  0
LINE
  8
0
  10
8.88028
  20
24.77702
  30
0
  11
8.971
  21
24.6792
  31
0
  0
LINE
  8
0
  10
8.971
  20
24.6792
  30
0
  11
9.05809
  21
24.57988
  31
0
  0
LINE
  8
0
  10
9.05809
  20
24.57988
  30
0
  11
9.14134
  21
24.47903
  31
0
  0
LINE
  8
0
  10
9.14134
  20
24.47903
  30
0
  11
9.22052
  21
24.37662
  31
0
  0
LINE
  8
0
  10
9.22052
  20
24.37662
  30
0
  11
9.29531
  21
24.27258
  31
0
  0
LINE
  8
0
  10
9.29531
  20
24.27258
  30
0
  11
9.36525
  21
24.1668
  31
0
  0
LINE
  8
0
  10
9.36525
  20
24.1668
  30
0
  11
9.42966
  21
24.0591
  31
0
  0
LINE
  8
0
  10
9.42966
  20
24.0591
  30
0
  11
9.48723
  21
23.9491
  31
0
  0
LINE
  8
0
  10
9.48723
  20
23.9491
  30
0
  11
9.53902
  21
23.83718
  31
0
  0
LINE
  8
0
  10
9.53902
  20
23.83718
  30
0
  11
9.60579
  21
23.73009
  31
0
  0
LINE
  8
0
  10
9.60579
  20
23.73009
  30
0
  11
9.62718
  21
23.70482
  31
0
  0
LINE
  8
0
  10
9.62718
  20
23.70482
  30
0
  11
9.65208
  21
23.68065
  31
0
  0
LINE
  8
0
  10
9.65208
  20
23.68065
  30
0
  11
9.68336
  21
23.65849
  31
0
  0
LINE
  8
0
  10
9.68336
  20
23.65849
  30
0
  11
9.75032
  21
23.64749
  31
0
  0
LINE
  8
0
  10
9.75032
  20
23.64749
  30
0
  11
10.9208
  21
23.94389
  31
0
  0
LINE
  8
0
  10
10.9208
  20
23.94389
  30
0
  11
10.97445
  21
23.98544
  31
0
  0
LINE
  8
0
  10
10.97445
  20
23.98544
  30
0
  11
10.99141
  21
24.01982
  31
0
  0
LINE
  8
0
  10
10.99141
  20
24.01982
  30
0
  11
11.00181
  21
24.05292
  31
0
  0
LINE
  8
0
  10
11.00181
  20
24.05292
  30
0
  11
11.00859
  21
24.08533
  31
0
  0
LINE
  8
0
  10
11.00859
  20
24.08533
  30
0
  11
11.01635
  21
24.21129
  31
0
  0
LINE
  8
0
  10
11.01635
  20
24.21129
  30
0
  11
11.00863
  21
24.33437
  31
0
  0
LINE
  8
0
  10
11.00863
  20
24.33437
  30
0
  11
11.0069
  21
24.45852
  31
0
  0
LINE
  8
0
  10
11.0069
  20
24.45852
  30
0
  11
11.01229
  21
24.58389
  31
0
  0
LINE
  8
0
  10
11.01229
  20
24.58389
  30
0
  11
11.02346
  21
24.7102
  31
0
  0
LINE
  8
0
  10
11.02346
  20
24.7102
  30
0
  11
11.03971
  21
24.8373
  31
0
  0
LINE
  8
0
  10
11.03971
  20
24.8373
  30
0
  11
11.06061
  21
24.96505
  31
0
  0
LINE
  8
0
  10
11.06061
  20
24.96505
  30
0
  11
11.08583
  21
25.09337
  31
0
  0
LINE
  8
0
  10
11.08583
  20
25.09337
  30
0
  11
11.11515
  21
25.22217
  31
0
  0
LINE
  8
0
  10
11.11515
  20
25.22217
  30
0
  11
11.14838
  21
25.35138
  31
0
  0
LINE
  8
0
  10
11.14838
  20
25.35138
  30
0
  11
11.18539
  21
25.48093
  31
0
  0
LINE
  8
0
  10
11.18539
  20
25.48093
  30
0
  11
11.22605
  21
25.61076
  31
0
  0
LINE
  8
0
  10
11.22605
  20
25.61076
  30
0
  11
11.27028
  21
25.74082
  31
0
  0
LINE
  8
0
  10
11.27028
  20
25.74082
  30
0
  11
11.31799
  21
25.87105
  31
0
  0
LINE
  8
0
  10
11.31799
  20
25.87105
  30
0
  11
11.36911
  21
26.00139
  31
0
  0
LINE
  8
0
  10
11.36911
  20
26.00139
  30
0
  11
12.5878
  21
26.10238
  31
0
  0
LINE
  8
0
  10
12.5878
  20
26.10238
  30
0
  11
12.65968
  21
25.98222
  31
0
  0
LINE
  8
0
  10
12.65968
  20
25.98222
  30
0
  11
12.72817
  21
25.86162
  31
0
  0
LINE
  8
0
  10
12.72817
  20
25.86162
  30
0
  11
12.7932
  21
25.74062
  31
0
  0
LINE
  8
0
  10
12.7932
  20
25.74062
  30
0
  11
12.85468
  21
25.61925
  31
0
  0
LINE
  8
0
  10
12.85468
  20
25.61925
  30
0
  11
12.91251
  21
25.49756
  31
0
  0
LINE
  8
0
  10
12.91251
  20
25.49756
  30
0
  11
12.96656
  21
25.37558
  31
0
  0
LINE
  8
0
  10
12.96656
  20
25.37558
  30
0
  11
13.01667
  21
25.25336
  31
0
  0
LINE
  8
0
  10
13.01667
  20
25.25336
  30
0
  11
13.06267
  21
25.13095
  31
0
  0
LINE
  8
0
  10
13.06267
  20
25.13095
  30
0
  11
13.10431
  21
25.00838
  31
0
  0
LINE
  8
0
  10
13.10431
  20
25.00838
  30
0
  11
13.14126
  21
24.88569
  31
0
  0
LINE
  8
0
  10
13.14126
  20
24.88569
  30
0
  11
13.17307
  21
24.76293
  31
0
  0
LINE
  8
0
  10
13.17307
  20
24.76293
  30
0
  11
13.19901
  21
24.64016
  31
0
  0
LINE
  8
0
  10
13.19901
  20
24.64016
  30
0
  11
13.21775
  21
24.51743
  31
0
  0
LINE
  8
0
  10
13.21775
  20
24.51743
  30
0
  11
13.23039
  21
24.39475
  31
0
  0
LINE
  8
0
  10
13.23039
  20
24.39475
  30
0
  11
13.25877
  21
24.27178
  31
0
  0
LINE
  8
0
  10
13.25877
  20
24.27178
  30
0
  11
13.2708
  21
24.24093
  31
0
  0
LINE
  8
0
  10
13.2708
  20
24.24093
  30
0
  11
13.2865
  21
24.20999
  31
0
  0
LINE
  8
0
  10
13.2865
  20
24.20999
  30
0
  11
13.30889
  21
24.17888
  31
0
  0
LINE
  8
0
  10
13.30889
  20
24.17888
  30
0
  11
13.36865
  21
24.14673
  31
0
  0
LINE
  8
0
  10
13.36865
  20
24.14673
  30
0
  11
14.57195
  21
24.04702
  31
0
  0
LINE
  8
0
  10
14.57195
  20
24.04702
  30
0
  11
14.63619
  21
24.0689
  31
0
  0
LINE
  8
0
  10
14.63619
  20
24.0689
  30
0
  11
14.66339
  21
24.0959
  31
0
  0
LINE
  8
0
  10
14.66339
  20
24.0959
  30
0
  11
14.68397
  21
24.12383
  31
0
  0
LINE
  8
0
  10
14.68397
  20
24.12383
  30
0
  11
14.70091
  21
24.15228
  31
0
  0
LINE
  8
0
  10
14.70091
  20
24.15228
  30
0
  11
14.74915
  21
24.2689
  31
0
  0
LINE
  8
0
  10
14.74915
  20
24.2689
  30
0
  11
14.78181
  21
24.38782
  31
0
  0
LINE
  8
0
  10
14.78181
  20
24.38782
  30
0
  11
14.82049
  21
24.5058
  31
0
  0
LINE
  8
0
  10
14.82049
  20
24.5058
  30
0
  11
14.86629
  21
24.62263
  31
0
  0
LINE
  8
0
  10
14.86629
  20
24.62263
  30
0
  11
14.91787
  21
24.73848
  31
0
  0
LINE
  8
0
  10
14.91787
  20
24.73848
  30
0
  11
14.97451
  21
24.85341
  31
0
  0
LINE
  8
0
  10
14.97451
  20
24.85341
  30
0
  11
15.03576
  21
24.96745
  31
0
  0
LINE
  8
0
  10
15.03576
  20
24.96745
  30
0
  11
15.10127
  21
25.08063
  31
0
  0
LINE
  8
0
  10
15.10127
  20
25.08063
  30
0
  11
15.17082
  21
25.19293
  31
0
  0
LINE
  8
0
  10
15.17082
  20
25.19293
  30
0
  11
15.24421
  21
25.30435
  31
0
  0
LINE
  8
0
  10
15.24421
  20
25.30435
  30
0
  11
15.32128
  21
25.41486
  31
0
  0
LINE
  8
0
  10
15.32128
  20
25.41486
  30
0
  11
15.4019
  21
25.52445
  31
0
  0
LINE
  8
0
  10
15.4019
  20
25.52445
  30
0
  11
15.48596
  21
25.63311
  31
0
  0
LINE
  8
0
  10
15.48596
  20
25.63311
  30
0
  11
15.57337
  21
25.74079
  31
0
  0
LINE
  8
0
  10
15.57337
  20
25.74079
  30
0
  11
15.66404
  21
25.84747
  31
0
  0
LINE
  8
0
  10
15.66404
  20
25.84747
  30
0
  11
16.84949
  21
25.54728
  31
0
  0
LINE
  8
0
  10
16.84949
  20
25.54728
  30
0
  11
16.87846
  21
25.41029
  31
0
  0
LINE
  8
0
  10
16.87846
  20
25.41029
  30
0
  11
16.90408
  21
25.27399
  31
0
  0
LINE
  8
0
  10
16.90408
  20
25.27399
  30
0
  11
16.9263
  21
25.13842
  31
0
  0
LINE
  8
0
  10
16.9263
  20
25.13842
  30
0
  11
16.94504
  21
25.00367
  31
0
  0
LINE
  8
0
  10
16.94504
  20
25.00367
  30
0
  11
16.96022
  21
24.86979
  31
0
  0
LINE
  8
0
  10
16.96022
  20
24.86979
  30
0
  11
16.97173
  21
24.73688
  31
0
  0
LINE
  8
0
  10
16.97173
  20
24.73688
  30
0
  11
16.97945
  21
24.60501
  31
0
  0
LINE
  8
0
  10
16.97945
  20
24.60501
  30
0
  11
16.98321
  21
24.47429
  31
0
  0
LINE
  8
0
  10
16.98321
  20
24.47429
  30
0
  11
16.98279
  21
24.34484
  31
0
  0
LINE
  8
0
  10
16.98279
  20
24.34484
  30
0
  11
16.9779
  21
24.2168
  31
0
  0
LINE
  8
0
  10
16.9779
  20
24.2168
  30
0
  11
16.96813
  21
24.09037
  31
0
  0
LINE
  8
0
  10
16.96813
  20
24.09037
  30
0
  11
16.9528
  21
23.96583
  31
0
  0
LINE
  8
0
  10
16.9528
  20
23.96583
  30
0
  11
16.93067
  21
23.84366
  31
0
  0
LINE
  8
0
  10
16.93067
  20
23.84366
  30
0
  11
16.9028
  21
23.72352
  31
0
  0
LINE
  8
0
  10
16.9028
  20
23.72352
  30
0
  11
16.88971
  21
23.598
  31
0
  0
LINE
  8
0
  10
16.88971
  20
23.598
  30
0
  11
16.89107
  21
23.56492
  31
0
  0
LINE
  8
0
  10
16.89107
  20
23.56492
  30
0
  11
16.89588
  21
23.53056
  31
0
  0
LINE
  8
0
  10
16.89588
  20
23.53056
  30
0
  11
16.90695
  21
23.49386
  31
0
  0
LINE
  8
0
  10
16.90695
  20
23.49386
  30
0
  11
16.95303
  21
23.44405
  31
0
  0
LINE
  8
0
  10
16.95303
  20
23.44405
  30
0
  11
18.05876
  21
22.95903
  31
0
  0
LINE
  8
0
  10
18.05876
  20
22.95903
  30
0
  11
18.12662
  21
22.95887
  31
0
  0
LINE
  8
0
  10
18.12662
  20
22.95887
  30
0
  11
18.16112
  21
22.97557
  31
0
  0
LINE
  8
0
  10
18.16112
  20
22.97557
  30
0
  11
18.18965
  21
22.99531
  31
0
  0
LINE
  8
0
  10
18.18965
  20
22.99531
  30
0
  11
18.21491
  21
23.01672
  31
0
  0
LINE
  8
0
  10
18.21491
  20
23.01672
  30
0
  11
18.2984
  21
23.11136
  31
0
  0
LINE
  8
0
  10
18.2984
  20
23.11136
  30
0
  11
18.36791
  21
23.21323
  31
0
  0
LINE
  8
0
  10
18.36791
  20
23.21323
  30
0
  11
18.4428
  21
23.31225
  31
0
  0
LINE
  8
0
  10
18.4428
  20
23.31225
  30
0
  11
18.52405
  21
23.40788
  31
0
  0
LINE
  8
0
  10
18.52405
  20
23.40788
  30
0
  11
18.61045
  21
23.5007
  31
0
  0
LINE
  8
0
  10
18.61045
  20
23.5007
  30
0
  11
18.70134
  21
23.59101
  31
0
  0
LINE
  8
0
  10
18.70134
  20
23.59101
  30
0
  11
18.7963
  21
23.679
  31
0
  0
LINE
  8
0
  10
18.7963
  20
23.679
  30
0
  11
18.89502
  21
23.76477
  31
0
  0
LINE
  8
0
  10
18.89502
  20
23.76477
  30
0
  11
18.99726
  21
23.8484
  31
0
  0
LINE
  8
0
  10
18.99726
  20
23.8484
  30
0
  11
19.10285
  21
23.92995
  31
0
  0
LINE
  8
0
  10
19.10285
  20
23.92995
  30
0
  11
19.21162
  21
24.00945
  31
0
  0
LINE
  8
0
  10
19.21162
  20
24.00945
  30
0
  11
19.32346
  21
24.08693
  31
0
  0
LINE
  8
0
  10
19.32346
  20
24.08693
  30
0
  11
19.43824
  21
24.1624
  31
0
  0
LINE
  8
0
  10
19.43824
  20
24.1624
  30
0
  11
19.55588
  21
24.23587
  31
0
  0
LINE
  8
0
  10
19.55588
  20
24.23587
  30
0
  11
19.67628
  21
24.30733
  31
0
  0
LINE
  8
0
  10
19.67628
  20
24.30733
  30
0
  11
20.70002
  21
23.63848
  31
0
  0
LINE
  8
0
  10
20.70002
  20
23.63848
  30
0
  11
20.68295
  21
23.49952
  31
0
  0
LINE
  8
0
  10
20.68295
  20
23.49952
  30
0
  11
20.66292
  21
23.36228
  31
0
  0
LINE
  8
0
  10
20.66292
  20
23.36228
  30
0
  11
20.63992
  21
23.22684
  31
0
  0
LINE
  8
0
  10
20.63992
  20
23.22684
  30
0
  11
20.61389
  21
23.0933
  31
0
  0
LINE
  8
0
  10
20.61389
  20
23.0933
  30
0
  11
20.58478
  21
22.96175
  31
0
  0
LINE
  8
0
  10
20.58478
  20
22.96175
  30
0
  11
20.55251
  21
22.8323
  31
0
  0
LINE
  8
0
  10
20.55251
  20
22.8323
  30
0
  11
20.51699
  21
22.70508
  31
0
  0
LINE
  8
0
  10
20.51699
  20
22.70508
  30
0
  11
20.4781
  21
22.58022
  31
0
  0
LINE
  8
0
  10
20.4781
  20
22.58022
  30
0
  11
20.43567
  21
22.45792
  31
0
  0
LINE
  8
0
  10
20.43567
  20
22.45792
  30
0
  11
20.38948
  21
22.33841
  31
0
  0
LINE
  8
0
  10
20.38948
  20
22.33841
  30
0
  11
20.33918
  21
22.222
  31
0
  0
LINE
  8
0
  10
20.33918
  20
22.222
  30
0
  11
20.28425
  21
22.10917
  31
0
  0
LINE
  8
0
  10
20.28425
  20
22.10917
  30
0
  11
20.22365
  21
22.00081
  31
0
  0
LINE
  8
0
  10
20.22365
  20
22.00081
  30
0
  11
20.15828
  21
21.89624
  31
0
  0
LINE
  8
0
  10
20.15828
  20
21.89624
  30
0
  11
20.10514
  21
21.78177
  31
0
  0
LINE
  8
0
  10
20.10514
  20
21.78177
  30
0
  11
20.09569
  21
21.75004
  31
0
  0
LINE
  8
0
  10
20.09569
  20
21.75004
  30
0
  11
20.08907
  21
21.71598
  31
0
  0
LINE
  8
0
  10
20.08907
  20
21.71598
  30
0
  11
20.08763
  21
21.67767
  31
0
  0
LINE
  8
0
  10
20.08763
  20
21.67767
  30
0
  11
20.11504
  21
21.6156
  31
0
  0
LINE
  8
0
  10
20.11504
  20
21.6156
  30
0
  11
21.00338
  21
20.79782
  31
0
  0
LINE
  8
0
  10
21.00338
  20
20.79782
  30
0
  11
21.06751
  21
20.77564
  31
0
  0
LINE
  8
0
  10
21.06751
  20
20.77564
  30
0
  11
21.10556
  21
20.78024
  31
0
  0
LINE
  8
0
  10
21.10556
  20
20.78024
  30
0
  11
21.13896
  21
20.78964
  31
0
  0
LINE
  8
0
  10
21.13896
  20
20.78964
  30
0
  11
21.1698
  21
20.80169
  31
0
  0
LINE
  8
0
  10
21.1698
  20
20.80169
  30
0
  11
21.27949
  21
20.86409
  31
0
  0
LINE
  8
0
  10
21.27949
  20
20.86409
  30
0
  11
21.37831
  21
20.93787
  31
0
  0
LINE
  8
0
  10
21.37831
  20
20.93787
  30
0
  11
21.4813
  21
21.00722
  31
0
  0
LINE
  8
0
  10
21.4813
  20
21.00722
  30
0
  11
21.5892
  21
21.07128
  31
0
  0
LINE
  8
0
  10
21.5892
  20
21.07128
  30
0
  11
21.70105
  21
21.13102
  31
0
  0
LINE
  8
0
  10
21.70105
  20
21.13102
  30
0
  11
21.81634
  21
21.18692
  31
0
  0
LINE
  8
0
  10
21.81634
  20
21.18692
  30
0
  11
21.93472
  21
21.2393
  31
0
  0
LINE
  8
0
  10
21.93472
  20
21.2393
  30
0
  11
22.05594
  21
21.28837
  31
0
  0
LINE
  8
0
  10
22.05594
  20
21.28837
  30
0
  11
22.1798
  21
21.33428
  31
0
  0
LINE
  8
0
  10
22.1798
  20
21.33428
  30
0
  11
22.30615
  21
21.37712
  31
0
  0
LINE
  8
0
  10
22.30615
  20
21.37712
  30
0
  11
22.43484
  21
21.417
  31
0
  0
LINE
  8
0
  10
22.43484
  20
21.417
  30
0
  11
22.56578
  21
21.45397
  31
0
  0
LINE
  8
0
  10
22.56578
  20
21.45397
  30
0
  11
22.69885
  21
21.48808
  31
0
  0
LINE
  8
0
  10
22.69885
  20
21.48808
  30
0
  11
22.83397
  21
21.51936
  31
0
  0
LINE
  8
0
  10
22.83397
  20
21.51936
  30
0
  11
22.97105
  21
21.54786
  31
0
  0
LINE
  8
0
  10
22.97105
  20
21.54786
  30
0
  11
23.72215
  21
20.58285
  31
0
  0
LINE
  8
0
  10
23.72215
  20
20.58285
  30
0
  11
23.66087
  21
20.45696
  31
0
  0
LINE
  8
0
  10
23.66087
  20
20.45696
  30
0
  11
23.59737
  21
20.33365
  31
0
  0
LINE
  8
0
  10
23.59737
  20
20.33365
  30
0
  11
23.53164
  21
20.21303
  31
0
  0
LINE
  8
0
  10
23.53164
  20
20.21303
  30
0
  11
23.46366
  21
20.09518
  31
0
  0
LINE
  8
0
  10
23.46366
  20
20.09518
  30
0
  11
23.39341
  21
19.98021
  31
0
  0
LINE
  8
0
  10
23.39341
  20
19.98021
  30
0
  11
23.32086
  21
19.86825
  31
0
  0
LINE
  8
0
  10
23.32086
  20
19.86825
  30
0
  11
23.24595
  21
19.75944
  31
0
  0
LINE
  8
0
  10
23.24595
  20
19.75944
  30
0
  11
23.16863
  21
19.65398
  31
0
  0
LINE
  8
0
  10
23.16863
  20
19.65398
  30
0
  11
23.08879
  21
19.55208
  31
0
  0
LINE
  8
0
  10
23.08879
  20
19.55208
  30
0
  11
23.00629
  21
19.45405
  31
0
  0
LINE
  8
0
  10
23.00629
  20
19.45405
  30
0
  11
22.92092
  21
19.36028
  31
0
  0
LINE
  8
0
  10
22.92092
  20
19.36028
  30
0
  11
22.83233
  21
19.2714
  31
0
  0
LINE
  8
0
  10
22.83233
  20
19.2714
  30
0
  11
22.73983
  21
19.18859
  31
0
  0
LINE
  8
0
  10
22.73983
  20
19.18859
  30
0
  11
22.64404
  21
19.11091
  31
0
  0
LINE
  8
0
  10
22.64404
  20
19.11091
  30
0
  11
22.55662
  21
19.01989
  31
0
  0
LINE
  8
0
  10
22.55662
  20
19.01989
  30
0
  11
22.53738
  21
18.99295
  31
0
  0
LINE
  8
0
  10
22.53738
  20
18.99295
  30
0
  11
22.52006
  21
18.96288
  31
0
  0
LINE
  8
0
  10
22.52006
  20
18.96288
  30
0
  11
22.50626
  21
18.92712
  31
0
  0
LINE
  8
0
  10
22.50626
  20
18.92712
  30
0
  11
22.51203
  21
18.85951
  31
0
  0
LINE
  8
0
  10
22.51203
  20
18.85951
  30
0
  11
23.0867
  21
17.79761
  31
0
  0
LINE
  8
0
  10
23.0867
  20
17.79761
  30
0
  11
23.14015
  21
17.7558
  31
0
  0
LINE
  8
0
  10
23.14015
  20
17.7558
  30
0
  11
23.17764
  21
17.74779
  31
0
  0
LINE
  8
0
  10
23.17764
  20
17.74779
  30
0
  11
23.21228
  21
17.74584
  31
0
  0
LINE
  8
0
  10
23.21228
  20
17.74584
  30
0
  11
23.24536
  21
17.74722
  31
0
  0
LINE
  8
0
  10
23.24536
  20
17.74722
  30
0
  11
23.36937
  21
17.77062
  31
0
  0
LINE
  8
0
  10
23.36937
  20
17.77062
  30
0
  11
23.48679
  21
17.80833
  31
0
  0
LINE
  8
0
  10
23.48679
  20
17.80833
  30
0
  11
23.60671
  21
17.84047
  31
0
  0
LINE
  8
0
  10
23.60671
  20
17.84047
  30
0
  11
23.72957
  21
17.86603
  31
0
  0
LINE
  8
0
  10
23.72957
  20
17.86603
  30
0
  11
23.85476
  21
17.88621
  31
0
  0
LINE
  8
0
  10
23.85476
  20
17.88621
  30
0
  11
23.98196
  21
17.90165
  31
0
  0
LINE
  8
0
  10
23.98196
  20
17.90165
  30
0
  11
24.11093
  21
17.91276
  31
0
  0
LINE
  8
0
  10
24.11093
  20
17.91276
  30
0
  11
24.24152
  21
17.91981
  31
0
  0
LINE
  8
0
  10
24.24152
  20
17.91981
  30
0
  11
24.37357
  21
17.92301
  31
0
  0
LINE
  8
0
  10
24.37357
  20
17.92301
  30
0
  11
24.50698
  21
17.92251
  31
0
  0
LINE
  8
0
  10
24.50698
  20
17.92251
  30
0
  11
24.64165
  21
17.91844
  31
0
  0
LINE
  8
0
  10
24.64165
  20
17.91844
  30
0
  11
24.7775
  21
17.91089
  31
0
  0
LINE
  8
0
  10
24.7775
  20
17.91089
  30
0
  11
24.91443
  21
17.89994
  31
0
  0
LINE
  8
0
  10
24.91443
  20
17.89994
  30
0
  11
25.05239
  21
17.88566
  31
0
  0
LINE
  8
0
  10
25.05239
  20
17.88566
  30
0
  11
25.19129
  21
17.8681
  31
0
  0
LINE
  8
0
  10
25.19129
  20
17.8681
  30
0
  11
25.58836
  21
16.71149
  31
0
  0
LINE
  8
0
  10
25.58836
  20
16.71149
  30
0
  11
25.48952
  21
16.61232
  31
0
  0
LINE
  8
0
  10
25.48952
  20
16.61232
  30
0
  11
25.38943
  21
16.51632
  31
0
  0
LINE
  8
0
  10
25.38943
  20
16.51632
  30
0
  11
25.28809
  21
16.42357
  31
0
  0
LINE
  8
0
  10
25.28809
  20
16.42357
  30
0
  11
25.18553
  21
16.33418
  31
0
  0
LINE
  8
0
  10
25.18553
  20
16.33418
  30
0
  11
25.08176
  21
16.24825
  31
0
  0
LINE
  8
0
  10
25.08176
  20
16.24825
  30
0
  11
24.97678
  21
16.16591
  31
0
  0
LINE
  8
0
  10
24.97678
  20
16.16591
  30
0
  11
24.87061
  21
16.08732
  31
0
  0
LINE
  8
0
  10
24.87061
  20
16.08732
  30
0
  11
24.76323
  21
16.01268
  31
0
  0
LINE
  8
0
  10
24.76323
  20
16.01268
  30
0
  11
24.65463
  21
15.94223
  31
0
  0
LINE
  8
0
  10
24.65463
  20
15.94223
  30
0
  11
24.54477
  21
15.87629
  31
0
  0
LINE
  8
0
  10
24.54477
  20
15.87629
  30
0
  11
24.43358
  21
15.81532
  31
0
  0
LINE
  8
0
  10
24.43358
  20
15.81532
  30
0
  11
24.32093
  21
15.76003
  31
0
  0
LINE
  8
0
  10
24.32093
  20
15.76003
  30
0
  11
24.20655
  21
15.71174
  31
0
  0
LINE
  8
0
  10
24.20655
  20
15.71174
  30
0
  11
24.09073
  21
15.66937
  31
0
  0
LINE
  8
0
  10
24.09073
  20
15.66937
  30
0
  11
23.97849
  21
15.61167
  31
0
  0
LINE
  8
0
  10
23.97849
  20
15.61167
  30
0
  11
23.95154
  21
15.59244
  31
0
  0
LINE
  8
0
  10
23.95154
  20
15.59244
  30
0
  11
23.9254
  21
15.56962
  31
0
  0
LINE
  8
0
  10
23.9254
  20
15.56962
  30
0
  11
23.90074
  21
15.54028
  31
0
  0
LINE
  8
0
  10
23.90074
  20
15.54028
  30
0
  11
23.88424
  21
15.47446
  31
0
  0
LINE
  8
0
  10
23.88424
  20
15.47446
  30
0
  11
24.08298
  21
14.28349
  31
0
  0
LINE
  8
0
  10
24.08298
  20
14.28349
  30
0
  11
24.11995
  21
14.22659
  31
0
  0
LINE
  8
0
  10
24.11995
  20
14.22659
  30
0
  11
24.15281
  21
14.20685
  31
0
  0
LINE
  8
0
  10
24.15281
  20
14.20685
  30
0
  11
24.18494
  21
14.19376
  31
0
  0
LINE
  8
0
  10
24.18494
  20
14.19376
  30
0
  11
24.21668
  21
14.18432
  31
0
  0
LINE
  8
0
  10
24.21668
  20
14.18432
  30
0
  11
24.34157
  21
14.16619
  31
0
  0
LINE
  8
0
  10
24.34157
  20
14.16619
  30
0
  11
24.46487
  21
14.16372
  31
0
  0
LINE
  8
0
  10
24.46487
  20
14.16372
  30
0
  11
24.58873
  21
14.15519
  31
0
  0
LINE
  8
0
  10
24.58873
  20
14.15519
  30
0
  11
24.71323
  21
14.13947
  31
0
  0
LINE
  8
0
  10
24.71323
  20
14.13947
  30
0
  11
24.83819
  21
14.1179
  31
0
  0
LINE
  8
0
  10
24.83819
  20
14.1179
  30
0
  11
24.96351
  21
14.09121
  31
0
  0
LINE
  8
0
  10
24.96351
  20
14.09121
  30
0
  11
25.0891
  21
14.05984
  31
0
  0
LINE
  8
0
  10
25.0891
  20
14.05984
  30
0
  11
25.2149
  21
14.02411
  31
0
  0
LINE
  8
0
  10
25.2149
  20
14.02411
  30
0
  11
25.34084
  21
13.98425
  31
0
  0
LINE
  8
0
  10
25.34084
  20
13.98425
  30
0
  11
25.46686
  21
13.94046
  31
0
  0
LINE
  8
0
  10
25.46686
  20
13.94046
  30
0
  11
25.59291
  21
13.89288
  31
0
  0
LINE
  8
0
  10
25.59291
  20
13.89288
  30
0
  11
25.71894
  21
13.84164
  31
0
  0
LINE
  8
0
  10
25.71894
  20
13.84164
  30
0
  11
25.8449
  21
13.78682
  31
0
  0
LINE
  8
0
  10
25.8449
  20
13.78682
  30
0
  11
25.97075
  21
13.72852
  31
0
  0
LINE
  8
0
  10
25.97075
  20
13.72852
  30
0
  11
26.09643
  21
13.66681
  31
0
  0
LINE
  8
0
  10
26.09643
  20
13.66681
  30
0
  11
26.09643
  21
12.44394
  31
0
  0
LINE
  8
0
  10
26.09643
  20
12.44394
  30
0
  11
25.97075
  21
12.38223
  31
0
  0
LINE
  8
0
  10
25.97075
  20
12.38223
  30
0
  11
25.8449
  21
12.32393
  31
0
  0
LINE
  8
0
  10
25.8449
  20
12.32393
  30
0
  11
25.71894
  21
12.26912
  31
0
  0
LINE
  8
0
  10
25.71894
  20
12.26912
  30
0
  11
25.59291
  21
12.21787
  31
0
  0
LINE
  8
0
  10
25.59291
  20
12.21787
  30
0
  11
25.46686
  21
12.17029
  31
0
  0
LINE
  8
0
  10
25.46686
  20
12.17029
  30
0
  11
25.34084
  21
12.1265
  31
0
  0
LINE
  8
0
  10
25.34084
  20
12.1265
  30
0
  11
25.2149
  21
12.08665
  31
0
  0
LINE
  8
0
  10
25.2149
  20
12.08665
  30
0
  11
25.0891
  21
12.05091
  31
0
  0
LINE
  8
0
  10
25.0891
  20
12.05091
  30
0
  11
24.96351
  21
12.01954
  31
0
  0
LINE
  8
0
  10
24.96351
  20
12.01954
  30
0
  11
24.83819
  21
11.99285
  31
0
  0
LINE
  8
0
  10
24.83819
  20
11.99285
  30
0
  11
24.71323
  21
11.97128
  31
0
  0
LINE
  8
0
  10
24.71323
  20
11.97128
  30
0
  11
24.58873
  21
11.95556
  31
0
  0
LINE
  8
0
  10
24.58873
  20
11.95556
  30
0
  11
24.46487
  21
11.94703
  31
0
  0
LINE
  8
0
  10
24.46487
  20
11.94703
  30
0
  11
24.34157
  21
11.94456
  31
0
  0
LINE
  8
0
  10
24.34157
  20
11.94456
  30
0
  11
24.21668
  21
11.92643
  31
0
  0
LINE
  8
0
  10
24.21668
  20
11.92643
  30
0
  11
24.18494
  21
11.91699
  31
0
  0
LINE
  8
0
  10
24.18494
  20
11.91699
  30
0
  11
24.15281
  21
11.9039
  31
0
  0
LINE
  8
0
  10
24.15281
  20
11.9039
  30
0
  11
24.11995
  21
11.88416
  31
0
  0
LINE
  8
0
  10
24.11995
  20
11.88416
  30
0
  11
24.08298
  21
11.82726
  31
0
  0
LINE
  8
0
  10
24.08298
  20
11.82726
  30
0
  11
23.88424
  21
10.63629
  31
0
  0
LINE
  8
0
  10
23.88424
  20
10.63629
  30
0
  11
23.90074
  21
10.57047
  31
0
  0
LINE
  8
0
  10
23.90074
  20
10.57047
  30
0
  11
23.9254
  21
10.54113
  31
0
  0
LINE
  8
0
  10
23.9254
  20
10.54113
  30
0
  11
23.95154
  21
10.51832
  31
0
  0
LINE
  8
0
  10
23.95154
  20
10.51832
  30
0
  11
23.97849
  21
10.49908
  31
0
  0
LINE
  8
0
  10
23.97849
  20
10.49908
  30
0
  11
24.09073
  21
10.44138
  31
0
  0
LINE
  8
0
  10
24.09073
  20
10.44138
  30
0
  11
24.20655
  21
10.39901
  31
0
  0
LINE
  8
0
  10
24.20655
  20
10.39901
  30
0
  11
24.32093
  21
10.35072
  31
0
  0
LINE
  8
0
  10
24.32093
  20
10.35072
  30
0
  11
24.43358
  21
10.29543
  31
0
  0
LINE
  8
0
  10
24.43358
  20
10.29543
  30
0
  11
24.54477
  21
10.23446
  31
0
  0
LINE
  8
0
  10
24.54477
  20
10.23446
  30
0
  11
24.65463
  21
10.16852
  31
0
  0
LINE
  8
0
  10
24.65463
  20
10.16852
  30
0
  11
24.76323
  21
10.09807
  31
0
  0
LINE
  8
0
  10
24.76323
  20
10.09807
  30
0
  11
24.87061
  21
10.02343
  31
0
  0
LINE
  8
0
  10
24.87061
  20
10.02343
  30
0
  11
24.97678
  21
9.94484
  31
0
  0
LINE
  8
0
  10
24.97678
  20
9.94484
  30
0
  11
25.08176
  21
9.86251
  31
0
  0
LINE
  8
0
  10
25.08176
  20
9.86251
  30
0
  11
25.18553
  21
9.77658
  31
0
  0
LINE
  8
0
  10
25.18553
  20
9.77658
  30
0
  11
25.28809
  21
9.68718
  31
0
  0
LINE
  8
0
  10
25.28809
  20
9.68718
  30
0
  11
25.38943
  21
9.59443
  31
0
  0
LINE
  8
0
  10
25.38943
  20
9.59443
  30
0
  11
25.48952
  21
9.49843
  31
0
  0
LINE
  8
0
  10
25.48952
  20
9.49843
  30
0
  11
25.58836
  21
9.39926
  31
0
  0
LINE
  8
0
  10
25.58836
  20
9.39926
  30
0
  11
25.19129
  21
8.24265
  31
0
  0
LINE
  8
0
  10
25.19129
  20
8.24265
  30
0
  11
25.05239
  21
8.22509
  31
0
  0
LINE
  8
0
  10
25.05239
  20
8.22509
  30
0
  11
24.91443
  21
8.21081
  31
0
  0
LINE
  8
0
  10
24.91443
  20
8.21081
  30
0
  11
24.7775
  21
8.19986
  31
0
  0
LINE
  8
0
  10
24.7775
  20
8.19986
  30
0
  11
24.64165
  21
8.19231
  31
0
  0
LINE
  8
0
  10
24.64165
  20
8.19231
  30
0
  11
24.50698
  21
8.18824
  31
0
  0
LINE
  8
0
  10
24.50698
  20
8.18824
  30
0
  11
24.37357
  21
8.18774
  31
0
  0
LINE
  8
0
  10
24.37357
  20
8.18774
  30
0
  11
24.24152
  21
8.19094
  31
0
  0
LINE
  8
0
  10
24.24152
  20
8.19094
  30
0
  11
24.11093
  21
8.19799
  31
0
  0
LINE
  8
0
  10
24.11093
  20
8.19799
  30
0
  11
23.98196
  21
8.2091
  31
0
  0
LINE
  8
0
  10
23.98196
  20
8.2091
  30
0
  11
23.85476
  21
8.22454
  31
0
  0
LINE
  8
0
  10
23.85476
  20
8.22454
  30
0
  11
23.72957
  21
8.24472
  31
0
  0
LINE
  8
0
  10
23.72957
  20
8.24472
  30
0
  11
23.60671
  21
8.27028
  31
0
  0
LINE
  8
0
  10
23.60671
  20
8.27028
  30
0
  11
23.48679
  21
8.30243
  31
0
  0
LINE
  8
0
  10
23.48679
  20
8.30243
  30
0
  11
23.36937
  21
8.34013
  31
0
  0
LINE
  8
0
  10
23.36937
  20
8.34013
  30
0
  11
23.24536
  21
8.36353
  31
0
  0
LINE
  8
0
  10
23.24536
  20
8.36353
  30
0
  11
23.21228
  21
8.36491
  31
0
  0
LINE
  8
0
  10
23.21228
  20
8.36491
  30
0
  11
23.17764
  21
8.36296
  31
0
  0
LINE
  8
0
  10
23.17764
  20
8.36296
  30
0
  11
23.14015
  21
8.35495
  31
0
  0
LINE
  8
0
  10
23.14015
  20
8.35495
  30
0
  11
23.0867
  21
8.31315
  31
0
  0
LINE
  8
0
  10
23.0867
  20
8.31315
  30
0
  11
22.51203
  21
7.25124
  31
0
  0
LINE
  8
0
  10
22.51203
  20
7.25124
  30
0
  11
22.50626
  21
7.18363
  31
0
  0
LINE
  8
0
  10
22.50626
  20
7.18363
  30
0
  11
22.52006
  21
7.14787
  31
0
  0
LINE
  8
0
  10
22.52006
  20
7.14787
  30
0
  11
22.53738
  21
7.1178
  31
0
  0
LINE
  8
0
  10
22.53738
  20
7.1178
  30
0
  11
22.55662
  21
7.09086
  31
0
  0
LINE
  8
0
  10
22.55662
  20
7.09086
  30
0
  11
22.64404
  21
6.99984
  31
0
  0
LINE
  8
0
  10
22.64404
  20
6.99984
  30
0
  11
22.73983
  21
6.92216
  31
0
  0
LINE
  8
0
  10
22.73983
  20
6.92216
  30
0
  11
22.83233
  21
6.83935
  31
0
  0
LINE
  8
0
  10
22.83233
  20
6.83935
  30
0
  11
22.92092
  21
6.75048
  31
0
  0
LINE
  8
0
  10
22.92092
  20
6.75048
  30
0
  11
23.00629
  21
6.65671
  31
0
  0
LINE
  8
0
  10
23.00629
  20
6.65671
  30
0
  11
23.08879
  21
6.55867
  31
0
  0
LINE
  8
0
  10
23.08879
  20
6.55867
  30
0
  11
23.16863
  21
6.45677
  31
0
  0
LINE
  8
0
  10
23.16863
  20
6.45677
  30
0
  11
23.24595
  21
6.35131
  31
0
  0
LINE
  8
0
  10
23.24595
  20
6.35131
  30
0
  11
23.32086
  21
6.2425
  31
0
  0
LINE
  8
0
  10
23.32086
  20
6.2425
  30
0
  11
23.39341
  21
6.13054
  31
0
  0
LINE
  8
0
  10
23.39341
  20
6.13054
  30
0
  11
23.46366
  21
6.01558
  31
0
  0
LINE
  8
0
  10
23.46366
  20
6.01558
  30
0
  11
23.53164
  21
5.89772
  31
0
  0
LINE
  8
0
  10
23.53164
  20
5.89772
  30
0
  11
23.59737
  21
5.7771
  31
0
  0
LINE
  8
0
  10
23.59737
  20
5.7771
  30
0
  11
23.66087
  21
5.65379
  31
0
  0
LINE
  8
0
  10
23.66087
  20
5.65379
  30
0
  11
23.72215
  21
5.5279
  31
0
  0
LINE
  8
0
  10
23.72215
  20
5.5279
  30
0
  11
22.97105
  21
4.56289
  31
0
  0
LINE
  8
0
  10
22.97105
  20
4.56289
  30
0
  11
22.83397
  21
4.59139
  31
0
  0
LINE
  8
0
  10
22.83397
  20
4.59139
  30
0
  11
22.69885
  21
4.62267
  31
0
  0
LINE
  8
0
  10
22.69885
  20
4.62267
  30
0
  11
22.56578
  21
4.65678
  31
0
  0
LINE
  8
0
  10
22.56578
  20
4.65678
  30
0
  11
22.43484
  21
4.69375
  31
0
  0
LINE
  8
0
  10
22.43484
  20
4.69375
  30
0
  11
22.30615
  21
4.73363
  31
0
  0
LINE
  8
0
  10
22.30615
  20
4.73363
  30
0
  11
22.1798
  21
4.77647
  31
0
  0
LINE
  8
0
  10
22.1798
  20
4.77647
  30
0
  11
22.05594
  21
4.82238
  31
0
  0
LINE
  8
0
  10
22.05594
  20
4.82238
  30
0
  11
21.93472
  21
4.87145
  31
0
  0
LINE
  8
0
  10
21.93472
  20
4.87145
  30
0
  11
21.81634
  21
4.92383
  31
0
  0
LINE
  8
0
  10
21.81634
  20
4.92383
  30
0
  11
21.70105
  21
4.97974
  31
0
  0
LINE
  8
0
  10
21.70105
  20
4.97974
  30
0
  11
21.5892
  21
5.03947
  31
0
  0
LINE
  8
0
  10
21.5892
  20
5.03947
  30
0
  11
21.4813
  21
5.10354
  31
0
  0
LINE
  8
0
  10
21.4813
  20
5.10354
  30
0
  11
21.37831
  21
5.17288
  31
0
  0
LINE
  8
0
  10
21.37831
  20
5.17288
  30
0
  11
21.27949
  21
5.24666
  31
0
  0
LINE
  8
0
  10
21.27949
  20
5.24666
  30
0
  11
21.1698
  21
5.30907
  31
0
  0
LINE
  8
0
  10
21.1698
  20
5.30907
  30
0
  11
21.13896
  21
5.32111
  31
0
  0
LINE
  8
0
  10
21.13896
  20
5.32111
  30
0
  11
21.10556
  21
5.33051
  31
0
  0
LINE
  8
0
  10
21.10556
  20
5.33051
  30
0
  11
21.06751
  21
5.33511
  31
0
  0
LINE
  8
0
  10
21.06751
  20
5.33511
  30
0
  11
21.00338
  21
5.31293
  31
0
  0
LINE
  8
0
  10
21.00338
  20
5.31293
  30
0
  11
20.11504
  21
4.49515
  31
0
  0
LINE
  8
0
  10
20.11504
  20
4.49515
  30
0
  11
20.08763
  21
4.43308
  31
0
  0
LINE
  8
0
  10
20.08763
  20
4.43308
  30
0
  11
20.08907
  21
4.39477
  31
0
  0
LINE
  8
0
  10
20.08907
  20
4.39477
  30
0
  11
20.09569
  21
4.36071
  31
0
  0
LINE
  8
0
  10
20.09569
  20
4.36071
  30
0
  11
20.10514
  21
4.32898
  31
0
  0
LINE
  8
0
  10
20.10514
  20
4.32898
  30
0
  11
20.15828
  21
4.21451
  31
0
  0
LINE
  8
0
  10
20.15828
  20
4.21451
  30
0
  11
20.22365
  21
4.10994
  31
0
  0
LINE
  8
0
  10
20.22365
  20
4.10994
  30
0
  11
20.28425
  21
4.00158
  31
0
  0
LINE
  8
0
  10
20.28425
  20
4.00158
  30
0
  11
20.33918
  21
3.88875
  31
0
  0
LINE
  8
0
  10
20.33918
  20
3.88875
  30
0
  11
20.38948
  21
3.77235
  31
0
  0
LINE
  8
0
  10
20.38948
  20
3.77235
  30
0
  11
20.43567
  21
3.65283
  31
0
  0
LINE
  8
0
  10
20.43567
  20
3.65283
  30
0
  11
20.4781
  21
3.53053
  31
0
  0
LINE
  8
0
  10
20.4781
  20
3.53053
  30
0
  11
20.51699
  21
3.40568
  31
0
  0
LINE
  8
0
  10
20.51699
  20
3.40568
  30
0
  11
20.55251
  21
3.27845
  31
0
  0
LINE
  8
0
  10
20.55251
  20
3.27845
  30
0
  11
20.58478
  21
3.149
  31
0
  0
LINE
  8
0
  10
20.58478
  20
3.149
  30
0
  11
20.61389
  21
3.01745
  31
0
  0
LINE
  8
0
  10
20.61389
  20
3.01745
  30
0
  11
20.63992
  21
2.88391
  31
0
  0
LINE
  8
0
  10
20.63992
  20
2.88391
  30
0
  11
20.66292
  21
2.74847
  31
0
  0
LINE
  8
0
  10
20.66292
  20
2.74847
  30
0
  11
20.68295
  21
2.61123
  31
0
  0
LINE
  8
0
  10
20.68295
  20
2.61123
  30
0
  11
20.70002
  21
2.47227
  31
0
  0
LINE
  8
0
  10
20.70002
  20
2.47227
  30
0
  11
19.67628
  21
1.80342
  31
0
  0
LINE
  8
0
  10
19.67628
  20
1.80342
  30
0
  11
19.55588
  21
1.87489
  31
0
  0
LINE
  8
0
  10
19.55588
  20
1.87489
  30
0
  11
19.43824
  21
1.94835
  31
0
  0
LINE
  8
0
  10
19.43824
  20
1.94835
  30
0
  11
19.32346
  21
2.02382
  31
0
  0
LINE
  8
0
  10
19.32346
  20
2.02382
  30
0
  11
19.21162
  21
2.1013
  31
0
  0
LINE
  8
0
  10
19.21162
  20
2.1013
  30
0
  11
19.10285
  21
2.1808
  31
0
  0
LINE
  8
0
  10
19.10285
  20
2.1808
  30
0
  11
18.99726
  21
2.26235
  31
0
  0
LINE
  8
0
  10
18.99726
  20
2.26235
  30
0
  11
18.89502
  21
2.34599
  31
0
  0
LINE
  8
0
  10
18.89502
  20
2.34599
  30
0
  11
18.7963
  21
2.43175
  31
0
  0
LINE
  8
0
  10
18.7963
  20
2.43175
  30
0
  11
18.70134
  21
2.51974
  31
0
  0
LINE
  8
0
  10
18.70134
  20
2.51974
  30
0
  11
18.61045
  21
2.61005
  31
0
  0
LINE
  8
0
  10
18.61045
  20
2.61005
  30
0
  11
18.52405
  21
2.70287
  31
0
  0
LINE
  8
0
  10
18.52405
  20
2.70287
  30
0
  11
18.4428
  21
2.7985
  31
0
  0
LINE
  8
0
  10
18.4428
  20
2.7985
  30
0
  11
18.36791
  21
2.89752
  31
0
  0
LINE
  8
0
  10
18.36791
  20
2.89752
  30
0
  11
18.2984
  21
2.99939
  31
0
  0
LINE
  8
0
  10
18.2984
  20
2.99939
  30
0
  11
18.21491
  21
3.09403
  31
0
  0
LINE
  8
0
  10
18.21491
  20
3.09403
  30
0
  11
18.18965
  21
3.11544
  31
0
  0
LINE
  8
0
  10
18.18965
  20
3.11544
  30
0
  11
18.16112
  21
3.13518
  31
0
  0
LINE
  8
0
  10
18.16112
  20
3.13518
  30
0
  11
18.12662
  21
3.15189
  31
0
  0
LINE
  8
0
  10
18.12662
  20
3.15189
  30
0
  11
18.05876
  21
3.15172
  31
0
  0
LINE
  8
0
  10
18.05876
  20
3.15172
  30
0
  11
16.95303
  21
2.6667
  31
0
  0
LINE
  8
0
  10
16.95303
  20
2.6667
  30
0
  11
16.90695
  21
2.61689
  31
0
  0
LINE
  8
0
  10
16.90695
  20
2.61689
  30
0
  11
16.89588
  21
2.58019
  31
0
  0
LINE
  8
0
  10
16.89588
  20
2.58019
  30
0
  11
16.89107
  21
2.54583
  31
0
  0
LINE
  8
0
  10
16.89107
  20
2.54583
  30
0
  11
16.88971
  21
2.51275
  31
0
  0
LINE
  8
0
  10
16.88971
  20
2.51275
  30
0
  11
16.9028
  21
2.38723
  31
0
  0
LINE
  8
0
  10
16.9028
  20
2.38723
  30
0
  11
16.93067
  21
2.26709
  31
0
  0
LINE
  8
0
  10
16.93067
  20
2.26709
  30
0
  11
16.9528
  21
2.14493
  31
0
  0
LINE
  8
0
  10
16.9528
  20
2.14493
  30
0
  11
16.96813
  21
2.02038
  31
0
  0
LINE
  8
0
  10
16.96813
  20
2.02038
  30
0
  11
16.9779
  21
1.89395
  31
0
  0
LINE
  8
0
  10
16.9779
  20
1.89395
  30
0
  11
16.98279
  21
1.76591
  31
0
  0
LINE
  8
0
  10
16.98279
  20
1.76591
  30
0
  11
16.98321
  21
1.63646
  31
0
  0
LINE
  8
0
  10
16.98321
  20
1.63646
  30
0
  11
16.97945
  21
1.50574
  31
0
  0
LINE
  8
0
  10
16.97945
  20
1.50574
  30
0
  11
16.97173
  21
1.37387
  31
0
  0
LINE
  8
0
  10
16.97173
  20
1.37387
  30
0
  11
16.96022
  21
1.24096
  31
0
  0
LINE
  8
0
  10
16.96022
  20
1.24096
  30
0
  11
16.94504
  21
1.10708
  31
0
  0
LINE
  8
0
  10
16.94504
  20
1.10708
  30
0
  11
16.9263
  21
0.97233
  31
0
  0
LINE
  8
0
  10
16.9263
  20
0.97233
  30
0
  11
16.90408
  21
0.83676
  31
0
  0
LINE
  8
0
  10
16.90408
  20
0.83676
  30
0
  11
16.87846
  21
0.70046
  31
0
  0
LINE
  8
0
  10
16.87846
  20
0.70046
  30
0
  11
16.84949
  21
0.56348
  31
0
  0
LINE
  8
0
  10
16.84949
  20
0.56348
  30
0
  11
15.66404
  21
0.26328
  31
0
  0
LINE
  8
0
  10
15.66404
  20
0.26328
  30
0
  11
15.57337
  21
0.36997
  31
0
  0
LINE
  8
0
  10
15.57337
  20
0.36997
  30
0
  11
15.48596
  21
0.47765
  31
0
  0
LINE
  8
0
  10
15.48596
  20
0.47765
  30
0
  11
15.4019
  21
0.5863
  31
0
  0
LINE
  8
0
  10
15.4019
  20
0.5863
  30
0
  11
15.32128
  21
0.69589
  31
0
  0
LINE
  8
0
  10
15.32128
  20
0.69589
  30
0
  11
15.24421
  21
0.80641
  31
0
  0
LINE
  8
0
  10
15.24421
  20
0.80641
  30
0
  11
15.17082
  21
0.91782
  31
0
  0
LINE
  8
0
  10
15.17082
  20
0.91782
  30
0
  11
15.10127
  21
1.03012
  31
0
  0
LINE
  8
0
  10
15.10127
  20
1.03012
  30
0
  11
15.03576
  21
1.1433
  31
0
  0
LINE
  8
0
  10
15.03576
  20
1.1433
  30
0
  11
14.97451
  21
1.25734
  31
0
  0
LINE
  8
0
  10
14.97451
  20
1.25734
  30
0
  11
14.91787
  21
1.37228
  31
0
  0
LINE
  8
0
  10
14.91787
  20
1.37228
  30
0
  11
14.86629
  21
1.48812
  31
0
  0
LINE
  8
0
  10
14.86629
  20
1.48812
  30
0
  11
14.82049
  21
1.60495
  31
0
  0
LINE
  8
0
  10
14.82049
  20
1.60495
  30
0
  11
14.78181
  21
1.72293
  31
0
  0
LINE
  8
0
  10
14.78181
  20
1.72293
  30
0
  11
14.74915
  21
1.84185
  31
0
  0
LINE
  8
0
  10
14.74915
  20
1.84185
  30
0
  11
14.70091
  21
1.95847
  31
0
  0
LINE
  8
0
  10
14.70091
  20
1.95847
  30
0
  11
14.68397
  21
1.98692
  31
0
  0
LINE
  8
0
  10
14.68397
  20
1.98692
  30
0
  11
14.66339
  21
2.01485
  31
0
  0
LINE
  8
0
  10
14.66339
  20
2.01485
  30
0
  11
14.63619
  21
2.04185
  31
0
  0
LINE
  8
0
  10
14.63619
  20
2.04185
  30
0
  11
14.57195
  21
2.06373
  31
0
  0
LINE
  8
0
  10
14.57195
  20
2.06373
  30
0
  11
13.36865
  21
1.96402
  31
0
  0
LINE
  8
0
  10
13.36865
  20
1.96402
  30
0
  11
13.30889
  21
1.93187
  31
0
  0
LINE
  8
0
  10
13.30889
  20
1.93187
  30
0
  11
13.2865
  21
1.90076
  31
0
  0
LINE
  8
0
  10
13.2865
  20
1.90076
  30
0
  11
13.2708
  21
1.86982
  31
0
  0
LINE
  8
0
  10
13.2708
  20
1.86982
  30
0
  11
13.25877
  21
1.83897
  31
0
  0
LINE
  8
0
  10
13.25877
  20
1.83897
  30
0
  11
13.23039
  21
1.716
  31
0
  0
LINE
  8
0
  10
13.23039
  20
1.716
  30
0
  11
13.21775
  21
1.59333
  31
0
  0
LINE
  8
0
  10
13.21775
  20
1.59333
  30
0
  11
13.19901
  21
1.47059
  31
0
  0
LINE
  8
0
  10
13.19901
  20
1.47059
  30
0
  11
13.17307
  21
1.34782
  31
0
  0
LINE
  8
0
  10
13.17307
  20
1.34782
  30
0
  11
13.14126
  21
1.22506
  31
0
  0
LINE
  8
0
  10
13.14126
  20
1.22506
  30
0
  11
13.10431
  21
1.10238
  31
0
  0
LINE
  8
0
  10
13.10431
  20
1.10238
  30
0
  11
13.06267
  21
0.9798
  31
0
  0
LINE
  8
0
  10
13.06267
  20
0.9798
  30
0
  11
13.01667
  21
0.85739
  31
0
  0
LINE
  8
0
  10
13.01667
  20
0.85739
  30
0
  11
12.96656
  21
0.73517
  31
0
  0
LINE
  8
0
  10
12.96656
  20
0.73517
  30
0
  11
12.91251
  21
0.6132
  31
0
  0
LINE
  8
0
  10
12.91251
  20
0.6132
  30
0
  11
12.85468
  21
0.4915
  31
0
  0
LINE
  8
0
  10
12.85468
  20
0.4915
  30
0
  11
12.7932
  21
0.37013
  31
0
  0
LINE
  8
0
  10
12.7932
  20
0.37013
  30
0
  11
12.72817
  21
0.24913
  31
0
  0
LINE
  8
0
  10
12.72817
  20
0.24913
  30
0
  11
12.65968
  21
0.12853
  31
0
  0
LINE
  8
0
  10
12.65968
  20
0.12853
  30
0
  11
12.5878
  21
0.00838
  31
0
  0
LINE
  8
0
  10
12.5878
  20
0.00838
  30
0
  11
11.36911
  21
0.10936
  31
0
  0
LINE
  8
0
  10
11.36911
  20
0.10936
  30
0
  11
11.31799
  21
0.23971
  31
0
  0
LINE
  8
0
  10
11.31799
  20
0.23971
  30
0
  11
11.27028
  21
0.36993
  31
0
  0
LINE
  8
0
  10
11.27028
  20
0.36993
  30
0
  11
11.22605
  21
0.49999
  31
0
  0
LINE
  8
0
  10
11.22605
  20
0.49999
  30
0
  11
11.18539
  21
0.62982
  31
0
  0
LINE
  8
0
  10
11.18539
  20
0.62982
  30
0
  11
11.14838
  21
0.75938
  31
0
  0
LINE
  8
0
  10
11.14838
  20
0.75938
  30
0
  11
11.11515
  21
0.88858
  31
0
  0
LINE
  8
0
  10
11.11515
  20
0.88858
  30
0
  11
11.08583
  21
1.01738
  31
0
  0
LINE
  8
0
  10
11.08583
  20
1.01738
  30
0
  11
11.06061
  21
1.1457
  31
0
  0
LINE
  8
0
  10
11.06061
  20
1.1457
  30
0
  11
11.03971
  21
1.27345
  31
0
  0
LINE
  8
0
  10
11.03971
  20
1.27345
  30
0
  11
11.02346
  21
1.40055
  31
0
  0
LINE
  8
0
  10
11.02346
  20
1.40055
  30
0
  11
11.01229
  21
1.52686
  31
0
  0
LINE
  8
0
  10
11.01229
  20
1.52686
  30
0
  11
11.0069
  21
1.65223
  31
0
  0
LINE
  8
0
  10
11.0069
  20
1.65223
  30
0
  11
11.00863
  21
1.77638
  31
0
  0
LINE
  8
0
  10
11.00863
  20
1.77638
  30
0
  11
11.01635
  21
1.89946
  31
0
  0
LINE
  8
0
  10
11.01635
  20
1.89946
  30
0
  11
11.00859
  21
2.02542
  31
0
  0
LINE
  8
0
  10
11.00859
  20
2.02542
  30
0
  11
11.00181
  21
2.05783
  31
0
  0
LINE
  8
0
  10
11.00181
  20
2.05783
  30
0
  11
10.99141
  21
2.09093
  31
0
  0
LINE
  8
0
  10
10.99141
  20
2.09093
  30
0
  11
10.97445
  21
2.12531
  31
0
  0
LINE
  8
0
  10
10.97445
  20
2.12531
  30
0
  11
10.9208
  21
2.16686
  31
0
  0
LINE
  8
0
  10
10.9208
  20
2.16686
  30
0
  11
9.75032
  21
2.46326
  31
0
  0
LINE
  8
0
  10
9.75032
  20
2.46326
  30
0
  11
9.68336
  21
2.45226
  31
0
  0
LINE
  8
0
  10
9.68336
  20
2.45226
  30
0
  11
9.65208
  21
2.4301
  31
0
  0
LINE
  8
0
  10
9.65208
  20
2.4301
  30
0
  11
9.62718
  21
2.40593
  31
0
  0
LINE
  8
0
  10
9.62718
  20
2.40593
  30
0
  11
9.60579
  21
2.38066
  31
0
  0
LINE
  8
0
  10
9.60579
  20
2.38066
  30
0
  11
9.53902
  21
2.27357
  31
0
  0
LINE
  8
0
  10
9.53902
  20
2.27357
  30
0
  11
9.48723
  21
2.16165
  31
0
  0
LINE
  8
0
  10
9.48723
  20
2.16165
  30
0
  11
9.42966
  21
2.05165
  31
0
  0
LINE
  8
0
  10
9.42966
  20
2.05165
  30
0
  11
9.36525
  21
1.94395
  31
0
  0
LINE
  8
0
  10
9.36525
  20
1.94395
  30
0
  11
9.29531
  21
1.83817
  31
0
  0
LINE
  8
0
  10
9.29531
  20
1.83817
  30
0
  11
9.22052
  21
1.73413
  31
0
  0
LINE
  8
0
  10
9.22052
  20
1.73413
  30
0
  11
9.14134
  21
1.63172
  31
0
  0
LINE
  8
0
  10
9.14134
  20
1.63172
  30
0
  11
9.05809
  21
1.53087
  31
0
  0
LINE
  8
0
  10
9.05809
  20
1.53087
  30
0
  11
8.971
  21
1.43155
  31
0
  0
LINE
  8
0
  10
8.971
  20
1.43155
  30
0
  11
8.88028
  21
1.33374
  31
0
  0
LINE
  8
0
  10
8.88028
  20
1.33374
  30
0
  11
8.78607
  21
1.23741
  31
0
  0
LINE
  8
0
  10
8.78607
  20
1.23741
  30
0
  11
8.68852
  21
1.14258
  31
0
  0
LINE
  8
0
  10
8.68852
  20
1.14258
  30
0
  11
8.58772
  21
1.04925
  31
0
  0
LINE
  8
0
  10
8.58772
  20
1.04925
  30
0
  11
8.48378
  21
0.95743
  31
0
  0
LINE
  8
0
  10
8.48378
  20
0.95743
  30
0
  11
8.37678
  21
0.86712
  31
0
  0
LINE
  8
0
  10
8.37678
  20
0.86712
  30
0
  11
7.25691
  21
1.35834
  31
0
  0
LINE
  8
0
  10
7.25691
  20
1.35834
  30
0
  11
7.25088
  21
1.49822
  31
0
  0
LINE
  8
0
  10
7.25088
  20
1.49822
  30
0
  11
7.24805
  21
1.63689
  31
0
  0
LINE
  8
0
  10
7.24805
  20
1.63689
  30
0
  11
7.24844
  21
1.77426
  31
0
  0
LINE
  8
0
  10
7.24844
  20
1.77426
  30
0
  11
7.25214
  21
1.91026
  31
0
  0
LINE
  8
0
  10
7.25214
  20
1.91026
  30
0
  11
7.2592
  21
2.04481
  31
0
  0
LINE
  8
0
  10
7.2592
  20
2.04481
  30
0
  11
7.26972
  21
2.1778
  31
0
  0
LINE
  8
0
  10
7.26972
  20
2.1778
  30
0
  11
7.28381
  21
2.30914
  31
0
  0
LINE
  8
0
  10
7.28381
  20
2.30914
  30
0
  11
7.30162
  21
2.4387
  31
0
  0
LINE
  8
0
  10
7.30162
  20
2.4387
  30
0
  11
7.32334
  21
2.56631
  31
0
  0
LINE
  8
0
  10
7.32334
  20
2.56631
  30
0
  11
7.34924
  21
2.6918
  31
0
  0
LINE
  8
0
  10
7.34924
  20
2.6918
  30
0
  11
7.37969
  21
2.8149
  31
0
  0
LINE
  8
0
  10
7.37969
  20
2.8149
  30
0
  11
7.4153
  21
2.93523
  31
0
  0
LINE
  8
0
  10
7.4153
  20
2.93523
  30
0
  11
7.45724
  21
3.05208
  31
0
  0
LINE
  8
0
  10
7.45724
  20
3.05208
  30
0
  11
7.50451
  21
3.16599
  31
0
  0
LINE
  8
0
  10
7.50451
  20
3.16599
  30
0
  11
7.53807
  21
3.28765
  31
0
  0
LINE
  8
0
  10
7.53807
  20
3.28765
  30
0
  11
7.54218
  21
3.3205
  31
0
  0
LINE
  8
0
  10
7.54218
  20
3.3205
  30
0
  11
7.5431
  21
3.35518
  31
0
  0
LINE
  8
0
  10
7.5431
  20
3.35518
  30
0
  11
7.53821
  21
3.3932
  31
0
  0
LINE
  8
0
  10
7.53821
  20
3.3932
  30
0
  11
7.50096
  21
3.44992
  31
0
  0
LINE
  8
0
  10
7.50096
  20
3.44992
  30
0
  11
6.49014
  21
4.11033
  31
0
  0
LINE
  8
0
  10
6.49014
  20
4.11033
  30
0
  11
6.42323
  21
4.12166
  31
0
  0
LINE
  8
0
  10
6.42323
  20
4.12166
  30
0
  11
6.38646
  21
4.11085
  31
0
  0
LINE
  8
0
  10
6.38646
  20
4.11085
  30
0
  11
6.35506
  21
4.09608
  31
0
  0
LINE
  8
0
  10
6.35506
  20
4.09608
  30
0
  11
6.32662
  21
4.07913
  31
0
  0
LINE
  8
0
  10
6.32662
  20
4.07913
  30
0
  11
6.2287
  21
3.99952
  31
0
  0
LINE
  8
0
  10
6.2287
  20
3.99952
  30
0
  11
6.14337
  21
3.91048
  31
0
  0
LINE
  8
0
  10
6.14337
  20
3.91048
  30
0
  11
6.0532
  21
3.82513
  31
0
  0
LINE
  8
0
  10
6.0532
  20
3.82513
  30
0
  11
5.95732
  21
3.74418
  31
0
  0
LINE
  8
0
  10
5.95732
  20
3.74418
  30
0
  11
5.85682
  21
3.66685
  31
0
  0
LINE
  8
0
  10
5.85682
  20
3.66685
  30
0
  11
5.7523
  21
3.59273
  31
0
  0
LINE
  8
0
  10
5.7523
  20
3.59273
  30
0
  11
5.64416
  21
3.52157
  31
0
  0
LINE
  8
0
  10
5.64416
  20
3.52157
  30
0
  11
5.53267
  21
3.45322
  31
0
  0
LINE
  8
0
  10
5.53267
  20
3.45322
  30
0
  11
5.41806
  21
3.38756
  31
0
  0
LINE
  8
0
  10
5.41806
  20
3.38756
  30
0
  11
5.30049
  21
3.3245
  31
0
  0
LINE
  8
0
  10
5.30049
  20
3.3245
  30
0
  11
5.18011
  21
3.26398
  31
0
  0
LINE
  8
0
  10
5.18011
  20
3.26398
  30
0
  11
5.05705
  21
3.20597
  31
0
  0
LINE
  8
0
  10
5.05705
  20
3.20597
  30
0
  11
4.93141
  21
3.15042
  31
0
  0
LINE
  8
0
  10
4.93141
  20
3.15042
  30
0
  11
4.80328
  21
3.09732
  31
0
  0
LINE
  8
0
  10
4.80328
  20
3.09732
  30
0
  11
4.67276
  21
3.04665
  31
0
  0
LINE
  8
0
  10
4.67276
  20
3.04665
  30
0
  11
3.77307
  21
3.87488
  31
0
  0
LINE
  8
0
  10
3.77307
  20
3.87488
  30
0
  11
3.81279
  21
4.00914
  31
0
  0
LINE
  8
0
  10
3.81279
  20
4.00914
  30
0
  11
3.85512
  21
4.14121
  31
0
  0
LINE
  8
0
  10
3.85512
  20
4.14121
  30
0
  11
3.90011
  21
4.27101
  31
0
  0
LINE
  8
0
  10
3.90011
  20
4.27101
  30
0
  11
3.94776
  21
4.39844
  31
0
  0
LINE
  8
0
  10
3.94776
  20
4.39844
  30
0
  11
3.99813
  21
4.52341
  31
0
  0
LINE
  8
0
  10
3.99813
  20
4.52341
  30
0
  11
4.05126
  21
4.64578
  31
0
  0
LINE
  8
0
  10
4.05126
  20
4.64578
  30
0
  11
4.10724
  21
4.76543
  31
0
  0
LINE
  8
0
  10
4.10724
  20
4.76543
  30
0
  11
4.16615
  21
4.88218
  31
0
  0
LINE
  8
0
  10
4.16615
  20
4.88218
  30
0
  11
4.22813
  21
4.99583
  31
0
  0
LINE
  8
0
  10
4.22813
  20
4.99583
  30
0
  11
4.29336
  21
5.10611
  31
0
  0
LINE
  8
0
  10
4.29336
  20
5.10611
  30
0
  11
4.36213
  21
5.21265
  31
0
  0
LINE
  8
0
  10
4.36213
  20
5.21265
  30
0
  11
4.43489
  21
5.31489
  31
0
  0
LINE
  8
0
  10
4.43489
  20
5.31489
  30
0
  11
4.5125
  21
5.4118
  31
0
  0
LINE
  8
0
  10
4.5125
  20
5.4118
  30
0
  11
4.59419
  21
5.50419
  31
0
  0
LINE
  8
0
  10
4.59419
  20
5.50419
  30
0
  11
4.66544
  21
5.60835
  31
0
  0
LINE
  8
0
  10
4.66544
  20
5.60835
  30
0
  11
4.67999
  21
5.6381
  31
0
  0
LINE
  8
0
  10
4.67999
  20
5.6381
  30
0
  11
4.69212
  21
5.6706
  31
0
  0
LINE
  8
0
  10
4.69212
  20
5.6706
  30
0
  11
4.69985
  21
5.70815
  31
0
  0
LINE
  8
0
  10
4.69985
  20
5.70815
  30
0
  11
4.68303
  21
5.77389
  31
0
  0
LINE
  8
0
  10
4.68303
  20
5.77389
  30
0
  11
3.94141
  21
6.72672
  31
0
  0
LINE
  8
0
  10
3.94141
  20
6.72672
  30
0
  11
3.88181
  21
6.75916
  31
0
  0
LINE
  8
0
  10
3.88181
  20
6.75916
  30
0
  11
3.84352
  21
6.76089
  31
0
  0
LINE
  8
0
  10
3.84352
  20
6.76089
  30
0
  11
3.80903
  21
6.75711
  31
0
  0
LINE
  8
0
  10
3.80903
  20
6.75711
  30
0
  11
3.77662
  21
6.75031
  31
0
  0
LINE
  8
0
  10
3.77662
  20
6.75031
  30
0
  11
3.65816
  21
6.70681
  31
0
  0
LINE
  8
0
  10
3.65816
  20
6.70681
  30
0
  11
3.54854
  21
6.65029
  31
0
  0
LINE
  8
0
  10
3.54854
  20
6.65029
  30
0
  11
3.43554
  21
6.59885
  31
0
  0
LINE
  8
0
  10
3.43554
  20
6.59885
  30
0
  11
3.31857
  21
6.55342
  31
0
  0
LINE
  8
0
  10
3.31857
  20
6.55342
  30
0
  11
3.19841
  21
6.51291
  31
0
  0
LINE
  8
0
  10
3.19841
  20
6.51291
  30
0
  11
3.07549
  21
6.47674
  31
0
  0
LINE
  8
0
  10
3.07549
  20
6.47674
  30
0
  11
2.9501
  21
6.44456
  31
0
  0
LINE
  8
0
  10
2.9501
  20
6.44456
  30
0
  11
2.82246
  21
6.41611
  31
0
  0
LINE
  8
0
  10
2.82246
  20
6.41611
  30
0
  11
2.69273
  21
6.39122
  31
0
  0
LINE
  8
0
  10
2.69273
  20
6.39122
  30
0
  11
2.56106
  21
6.36975
  31
0
  0
LINE
  8
0
  10
2.56106
  20
6.36975
  30
0
  11
2.42755
  21
6.3516
  31
0
  0
LINE
  8
0
  10
2.42755
  20
6.3516
  30
0
  11
2.29232
  21
6.33669
  31
0
  0
LINE
  8
0
  10
2.29232
  20
6.33669
  30
0
  11
2.15545
  21
6.32495
  31
0
  0
LINE
  8
0
  10
2.15545
  20
6.32495
  30
0
  11
2.01703
  21
6.31633
  31
0
  0
LINE
  8
0
  10
2.01703
  20
6.31633
  30
0
  11
1.87712
  21
6.31078
  31
0
  0
LINE
  8
0
  10
1.87712
  20
6.31078
  30
0
  11
1.2951
  21
7.38626
  31
0
  0
LINE
  8
0
  10
1.2951
  20
7.38626
  30
0
  11
1.37627
  21
7.50035
  31
0
  0
LINE
  8
0
  10
1.37627
  20
7.50035
  30
0
  11
1.45919
  21
7.61152
  31
0
  0
LINE
  8
0
  10
1.45919
  20
7.61152
  30
0
  11
1.54388
  21
7.71968
  31
0
  0
LINE
  8
0
  10
1.54388
  20
7.71968
  30
0
  11
1.63033
  21
7.82474
  31
0
  0
LINE
  8
0
  10
1.63033
  20
7.82474
  30
0
  11
1.71855
  21
7.92658
  31
0
  0
LINE
  8
0
  10
1.71855
  20
7.92658
  30
0
  11
1.80854
  21
8.02507
  31
0
  0
LINE
  8
0
  10
1.80854
  20
8.02507
  30
0
  11
1.90033
  21
8.12006
  31
0
  0
LINE
  8
0
  10
1.90033
  20
8.12006
  30
0
  11
1.99396
  21
8.21135
  31
0
  0
LINE
  8
0
  10
1.99396
  20
8.21135
  30
0
  11
2.08948
  21
8.29872
  31
0
  0
LINE
  8
0
  10
2.08948
  20
8.29872
  30
0
  11
2.18699
  21
8.38184
  31
0
  0
LINE
  8
0
  10
2.18699
  20
8.38184
  30
0
  11
2.28663
  21
8.46028
  31
0
  0
LINE
  8
0
  10
2.28663
  20
8.46028
  30
0
  11
2.38864
  21
8.53336
  31
0
  0
LINE
  8
0
  10
2.38864
  20
8.53336
  30
0
  11
2.49351
  21
8.59982
  31
0
  0
LINE
  8
0
  10
2.49351
  20
8.59982
  30
0
  11
2.60078
  21
8.66067
  31
0
  0
LINE
  8
0
  10
2.60078
  20
8.66067
  30
0
  11
2.70199
  21
8.73606
  31
0
  0
LINE
  8
0
  10
2.70199
  20
8.73606
  30
0
  11
2.72541
  21
8.75947
  31
0
  0
LINE
  8
0
  10
2.72541
  20
8.75947
  30
0
  11
2.74743
  21
8.78627
  31
0
  0
LINE
  8
0
  10
2.74743
  20
8.78627
  30
0
  11
2.76693
  21
8.81927
  31
0
  0
LINE
  8
0
  10
2.76693
  20
8.81927
  30
0
  11
2.77237
  21
8.88691
  31
0
  0
LINE
  8
0
  10
2.77237
  20
8.88691
  30
0
  11
2.38032
  21
10.02893
  31
0
  0
LINE
  8
0
  10
2.38032
  20
10.02893
  30
0
  11
2.33448
  21
10.07896
  31
0
  0
LINE
  8
0
  10
2.33448
  20
10.07896
  30
0
  11
2.29882
  21
10.09303
  31
0
  0
LINE
  8
0
  10
2.29882
  20
10.09303
  30
0
  11
2.26498
  21
10.10065
  31
0
  0
LINE
  8
0
  10
2.26498
  20
10.10065
  30
0
  11
2.23212
  21
10.10474
  31
0
  0
LINE
  8
0
  10
2.23212
  20
10.10474
  30
0
  11
2.10595
  21
10.10206
  31
0
  0
LINE
  8
0
  10
2.10595
  20
10.10206
  30
0
  11
1.98392
  21
10.0842
  31
0
  0
LINE
  8
0
  10
1.98392
  20
10.0842
  30
0
  11
1.86034
  21
10.07224
  31
0
  0
LINE
  8
0
  10
1.86034
  20
10.07224
  30
0
  11
1.73496
  21
10.06725
  31
0
  0
LINE
  8
0
  10
1.73496
  20
10.06725
  30
0
  11
1.60815
  21
10.06795
  31
0
  0
LINE
  8
0
  10
1.60815
  20
10.06795
  30
0
  11
1.48015
  21
10.07365
  31
0
  0
LINE
  8
0
  10
1.48015
  20
10.07365
  30
0
  11
1.3511
  21
10.08393
  31
0
  0
LINE
  8
0
  10
1.3511
  20
10.08393
  30
0
  11
1.22114
  21
10.09847
  31
0
  0
LINE
  8
0
  10
1.22114
  20
10.09847
  30
0
  11
1.09036
  21
10.11705
  31
0
  0
LINE
  8
0
  10
1.09036
  20
10.11705
  30
0
  11
0.95885
  21
10.1395
  31
0
  0
LINE
  8
0
  10
0.95885
  20
10.1395
  30
0
  11
0.82669
  21
10.16568
  31
0
  0
LINE
  8
0
  10
0.82669
  20
10.16568
  30
0
  11
0.69394
  21
10.19548
  31
0
  0
LINE
  8
0
  10
0.69394
  20
10.19548
  30
0
  11
0.56067
  21
10.22882
  31
0
  0
LINE
  8
0
  10
0.56067
  20
10.22882
  30
0
  11
0.42695
  21
10.26561
  31
0
  0
LINE
  8
0
  10
0.42695
  20
10.26561
  30
0
  11
0.29283
  21
10.3058
  31
0
  0
LINE
  8
0
  10
0.29283
  20
10.3058
  30
0
  11
0.09155
  21
11.51198
  31
0
  0
LINE
  8
0
  10
0.09155
  20
11.51198
  30
0
  11
0.20536
  21
11.59354
  31
0
  0
LINE
  8
0
  10
0.20536
  20
11.59354
  30
0
  11
0.31989
  21
11.67176
  31
0
  0
LINE
  8
0
  10
0.31989
  20
11.67176
  30
0
  11
0.43511
  21
11.74656
  31
0
  0
LINE
  8
0
  10
0.43511
  20
11.74656
  30
0
  11
0.55099
  21
11.81785
  31
0
  0
LINE
  8
0
  10
0.55099
  20
11.81785
  30
0
  11
0.66749
  21
11.88553
  31
0
  0
LINE
  8
0
  10
0.66749
  20
11.88553
  30
0
  11
0.78458
  21
11.94946
  31
0
  0
LINE
  8
0
  10
0.78458
  20
11.94946
  30
0
  11
0.90224
  21
12.0095
  31
0
  0
LINE
  8
0
  10
0.90224
  20
12.0095
  30
0
  11
1.02044
  21
12.06545
  31
0
  0
LINE
  8
0
  10
1.02044
  20
12.06545
  30
0
  11
1.13916
  21
12.11707
  31
0
  0
LINE
  8
0
  10
1.13916
  20
12.11707
  30
0
  11
1.25838
  21
12.16403
  31
0
  0
LINE
  8
0
  10
1.25838
  20
12.16403
  30
0
  11
1.37808
  21
12.20586
  31
0
  0
LINE
  8
0
  10
1.37808
  20
12.20586
  30
0
  11
1.4983
  21
12.24186
  31
0
  0
LINE
  8
0
  10
1.4983
  20
12.24186
  30
0
  11
1.61907
  21
12.27067
  31
0
  0
LINE
  8
0
  10
1.61907
  20
12.27067
  30
0
  11
1.74028
  21
12.29339
  31
0
  0
LINE
  8
0
  10
1.74028
  20
12.29339
  30
0
  11
1.86048
  21
12.33183
  31
0
  0
LINE
  8
0
  10
1.86048
  20
12.33183
  30
0
  11
1.89023
  21
12.34637
  31
0
  0
LINE
  8
0
  10
1.89023
  20
12.34637
  30
0
  11
1.91977
  21
12.36457
  31
0
  0
LINE
  8
0
  10
1.91977
  20
12.36457
  30
0
  11
1.94893
  21
12.38945
  31
0
  0
LINE
  8
0
  10
1.94893
  20
12.38945
  30
0
  11
1.97604
  21
12.45166
  31
0
  0
LINE
  8
0
  10
1.97604
  20
12.45166
  30
0
  11
1.97604
  21
13.65909
  31
0
  0
LINE
  8
0
  10
13.55538
  20
13.05538
  30
0
  11
13.55538
  21
13.05538
  31
0
  0
LINE
  8
0
  10
13.55538
  20
13.05538
  30
0
  11
13.53834
  21
13.18479
  31
0
  0
LINE
  8
0
  10
13.53834
  20
13.18479
  30
0
  11
13.48839
  21
13.30538
  31
0
  0
LINE
  8
0
  10
13.48839
  20
13.30538
  30
0
  11
13.40893
  21
13.40893
  31
0
  0
LINE
  8
0
  10
13.40893
  20
13.40893
  30
0
  11
13.30538
  21
13.48839
  31
0
  0
LINE
  8
0
  10
13.30538
  20
13.48839
  30
0
  11
13.18479
  21
13.53834
  31
0
  0
LINE
  8
0
  10
13.18479
  20
13.53834
  30
0
  11
13.05538
  21
13.55538
  31
0
  0
LINE
  8
0
  10
13.05538
  20
13.55538
  30
0
  11
12.92597
  21
13.53834
  31
0
  0
LINE
  8
0
  10
12.92597
  20
13.53834
  30
0
  11
12.80538
  21
13.48839
  31
0
  0
LINE
  8
0
  10
12.80538
  20
13.48839
  30
0
  11
12.70182
  21
13.40893
  31
0
  0
LINE
  8
0
  10
12.70182
  20
13.40893
  30
0
  11
12.62236
  21
13.30538
  31
0
  0
LINE
  8
0
  10
12.62236
  20
13.30538
  30
0
  11
12.57241
  21
13.18479
  31
0
  0
LINE
  8
0
  10
12.57241
  20
13.18479
  30
0
  11
12.55538
  21
13.05538
  31
0
  0
LINE
  8
0
  10
12.55538
  20
13.05538
  30
0
  11
12.57241
  21
12.92597
  31
0
  0
LINE
  8
0
  10
12.57241
  20
12.92597
  30
0
  11
12.62236
  21
12.80538
  31
0
  0
LINE
  8
0
  10
12.62236
  20
12.80538
  30
0
  11
12.70182
  21
12.70182
  31
0
  0
LINE
  8
0
  10
12.70182
  20
12.70182
  30
0
  11
12.80538
  21
12.62236
  31
0
  0
LINE
  8
0
  10
12.80538
  20
12.62236
  30
0
  11
12.92597
  21
12.57241
  31
0
  0
LINE
  8
0
  10
12.92597
  20
12.57241
  30
0
  11
13.05538
  21
12.55538
  31
0
  0
LINE
  8
0
  10
13.05538
  20
12.55538
  30
0
  11
13.18479
  21
12.57241
  31
0
  0
LINE
  8
0
  10
13.18479
  20
12.57241
  30
0
  11
13.30538
  21
12.62236
  31
0
  0
LINE
  8
0
  10
13.30538
  20
12.62236
  30
0
  11
13.40893
  21
12.70182
  31
0
  0
LINE
  8
0
  10
13.40893
  20
12.70182
  30
0
  11
13.48839
  21
12.80538
  31
0
  0
LINE
  8
0
  10
13.48839
  20
12.80538
  30
0
  11
13.53834
  21
12.92597
  31
0
  0
LINE
  8
0
  10
13.53834
  20
12.92597
  30
0
  11
13.55538
  21
13.05538
  31
0
  0
LINE
  8
0
  10
13.55538
  20
13.05538
  30
0
  11
13.55538
  21
13.05538
  31
0
  0
LINE
  8
0
  10
2.11093
  20
14.88168
  30
0
  11
0.17806
  21
15.20422
  31
0
  0
LINE
  8
0
  10
3.29693
  20
18.33638
  30
0
  11
1.57352
  21
19.26905
  31
0
  0
LINE
  8
0
  10
5.54041
  20
21.2188
  30
0
  11
4.21321
  21
22.66053
  31
0
  0
LINE
  8
0
  10
8.59825
  20
23.21659
  30
0
  11
7.81109
  21
25.01114
  31
0
  0
LINE
  8
0
  10
12.13909
  20
24.11325
  30
0
  11
11.97727
  21
26.06616
  31
0
  0
LINE
  8
0
  10
15.77923
  20
23.81162
  30
0
  11
16.26028
  21
25.71126
  31
0
  0
LINE
  8
0
  10
19.12419
  20
22.34439
  30
0
  11
20.19599
  21
23.9849
  31
0
  0
LINE
  8
0
  10
21.8115
  20
19.87054
  30
0
  11
23.3579
  21
21.07415
  31
0
  0
LINE
  8
0
  10
23.54995
  20
16.65817
  30
0
  11
25.40338
  21
17.29445
  31
0
  0
LINE
  8
0
  10
24.15115
  20
13.05538
  30
0
  11
26.11075
  21
13.05538
  31
0
  0
LINE
  8
0
  10
23.54995
  20
9.45258
  30
0
  11
25.40338
  21
8.8163
  31
0
  0
LINE
  8
0
  10
21.8115
  20
6.24021
  30
0
  11
23.3579
  21
5.0366
  31
0
  0
LINE
  8
0
  10
19.12419
  20
3.76636
  30
0
  11
20.19599
  21
2.12585
  31
0
  0
LINE
  8
0
  10
15.77923
  20
2.29913
  30
0
  11
16.26028
  21
0.39949
  31
0
  0
LINE
  8
0
  10
12.13909
  20
1.9975
  30
0
  11
11.97727
  21
0.04459
  31
0
  0
LINE
  8
0
  10
8.59825
  20
2.89416
  30
0
  11
7.81109
  21
1.09961
  31
0
  0
LINE
  8
0
  10
5.54041
  20
4.89195
  30
0
  11
4.21321
  21
3.45022
  31
0
  0
LINE
  8
0
  10
3.29693
  20
7.77437
  30
0
  11
1.57352
  21
6.8417
  31
0
  0
LINE
  8
0
  10
2.11093
  20
11.22907
  30
0
  11
0.17806
  21
10.90653
  31
0
  0
LINE
  8
0
  10
25.15115
  20
13.05538
  30
0
  11
25.15115
  21
13.05538
  31
0
  0
LINE
  8
0
  10
25.15115
  20
13.05538
  30
0
  11
25.12728
  21
13.81488
  31
0
  0
LINE
  8
0
  10
25.12728
  20
13.81488
  30
0
  11
25.05577
  21
14.57138
  31
0
  0
LINE
  8
0
  10
25.05577
  20
14.57138
  30
0
  11
24.9369
  21
15.3219
  31
0
  0
LINE
  8
0
  10
24.9369
  20
15.3219
  30
0
  11
24.77114
  21
16.06347
  31
0
  0
LINE
  8
0
  10
24.77114
  20
16.06347
  30
0
  11
24.55914
  21
16.79318
  31
0
  0
LINE
  8
0
  10
24.55914
  20
16.79318
  30
0
  11
24.30174
  21
17.50813
  31
0
  0
LINE
  8
0
  10
24.30174
  20
17.50813
  30
0
  11
23.99996
  21
18.20551
  31
0
  0
LINE
  8
0
  10
23.99996
  20
18.20551
  30
0
  11
23.65498
  21
18.88256
  31
0
  0
LINE
  8
0
  10
23.65498
  20
18.88256
  30
0
  11
23.26818
  21
19.53662
  31
0
  0
LINE
  8
0
  10
23.26818
  20
19.53662
  30
0
  11
22.84106
  21
20.16509
  31
0
  0
LINE
  8
0
  10
22.84106
  20
20.16509
  30
0
  11
22.37533
  21
20.76551
  31
0
  0
LINE
  8
0
  10
22.37533
  20
20.76551
  30
0
  11
21.87282
  21
21.3355
  31
0
  0
LINE
  8
0
  10
21.87282
  20
21.3355
  30
0
  11
21.3355
  21
21.87282
  31
0
  0
LINE
  8
0
  10
21.3355
  20
21.87282
  30
0
  11
20.76551
  21
22.37533
  31
0
  0
LINE
  8
0
  10
20.76551
  20
22.37533
  30
0
  11
20.16509
  21
22.84106
  31
0
  0
LINE
  8
0
  10
20.16509
  20
22.84106
  30
0
  11
19.53662
  21
23.26818
  31
0
  0
LINE
  8
0
  10
19.53662
  20
23.26818
  30
0
  11
18.88256
  21
23.65498
  31
0
  0
LINE
  8
0
  10
18.88256
  20
23.65498
  30
0
  11
18.20551
  21
23.99996
  31
0
  0
LINE
  8
0
  10
18.20551
  20
23.99996
  30
0
  11
17.50813
  21
24.30174
  31
0
  0
LINE
  8
0
  10
17.50813
  20
24.30174
  30
0
  11
16.79318
  21
24.55914
  31
0
  0
LINE
  8
0
  10
16.79318
  20
24.55914
  30
0
  11
16.06347
  21
24.77114
  31
0
  0
LINE
  8
0
  10
16.06347
  20
24.77114
  30
0
  11
15.3219
  21
24.9369
  31
0
  0
LINE
  8
0
  10
15.3219
  20
24.9369
  30
0
  11
14.57138
  21
25.05577
  31
0
  0
LINE
  8
0
  10
14.57138
  20
25.05577
  30
0
  11
13.81488
  21
25.12728
  31
0
  0
LINE
  8
0
  10
13.81488
  20
25.12728
  30
0
  11
13.05538
  21
25.15115
  31
0
  0
LINE
  8
0
  10
13.05538
  20
25.15115
  30
0
  11
12.29588
  21
25.12728
  31
0
  0
LINE
  8
0
  10
12.29588
  20
25.12728
  30
0
  11
11.53937
  21
25.05577
  31
0
  0
LINE
  8
0
  10
11.53937
  20
25.05577
  30
0
  11
10.78885
  21
24.9369
  31
0
  0
LINE
  8
0
  10
10.78885
  20
24.9369
  30
0
  11
10.04728
  21
24.77114
  31
0
  0
LINE
  8
0
  10
10.04728
  20
24.77114
  30
0
  11
9.31758
  21
24.55914
  31
0
  0
LINE
  8
0
  10
9.31758
  20
24.55914
  30
0
  11
8.60262
  21
24.30174
  31
0
  0
LINE
  8
0
  10
8.60262
  20
24.30174
  30
0
  11
7.90524
  21
23.99996
  31
0
  0
LINE
  8
0
  10
7.90524
  20
23.99996
  30
0
  11
7.22819
  21
23.65498
  31
0
  0
LINE
  8
0
  10
7.22819
  20
23.65498
  30
0
  11
6.57413
  21
23.26818
  31
0
  0
LINE
  8
0
  10
6.57413
  20
23.26818
  30
0
  11
5.94566
  21
22.84106
  31
0
  0
LINE
  8
0
  10
5.94566
  20
22.84106
  30
0
  11
5.34524
  21
22.37533
  31
0
  0
LINE
  8
0
  10
5.34524
  20
22.37533
  30
0
  11
4.77525
  21
21.87282
  31
0
  0
LINE
  8
0
  10
4.77525
  20
21.87282
  30
0
  11
4.23793
  21
21.3355
  31
0
  0
LINE
  8
0
  10
4.23793
  20
21.3355
  30
0
  11
3.73542
  21
20.76551
  31
0
  0
LINE
  8
0
  10
3.73542
  20
20.76551
  30
0
  11
3.26969
  21
20.16509
  31
0
  0
LINE
  8
0
  10
3.26969
  20
20.16509
  30
0
  11
2.84257
  21
19.53662
  31
0
  0
LINE
  8
0
  10
2.84257
  20
19.53662
  30
0
  11
2.45577
  21
18.88256
  31
0
  0
LINE
  8
0
  10
2.45577
  20
18.88256
  30
0
  11
2.11079
  21
18.20551
  31
0
  0
LINE
  8
0
  10
2.11079
  20
18.20551
  30
0
  11
1.80901
  21
17.50813
  31
0
  0
LINE
  8
0
  10
1.80901
  20
17.50813
  30
0
  11
1.55161
  21
16.79318
  31
0
  0
LINE
  8
0
  10
1.55161
  20
16.79318
  30
0
  11
1.33961
  21
16.06347
  31
0
  0
LINE
  8
0
  10
1.33961
  20
16.06347
  30
0
  11
1.17385
  21
15.3219
  31
0
  0
LINE
  8
0
  10
1.17385
  20
15.3219
  30
0
  11
1.05498
  21
14.57138
  31
0
  0
LINE
  8
0
  10
1.05498
  20
14.57138
  30
0
  11
0.98347
  21
13.81488
  31
0
  0
LINE
  8
0
  10
0.98347
  20
13.81488
  30
0
  11
0.9596
  21
13.05538
  31
0
  0
LINE
  8
0
  10
0.9596
  20
13.05538
  30
0
  11
0.98347
  21
12.29588
  31
0
  0
LINE
  8
0
  10
0.98347
  20
12.29588
  30
0
  11
1.05498
  21
11.53937
  31
0
  0
LINE
  8
0
  10
1.05498
  20
11.53937
  30
0
  11
1.17385
  21
10.78885
  31
0
  0
LINE
  8
0
  10
1.17385
  20
10.78885
  30
0
  11
1.33961
  21
10.04728
  31
0
  0
LINE
  8
0
  10
1.33961
  20
10.04728
  30
0
  11
1.55161
  21
9.31758
  31
0
  0
LINE
  8
0
  10
1.55161
  20
9.31758
  30
0
  11
1.80901
  21
8.60262
  31
0
  0
LINE
  8
0
  10
1.80901
  20
8.60262
  30
0
  11
2.11079
  21
7.90524
  31
0
  0
LINE
  8
0
  10
2.11079
  20
7.90524
  30
0
  11
2.45577
  21
7.22819
  31
0
  0
LINE
  8
0
  10
2.45577
  20
7.22819
  30
0
  11
2.84257
  21
6.57413
  31
0
  0
LINE
  8
0
  10
2.84257
  20
6.57413
  30
0
  11
3.26969
  21
5.94566
  31
0
  0
LINE
  8
0
  10
3.26969
  20
5.94566
  30
0
  11
3.73542
  21
5.34524
  31
0
  0
LINE
  8
0
  10
3.73542
  20
5.34524
  30
0
  11
4.23793
  21
4.77525
  31
0
  0
LINE
  8
0
  10
4.23793
  20
4.77525
  30
0
  11
4.77525
  21
4.23793
  31
0
  0
LINE
  8
0
  10
4.77525
  20
4.23793
  30
0
  11
5.34524
  21
3.73542
  31
0
  0
LINE
  8
0
  10
5.34524
  20
3.73542
  30
0
  11
5.94566
  21
3.26969
  31
0
  0
LINE
  8
0
  10
5.94566
  20
3.26969
  30
0
  11
6.57413
  21
2.84257
  31
0
  0
LINE
  8
0
  10
6.57413
  20
2.84257
  30
0
  11
7.22819
  21
2.45577
  31
0
  0
LINE
  8
0
  10
7.22819
  20
2.45577
  30
0
  11
7.90524
  21
2.11079
  31
0
  0
LINE
  8
0
  10
7.90524
  20
2.11079
  30
0
  11
8.60262
  21
1.80901
  31
0
  0
LINE
  8
0
  10
8.60262
  20
1.80901
  30
0
  11
9.31758
  21
1.55161
  31
0
  0
LINE
  8
0
  10
9.31758
  20
1.55161
  30
0
  11
10.04728
  21
1.33961
  31
0
  0
LINE
  8
0
  10
10.04728
  20
1.33961
  30
0
  11
10.78885
  21
1.17385
  31
0
  0
LINE
  8
0
  10
10.78885
  20
1.17385
  30
0
  11
11.53937
  21
1.05498
  31
0
  0
LINE
  8
0
  10
11.53937
  20
1.05498
  30
0
  11
12.29588
  21
0.98347
  31
0
  0
LINE
  8
0
  10
12.29588
  20
0.98347
  30
0
  11
13.05538
  21
0.9596
  31
0
  0
LINE
  8
0
  10
13.05538
  20
0.9596
  30
0
  11
13.81488
  21
0.98347
  31
0
  0
LINE
  8
0
  10
13.81488
  20
0.98347
  30
0
  11
14.57138
  21
1.05498
  31
0
  0
LINE
  8
0
  10
14.57138
  20
1.05498
  30
0
  11
15.3219
  21
1.17385
  31
0
  0
LINE
  8
0
  10
15.3219
  20
1.17385
  30
0
  11
16.06347
  21
1.33961
  31
0
  0
LINE
  8
0
  10
16.06347
  20
1.33961
  30
0
  11
16.79318
  21
1.55161
  31
0
  0
LINE
  8
0
  10
16.79318
  20
1.55161
  30
0
  11
17.50813
  21
1.80901
  31
0
  0
LINE
  8
0
  10
17.50813
  20
1.80901
  30
0
  11
18.20551
  21
2.11079
  31
0
  0
LINE
  8
0
  10
18.20551
  20
2.11079
  30
0
  11
18.88256
  21
2.45577
  31
0
  0
LINE
  8
0
  10
18.88256
  20
2.45577
  30
0
  11
19.53662
  21
2.84257
  31
0
  0
LINE
  8
0
  10
19.53662
  20
2.84257
  30
0
  11
20.16509
  21
3.26969
  31
0
  0
LINE
  8
0
  10
20.16509
  20
3.26969
  30
0
  11
20.76551
  21
3.73542
  31
0
  0
LINE
  8
0
  10
20.76551
  20
3.73542
  30
0
  11
21.3355
  21
4.23793
  31
0
  0
LINE
  8
0
  10
21.3355
  20
4.23793
  30
0
  11
21.87282
  21
4.77525
  31
0
  0
LINE
  8
0
  10
21.87282
  20
4.77525
  30
0
  11
22.37533
  21
5.34524
  31
0
  0
LINE
  8
0
  10
22.37533
  20
5.34524
  30
0
  11
22.84106
  21
5.94566
  31
0
  0
LINE
  8
0
  10
22.84106
  20
5.94566
  30
0
  11
23.26818
  21
6.57413
  31
0
  0
LINE
  8
0
  10
23.26818
  20
6.57413
  30
0
  11
23.65498
  21
7.22819
  31
0
  0
LINE
  8
0
  10
23.65498
  20
7.22819
  30
0
  11
23.99996
  21
7.90524
  31
0
  0
LINE
  8
0
  10
23.99996
  20
7.90524
  30
0
  11
24.30174
  21
8.60262
  31
0
  0
LINE
  8
0
  10
24.30174
  20
8.60262
  30
0
  11
24.55914
  21
9.31758
  31
0
  0
LINE
  8
0
  10
24.55914
  20
9.31758
  30
0
  11
24.77114
  21
10.04728
  31
0
  0
LINE
  8
0
  10
24.77114
  20
10.04728
  30
0
  11
24.9369
  21
10.78885
  31
0
  0
LINE
  8
0
  10
24.9369
  20
10.78885
  30
0
  11
25.05577
  21
11.53937
  31
0
  0
LINE
  8
0
  10
25.05577
  20
11.53937
  30
0
  11
25.12728
  21
12.29588
  31
0
  0
LINE
  8
0
  10
25.12728
  20
12.29588
  30
0
  11
25.15115
  21
13.05538
  31
0
  0
LINE
  8
0
  10
25.15115
  20
13.05538
  30
0
  11
25.15115
  21
13.05538
  31
0
  0
LINE
  8
0
  10
8.70358
  20
13.05538
  30
0
  11
17.40717
  21
13.05538
  31
0
  0
LINE
  8
0
  10
13.05538
  20
8.70358
  30
0
  11
13.05538
  21
17.40717
  31
0
  0
ENDSEC
  0
EOF
