  0
SECTION
  2
HEADER
  9
$ACADVER
  1
AC1009
  9
$INSBASE
 10
0.0
 20
0.0
 30
0.0
  9
$EXTMIN
 10
0.0
 20
0.0
 30
0.0
  9
$EXTMAX
 10
0.0
 20
0.0
 30
0.0
  0
ENDSEC
  0
SECTION
  2
TABLES
  0
TABLE
  2
VPORT
 70
0
  0
ENDTAB
  0
TABLE
  2
LTYPE
 70
1
  0
LTYPE
  2
CONTINUOUS
 70
0
  3
Solid line
 72
65
 73
0
 40
0.0
  0
ENDTAB
  0
TABLE
  2
LAYER
 70
1
  0
LAYER
  2
0
 70
64
 62
7
  6
continuous
  0
ENDTAB
  0
TABLE
  2
STYLE
 70
1
  0
STYLE
  2
STANDARD
 70
0
 40
0
 41
1.0
 50
0.0
 71
0
 42
1
 3
ARIAL.TTF
 4

  0
ENDTAB
  0
TABLE
  2
VIEW
 70
0
  0
ENDTAB
  0
ENDSEC
  0
SECTION
  2
BLOCKS
  0
BLOCK
  8
0
  2
POCKET002
 70
0
 10
0.0
 20
0.0
 30
0.0
  3
POCKET002
  0
ARC
  8
0
 62
0
 10
-3.5527136788e-15
 20
1.06581410364e-14
 30
0.0
 40
73.0
 50
1.764705
 51
-178.235295
  0
LINE
  8
0
 62
0
 10
-72.9653775737
 20
-2.24803815094
 30
0.0
 11
-65.8605139481
 21
-2.02913974982
 31
0.0
  0
LINE
  8
0
 62
0
 10
-65.8605139481
 20
-2.02913974982
 30
0.0
 11
-65.880268177
 21
-1.38797000302
 31
0.0
  0
ARC
  8
0
 62
0
 10
-56.5977532735
 20
-22.7439380278
 30
0.0
 40
23.2861
 50
108.35019097
 51
113.49249898
  0
ARC
  8
0
 62
0
 10
1.87146298458e-10
 20
-6.42264019746e-14
 30
0.0
 40
63.9320000002
 50
179.424689075
 51
-179.424689075
  0
ARC
  8
0
 62
0
 10
-56.5977532735
 20
22.7439380278
 30
0.0
 40
23.2861
 50
-113.49249898
 51
-108.35019097
  0
LINE
  8
0
 62
0
 10
-65.880268177
 20
1.38797000302
 30
0.0
 11
-65.8407596566
 21
2.67031152512
 31
0.0
  0
ARC
  8
0
 62
0
 10
-57.8905433754
 20
-19.2165912775
 30
0.0
 40
23.2861
 50
104.820779206
 51
109.963087215
  0
ARC
  8
0
 62
0
 10
2.20381934923e-10
 20
-1.33690836179e-11
 30
0.0
 40
63.9320000002
 50
175.89527731
 51
177.045899161
  0
ARC
  8
0
 62
0
 10
-55.0902685073
 20
26.1850092308
 30
0.0
 40
23.2861
 50
-117.021910744
 51
-111.879602735
  0
LINE
  8
0
 62
0
 10
-65.6698702745
 20
5.44098648553
 30
0.0
 11
-65.5514945827
 21
6.718463647
 31
0.0
  0
ARC
  8
0
 62
0
 10
-58.9637348172
 20
-15.6163494143
 30
0.0
 40
23.2861
 50
101.291367441
 51
106.43367545
  0
ARC
  8
0
 62
0
 10
-6.03002092703e-11
 20
7.50555173568e-12
 30
0.0
 40
63.9319999999
 50
172.365865545
 51
173.516487396
  0
ARC
  8
0
 62
0
 10
-53.3738074828
 20
29.5267517248
 30
0.0
 40
23.2861
 50
-120.551322509
 51
-115.4090145
  0
LINE
  8
0
 62
0
 10
-65.2103640604
 20
9.47336344261
 30
0.0
 11
-65.0135702368
 21
10.741130335
 31
0.0
  0
ARC
  8
0
 62
0
 10
-59.8132566163
 20
-11.9568693887
 30
0.0
 40
23.2861
 50
97.7619556762
 51
102.904263686
  0
ARC
  8
0
 62
0
 10
1.63243640827e-10
 20
-3.04840597209e-11
 30
0.0
 40
63.9320000002
 50
168.836453781
 51
169.987075631
  0
ARC
  8
0
 62
0
 10
-51.4548813246
 20
32.7564891358
 30
0.0
 40
23.2861
 50
-124.080734274
 51
-118.938426264
  0
LINE
  8
0
 62
0
 10
-64.5034925992
 20
13.4698046873
 30
0.0
 11
-64.2290271501
 21
14.7230522366
 31
0.0
  0
ARC
  8
0
 62
0
 10
-60.4358862454
 20
-8.25203286204
 30
0.0
 40
23.2861
 50
94.2325439115
 51
99.3748519208
  0
ARC
  8
0
 62
0
 10
7.62554464018e-11
 20
-1.93187688069e-11
 30
0.0
 40
63.9320000001
 50
165.307042016
 51
166.457663867
  0
ARC
  8
0
 62
0
 10
-49.3407691769
 20
35.8619699635
 30
0.0
 40
23.2861
 50
-127.610146039
 51
-122.467838029
  0
LINE
  8
0
 62
0
 10
-63.5519372964
 20
17.415150349
 30
0.0
 11
-63.2008413633
 21
18.6491245579
 31
0.0
  0
ARC
  8
0
 62
0
 10
-60.8292618572
 20
-4.51589354818
 30
0.0
 40
23.2861
 50
90.7031321468
 51
95.8454401561
  0
ARC
  8
0
 62
0
 10
2.19856133299e-10
 20
-7.00666191733e-11
 30
0.0
 40
63.9320000002
 50
161.777630251
 51
162.928252102
  0
ARC
  8
0
 62
0
 10
-47.0394905912
 20
38.8314140555
 30
0.0
 40
23.2861
 50
-131.139557803
 51
-125.997249794
  0
LINE
  8
0
 62
0
 10
-62.3593077273
 20
21.2944343804
 30
0.0
 11
-61.9329131373
 21
22.5044543621
 31
0.0
  0
ARC
  8
0
 62
0
 10
-60.9918912431
 20
-0.762623903266
 30
0.0
 40
23.2861
 50
87.1737203821
 51
92.3160283914
  0
ARC
  8
0
 62
0
 10
4.76987338516e-11
 20
-1.8449242134e-11
 30
0.0
 40
63.9320000001
 50
158.248218486
 51
159.398840337
  0
ARC
  8
0
 62
0
 10
-44.5597751054
 20
41.6535572932
 30
0.0
 40
23.2861
 50
-134.668969568
 51
-129.526661559
  0
LINE
  8
0
 62
0
 10
-60.9301279443
 20
25.0929413282
 30
0.0
 11
-60.4300521581
 21
26.2744170624
 31
0.0
  0
ARC
  8
0
 62
0
 10
-60.9231574942
 20
2.99353863531
 30
0.0
 40
23.2861
 50
83.6443086174
 51
88.7866166267
  0
ARC
  8
0
 62
0
 10
2.37164954342e-10
 20
-1.09023901018e-10
 30
0.0
 40
63.9320000003
 50
154.718806722
 51
155.869428572
  0
ARC
  8
0
 62
0
 10
-41.9110291298
 20
44.3176943207
 30
0.0
 40
23.2861
 50
-138.198381333
 51
-133.056073323
  0
LINE
  8
0
 62
0
 10
-59.2698193158
 20
28.7962621546
 30
0.0
 11
-58.6979592923
 21
29.9447118992
 31
0.0
  0
ARC
  8
0
 62
0
 10
-60.6233213412
 20
6.7383456565
 30
0.0
 40
23.2861
 50
80.1148968526
 51
85.257204862
  0
ARC
  8
0
 62
0
 10
8.83808581875e-11
 20
-4.70947725262e-11
 30
0.0
 40
63.9320000001
 50
151.189394957
 51
152.340016808
  0
ARC
  8
0
 62
0
 10
-39.1033002651
 20
46.8137191537
 30
0.0
 40
23.2861
 50
-141.727793097
 51
-136.585485088
  0
LINE
  8
0
 62
0
 10
-57.3846799613
 20
32.3903488951
 30
0.0
 11
-56.7432049612
 21
33.5014161869
 31
0.0
  0
ARC
  8
0
 62
0
 10
-60.0935201653
 20
10.4575918246
 30
0.0
 40
23.2861
 50
76.5854850879
 51
81.7277930973
  0
ARC
  8
0
 62
0
 10
3.93072241422e-11
 20
-2.45243825248e-11
 30
0.0
 40
63.932
 50
147.659983192
 51
148.810605043
  0
ARC
  8
0
 62
0
 10
-36.1472391886
 20
49.132163515
 30
0.0
 40
23.2861
 50
-145.257204862
 51
-140.114896853
  0
LINE
  8
0
 62
0
 10
-55.2818608599
 20
35.8615679478
 30
0.0
 11
-54.5732042178
 21
36.9310381279
 31
0.0
  0
ARC
  8
0
 62
0
 10
-59.3357636838
 20
14.1371687648
 30
0.0
 40
23.2861
 50
73.0560733232
 51
78.1983813326
  0
ARC
  8
0
 62
0
 10
7.3587358429e-11
 20
-5.22106802237e-11
 30
0.0
 40
63.9320000001
 50
144.130571428
 51
145.281193278
  0
ARC
  8
0
 62
0
 10
-33.0540592525
 20
51.2642327511
 30
0.0
 40
23.2861
 50
-148.786616627
 51
-143.644308617
  0
LINE
  8
0
 62
0
 10
-52.9693387247
 20
39.1967517897
 30
0.0
 11
-52.196188618
 21
40.2205679915
 31
0.0
  0
ARC
  8
0
 62
0
 10
-58.3529263266
 20
17.7631185816
 30
0.0
 40
23.2861
 50
69.5266615585
 51
74.6689695679
  0
ARC
  8
0
 62
0
 10
2.78209455473e-10
 20
-2.24311236252e-10
 30
0.0
 40
63.9320000004
 50
140.601159663
 51
141.751781514
  0
ARC
  8
0
 62
0
 10
-29.8354939478
 20
53.201839193
 30
0.0
 40
23.2861
 50
-152.316028391
 51
-147.173720382
  0
LINE
  8
0
 62
0
 10
-50.4558857445
 20
42.3832489262
 30
0.0
 11
-49.6211749962
 21
43.357527464
 31
0.0
  0
ARC
  8
0
 62
0
 10
-57.1487363325
 20
21.3216868053
 30
0.0
 40
23.2861
 50
65.9972497938
 51
71.1395578032
  0
ARC
  8
0
 62
0
 10
1.09189102204e-10
 20
-9.99591520667e-11
 30
0.0
 40
63.9320000001
 50
137.071747898
 51
138.222369749
  0
ARC
  8
0
 62
0
 10
-26.5037523951
 20
54.9376328358
 30
0.0
 40
23.2861
 50
-155.845440156
 51
-150.703132147
  0
LINE
  8
0
 62
0
 10
-47.7510363071
 20
45.4089718822
 30
0.0
 11
-46.8579312612
 21
46.3300169839
 31
0.0
  0
ARC
  8
0
 62
0
 10
-55.7277616066
 20
24.7993745677
 30
0.0
 40
23.2861
 50
62.4678380291
 51
67.6101460385
  0
ARC
  8
0
 62
0
 10
1.14415144026e-10
 20
-1.18077991829e-10
 30
0.0
 40
63.9320000002
 50
133.542336133
 51
134.692957984
  0
ARC
  8
0
 62
0
 10
-23.0714730313
 20
56.4650292198
 30
0.0
 40
23.2861
 50
-159.374851921
 51
-154.232543911
  0
LINE
  8
0
 62
0
 10
-44.8650508331
 20
48.262443054
 30
0.0
 11
-43.9169393428
 21
49.12676088
 31
0.0
  0
ARC
  8
0
 62
0
 10
-54.0953923926
 20
28.1829898079
 30
0.0
 40
23.2861
 50
58.9384262644
 51
64.0807342738
  0
ARC
  8
0
 62
0
 10
-7.86926079854e-12
 20
9.09849973141e-12
 30
0.0
 40
63.932
 50
130.012924369
 51
131.163546219
  0
ARC
  8
0
 62
0
 10
-19.5516756678
 20
57.7782344071
 30
0.0
 40
23.2861
 50
-162.904263686
 51
-157.761955676
  0
LINE
  8
0
 62
0
 10
-41.8088768539
 20
50.9328382483
 30
0.0
 11
-40.8093554308
 21
51.737150145
 31
0.0
  0
ARC
  8
0
 62
0
 10
-52.2578208263
 20
31.4596973144
 30
0.0
 40
23.2861
 50
55.4090144997
 51
60.5513225091
  0
ARC
  8
0
 62
0
 10
2.31874963674e-10
 20
-3.07725400717e-10
 30
0.0
 40
63.9320000004
 50
126.483512604
 51
127.634134455
  0
ARC
  8
0
 62
0
 10
-15.9577121015
 20
58.8722669609
 30
0.0
 40
23.2861
 50
-166.43367545
 51
-161.291367441
  0
LINE
  8
0
 62
0
 10
-38.5941074841
 20
53.4100277412
 30
0.0
 11
-37.5469676554
 21
54.1512826782
 31
0.0
  0
ARC
  8
0
 62
0
 10
-50.2220174459
 20
34.6170674132
 30
0.0
 40
23.2861
 50
51.879602735
 51
57.0219107444
  0
ARC
  8
0
 62
0
 10
1.76108017058e-10
 20
-2.65597321913e-10
 30
0.0
 40
63.9320000003
 50
122.954100839
 51
124.10472269
  0
ARC
  8
0
 62
0
 10
-12.3032154672
 20
59.7429768407
 30
0.0
 40
23.2861
 50
-169.963087215
 51
-164.820779206
  0
LINE
  8
0
 62
0
 10
-35.2329374451
 20
55.6846147046
 30
0.0
 11
-34.1421513708
 21
56.3600008479
 31
0.0
  0
ARC
  8
0
 62
0
 10
-47.995704751
 20
37.6431231181
 30
0.0
 40
23.2861
 50
48.3501909703
 51
53.4924989797
  0
ARC
  8
0
 62
0
 10
-3.17967874253e-11
 20
5.4651394521e-11
 30
0.0
 40
63.9319999999
 50
119.424689075
 51
120.575310925
  0
ARC
  8
0
 62
0
 10
-8.60204852256
 20
60.3870611459
 30
0.0
 40
23.2861
 50
-173.49249898
 51
-168.35019097
  0
LINE
  8
0
 62
0
 10
-31.7381168062
 20
57.7479708509
 30
0.0
 11
-30.6078222115
 21
58.3549262297
 31
0.0
  0
ARC
  8
0
 62
0
 10
-45.5873279082
 20
40.5263855632
 30
0.0
 40
23.2861
 50
44.8207792056
 51
49.9630872149
  0
ARC
  8
0
 62
0
 10
7.28945792616e-11
 20
-1.45522704997e-10
 30
0.0
 40
63.9320000002
 50
115.89527731
 51
117.045899161
  0
ARC
  8
0
 62
0
 10
-4.86825106142
 20
60.802076644
 30
0.0
 40
23.2861
 50
-177.021910744
 51
-171.879602735
  0
LINE
  8
0
 62
0
 10
-28.1229026191
 20
59.5922691637
 30
0.0
 11
-26.9573870986
 21
60.1284913882
 31
0.0
  0
ARC
  8
0
 62
0
 10
-43.0060227158
 20
43.2559175466
 30
0.0
 40
23.2861
 50
41.2913674409
 51
46.4336754502
  0
ARC
  8
0
 62
0
 10
-8.22009127432e-11
 20
1.94379623508e-10
 30
0.0
 40
63.9319999998
 50
112.365865545
 51
113.516487396
  0
ARC
  8
0
 62
0
 10
-1.11598665649
 20
60.9864490392
 30
0.0
 40
23.2861
 50
179.448677491
 51
-175.4090145
  0
LINE
  8
0
 62
0
 10
-24.4010086296
 20
61.2105135876
 30
0.0
 11
-23.2046933829
 21
61.6739685833
 31
0.0
  0
ARC
  8
0
 62
0
 10
-40.2615809485
 20
45.8213650184
 30
0.0
 40
23.2861
 50
37.7619556762
 51
42.9042636855
  0
ARC
  8
0
 62
0
 10
2.70627964483e-11
 20
-7.57651719141e-11
 30
0.0
 40
63.9320000001
 50
108.836453781
 51
109.987075631
  0
ARC
  8
0
 62
0
 10
2.64051106807
 20
60.9394789437
 30
0.0
 40
23.2861
 50
175.919265726
 51
-178.938426264
  0
LINE
  8
0
 62
0
 10
-20.5865532564
 20
62.5965655673
 30
0.0
 11
-19.3639763169
 21
62.9854952906
 31
0.0
  0
ARC
  8
0
 62
0
 10
-37.3644132141
 20
48.2129963577
 30
0.0
 40
23.2861
 50
34.2325439115
 51
39.3748519208
  0
ARC
  8
0
 62
0
 10
-3.44844153233e-11
 20
1.20305543305e-10
 30
0.0
 40
63.9319999999
 50
105.307042016
 51
106.457663867
  0
ARC
  8
0
 62
0
 10
6.38699242972
 20
60.6613445312
 30
0.0
 40
23.2861
 50
172.389853961
 51
177.532161971
  0
LINE
  8
0
 62
0
 10
-16.6940060352
 20
63.7451673329
 30
0.0
 11
-15.4498050561
 21
64.0580964401
 31
0.0
  0
ARC
  8
0
 62
0
 10
-34.3255094621
 20
50.4217392877
 30
0.0
 40
23.2861
 50
30.7031321468
 51
35.8454401561
  0
ARC
  8
0
 62
0
 10
6.45350439754e-12
 20
-2.85531598365e-11
 30
0.0
 40
63.932
 50
101.777630251
 51
102.928252102
  0
ARC
  8
0
 62
0
 10
10.1092457413
 20
60.1531008608
 30
0.0
 40
23.2861
 50
168.860442197
 51
174.002750206
  0
LINE
  8
0
 62
0
 10
-12.738132731
 20
64.6519618444
 30
0.0
 11
-11.4770273928
 21
64.8877032883
 31
0.0
  0
ARC
  8
0
 62
0
 10
-31.1563972953
 20
52.4392152897
 30
0.0
 40
23.2861
 50
27.1737203821
 51
32.3160283914
  0
ARC
  8
0
 62
0
 10
4.61497506876e-11
 20
-2.97529112459e-10
 30
0.0
 40
63.9320000003
 50
98.2482184864
 51
99.3988403371
  0
ARC
  8
0
 62
0
 10
13.7931512212
 20
59.4166758748
 30
0.0
 40
23.2861
 50
165.331030432
 51
170.473338441
  0
LINE
  8
0
 62
0
 10
-8.73393932625
 20
65.3135093197
 30
0.0
 11
-7.46071343337
 21
65.4711688522
 31
0.0
  0
ARC
  8
0
 62
0
 10
-27.8690982417
 20
54.2577713864
 30
0.0
 40
23.2861
 50
23.6443086174
 51
28.7866166267
  0
ARC
  8
0
 62
0
 10
-5.9059424018e-12
 20
6.64144295115e-11
 30
0.0
 40
63.9319999999
 50
94.7188067217
 51
95.8694285724
  0
ARC
  8
0
 62
0
 10
17.424734554
 20
58.4548630855
 30
0.0
 40
23.2861
 50
161.801618667
 51
166.943926677
  0
LINE
  8
0
 62
0
 10
-4.69661509801
 20
65.7273002825
 30
0.0
 11
-3.41609843241
 21
65.806279847
 31
0.0
  0
ARC
  8
0
 62
0
 10
-24.4760821526
 20
55.8705091715
 30
0.0
 40
23.2861
 50
20.1148968526
 51
25.257204862
  0
ARC
  8
0
 62
0
 10
-1.32616140291e-12
 20
3.51221274286e-11
 30
0.0
 40
63.932
 50
91.189394957
 51
92.3400168077
  0
ARC
  8
0
 62
0
 10
20.9902199002
 20
57.2713109782
 30
0.0
 40
23.2861
 50
158.272206903
 51
163.414514912
  0
LINE
  8
0
 62
0
 10
-0.641474999996
 20
65.8917650821
 30
0.0
 11
0.641475
 21
65.891765082
 31
0.0
  0
ARC
  8
0
 62
0
 10
-20.9902199002
 20
57.2713109782
 30
0.0
 40
23.2861
 50
16.5854850879
 51
21.7277930973
  0
ARC
  8
0
 62
0
 10
-3.16324744176e-12
 20
-1.05700337372e-10
 30
0.0
 40
63.9320000001
 50
87.6599831923
 51
88.810605043
  0
ARC
  8
0
 62
0
 10
24.4760821526
 20
55.8705091715
 30
0.0
 40
23.2861
 50
154.742795138
 51
159.885103147
  0
LINE
  8
0
 62
0
 10
3.41609843242
 20
65.806279847
 30
0.0
 11
4.69661509802
 21
65.7273002825
 31
0.0
  0
ARC
  8
0
 62
0
 10
-17.424734554
 20
58.4548630855
 30
0.0
 40
23.2861
 50
13.0560733232
 51
18.1983813326
  0
ARC
  8
0
 62
0
 10
-1.35296218673e-11
 20
-1.4479084598e-10
 30
0.0
 40
63.9320000001
 50
84.1305714276
 51
85.2811932783
  0
ARC
  8
0
 62
0
 10
27.8690982417
 20
54.2577713864
 30
0.0
 40
23.2861
 50
151.213383373
 51
156.355691383
  0
LINE
  8
0
 62
0
 10
7.46071343338
 20
65.4711688522
 30
0.0
 11
8.73393932625
 21
65.3135093196
 31
0.0
  0
ARC
  8
0
 62
0
 10
-13.7931512212
 20
59.4166758748
 30
0.0
 40
23.2861
 50
9.52666155853
 51
14.6689695679
  0
ARC
  8
0
 62
0
 10
-1.39461775461e-11
 20
-8.90096885087e-11
 30
0.0
 40
63.9320000001
 50
80.6011596629
 51
81.7517815136
  0
ARC
  8
0
 62
0
 10
31.1563972953
 20
52.4392152897
 30
0.0
 40
23.2861
 50
147.683971609
 51
152.826279618
  0
LINE
  8
0
 62
0
 10
11.4770273928
 20
64.8877032883
 30
0.0
 11
12.738132731
 21
64.6519618444
 31
0.0
  0
ARC
  8
0
 62
0
 10
-10.1092457414
 20
60.1531008608
 30
0.0
 40
23.2861
 50
5.99724979382
 51
11.1395578032
  0
ARC
  8
0
 62
0
 10
-4.91722218499e-11
 20
-2.24744667321e-10
 30
0.0
 40
63.9320000002
 50
77.0717478982
 51
78.2223697489
  0
ARC
  8
0
 62
0
 10
34.3255094621
 20
50.4217392877
 30
0.0
 40
23.2861
 50
144.154559844
 51
149.296867853
  0
LINE
  8
0
 62
0
 10
15.4498050561
 20
64.0580964401
 30
0.0
 11
16.6940060352
 21
63.7451673329
 31
0.0
  0
ARC
  8
0
 62
0
 10
-6.38699242972
 20
60.6613445312
 30
0.0
 40
23.2861
 50
2.46783802912
 51
7.61014603848
  0
ARC
  8
0
 62
0
 10
-5.34861044343e-12
 20
-1.94653182461e-11
 30
0.0
 40
63.932
 50
73.5423361335
 51
74.6929579842
  0
ARC
  8
0
 62
0
 10
37.3644132141
 20
48.2129963577
 30
0.0
 40
23.2861
 50
140.625148079
 51
145.767456089
  0
LINE
  8
0
 62
0
 10
19.3639763169
 20
62.9854952906
 30
0.0
 11
20.5865532564
 21
62.5965655673
 31
0.0
  0
ARC
  8
0
 62
0
 10
-2.64051106806
 20
60.9394789437
 30
0.0
 40
23.2861
 50
-1.06157373559
 51
4.08073427377
  0
ARC
  8
0
 62
0
 10
-3.19797521797e-11
 20
-9.08215724849e-11
 30
0.0
 40
63.9320000001
 50
70.0129243688
 51
71.1635462194
  0
ARC
  8
0
 62
0
 10
40.2615809485
 20
45.8213650184
 30
0.0
 40
23.2861
 50
137.095736314
 51
142.238044324
  0
LINE
  8
0
 62
0
 10
23.2046933829
 20
61.6739685833
 30
0.0
 11
24.4010086296
 21
61.2105135876
 31
0.0
  0
ARC
  8
0
 62
0
 10
1.1159866565
 20
60.9864490392
 30
0.0
 40
23.2861
 50
-4.59098550029
 51
0.551322509066
  0
ARC
  8
0
 62
0
 10
-5.70370417563e-11
 20
-1.34527056161e-10
 30
0.0
 40
63.9320000001
 50
66.4835126041
 51
67.6341344547
  0
ARC
  8
0
 62
0
 10
43.0060227158
 20
43.2559175466
 30
0.0
 40
23.2861
 50
133.56632455
 51
138.708632559
  0
LINE
  8
0
 62
0
 10
26.9573870987
 20
60.1284913882
 30
0.0
 11
28.1229026191
 21
59.5922691637
 31
0.0
  0
ARC
  8
0
 62
0
 10
4.86825106142
 20
60.802076644
 30
0.0
 40
23.2861
 50
-8.120397265
 51
-2.97808925564
  0
ARC
  8
0
 62
0
 10
4.54356552382e-11
 20
9.15143516522e-11
 30
0.0
 40
63.9319999999
 50
62.9541008394
 51
64.10472269
  0
ARC
  8
0
 62
0
 10
45.5873279082
 20
40.5263855632
 30
0.0
 40
23.2861
 50
130.036912785
 51
135.179220794
  0
LINE
  8
0
 62
0
 10
30.6078222115
 20
58.3549262297
 30
0.0
 11
31.7381168062
 21
57.7479708509
 31
0.0
  0
ARC
  8
0
 62
0
 10
8.60204852256
 20
60.3870611459
 30
0.0
 40
23.2861
 50
-11.6498090297
 51
-6.50750102035
  0
ARC
  8
0
 62
0
 10
-9.16333675605e-11
 20
-1.58561164199e-10
 30
0.0
 40
63.9320000002
 50
59.4246890747
 51
60.5753109253
  0
ARC
  8
0
 62
0
 10
47.995704751
 20
37.6431231181
 30
0.0
 40
23.2861
 50
126.50750102
 51
131.64980903
  0
LINE
  8
0
 62
0
 10
34.1421513708
 20
56.3600008479
 30
0.0
 11
35.2329374451
 21
55.6846147045
 31
0.0
  0
ARC
  8
0
 62
0
 10
12.3032154672
 20
59.7429768407
 30
0.0
 40
23.2861
 50
-15.1792207944
 51
-10.0369127851
  0
ARC
  8
0
 62
0
 10
3.15445447541e-11
 20
4.75139927403e-11
 30
0.0
 40
63.9319999999
 50
55.89527731
 51
57.0458991606
  0
ARC
  8
0
 62
0
 10
50.2220174459
 20
34.6170674132
 30
0.0
 40
23.2861
 50
122.978089256
 51
128.120397265
  0
LINE
  8
0
 62
0
 10
37.5469676554
 20
54.1512826782
 30
0.0
 11
38.5941074841
 21
53.4100277412
 31
0.0
  0
ARC
  8
0
 62
0
 10
15.9577121015
 20
58.8722669609
 30
0.0
 40
23.2861
 50
-18.7086325591
 51
-13.5663245498
  0
ARC
  8
0
 62
0
 10
-2.74976486025e-10
 20
-3.64689611843e-10
 30
0.0
 40
63.9320000005
 50
52.3658655453
 51
53.5164873959
  0
ARC
  8
0
 62
0
 10
52.2578208263
 20
31.4596973144
 30
0.0
 40
23.2861
 50
119.448677491
 51
124.5909855
  0
LINE
  8
0
 62
0
 10
40.8093554308
 20
51.737150145
 30
0.0
 11
41.8088768539
 21
50.9328382482
 31
0.0
  0
ARC
  8
0
 62
0
 10
19.5516756678
 20
57.7782344071
 30
0.0
 40
23.2861
 50
-22.2380443238
 51
-17.0957363145
  0
ARC
  8
0
 62
0
 10
1.33795197144e-11
 20
1.59801061272e-11
 30
0.0
 40
63.932
 50
48.8364537806
 51
49.9870756312
  0
ARC
  8
0
 62
0
 10
54.0953923926
 20
28.1829898079
 30
0.0
 40
23.2861
 50
115.919265726
 51
121.061573736
  0
LINE
  8
0
 62
0
 10
43.9169393428
 20
49.1267608801
 30
0.0
 11
44.8650508331
 21
48.262443054
 31
0.0
  0
ARC
  8
0
 62
0
 10
23.0714730313
 20
56.4650292198
 30
0.0
 40
23.2861
 50
-25.7674560885
 51
-20.6251480792
  0
ARC
  8
0
 62
0
 10
-3.04321901012e-10
 20
-3.13693959697e-10
 30
0.0
 40
63.9320000004
 50
45.3070420158
 51
46.4576638665
  0
ARC
  8
0
 62
0
 10
55.7277616066
 20
24.7993745677
 30
0.0
 40
23.2861
 50
112.389853961
 51
117.532161971
  0
LINE
  8
0
 62
0
 10
46.8579312612
 20
46.3300169839
 30
0.0
 11
47.7510363071
 21
45.4089718822
 31
0.0
  0
ARC
  8
0
 62
0
 10
26.5037523951
 20
54.9376328358
 30
0.0
 40
23.2861
 50
-29.2968678532
 51
-24.1545598439
  0
ARC
  8
0
 62
0
 10
-1.73447034513e-10
 20
-1.58383528515e-10
 30
0.0
 40
63.9320000002
 50
41.7776302511
 51
42.9282521018
  0
ARC
  8
0
 62
0
 10
57.1487363325
 20
21.3216868053
 30
0.0
 40
23.2861
 50
108.860442197
 51
114.002750206
  0
LINE
  8
0
 62
0
 10
49.6211749962
 20
43.357527464
 30
0.0
 11
50.4558857445
 21
42.3832489262
 31
0.0
  0
ARC
  8
0
 62
0
 10
29.8354939478
 20
53.201839193
 30
0.0
 40
23.2861
 50
-32.8262796179
 51
-27.6839716086
  0
ARC
  8
0
 62
0
 10
-1.67830194187e-10
 20
-1.35131017487e-10
 30
0.0
 40
63.9320000002
 50
38.2482184864
 51
39.3988403371
  0
ARC
  8
0
 62
0
 10
58.3529263266
 20
17.7631185816
 30
0.0
 40
23.2861
 50
105.331030432
 51
110.473338441
  0
LINE
  8
0
 62
0
 10
52.196188618
 20
40.2205679915
 30
0.0
 11
52.9693387247
 21
39.1967517897
 31
0.0
  0
ARC
  8
0
 62
0
 10
33.0540592525
 20
51.2642327511
 30
0.0
 40
23.2861
 50
-36.3556913826
 51
-31.2133833733
  0
ARC
  8
0
 62
0
 10
-2.08860484463e-10
 20
-1.47444723098e-10
 30
0.0
 40
63.9320000003
 50
34.7188067217
 51
35.8694285724
  0
ARC
  8
0
 62
0
 10
59.3357636838
 20
14.1371687648
 30
0.0
 40
23.2861
 50
101.801618667
 51
106.943926677
  0
LINE
  8
0
 62
0
 10
54.5732042178
 20
36.9310381279
 30
0.0
 11
55.2818608598
 21
35.8615679478
 31
0.0
  0
ARC
  8
0
 62
0
 10
36.1472391886
 20
49.132163515
 30
0.0
 40
23.2861
 50
-39.8851031474
 51
-34.742795138
  0
ARC
  8
0
 62
0
 10
-2.6459900937e-10
 20
-1.63939972708e-10
 30
0.0
 40
63.9320000003
 50
31.189394957
 51
32.3400168077
  0
ARC
  8
0
 62
0
 10
60.0935201653
 20
10.4575918245
 30
0.0
 40
23.2861
 50
98.2722069027
 51
103.414514912
  0
LINE
  8
0
 62
0
 10
56.7432049613
 20
33.5014161869
 30
0.0
 11
57.3846799612
 21
32.3903488951
 31
0.0
  0
ARC
  8
0
 62
0
 10
39.1033002651
 20
46.8137191537
 30
0.0
 40
23.2861
 50
-43.4145149121
 51
-38.2722069027
  0
ARC
  8
0
 62
0
 10
-2.12470041561e-10
 20
-1.13622888875e-10
 30
0.0
 40
63.9320000002
 50
27.6599831923
 51
28.810605043
  0
ARC
  8
0
 62
0
 10
60.6233213412
 20
6.73834565651
 30
0.0
 40
23.2861
 50
94.7427951379
 51
99.8851031474
  0
LINE
  8
0
 62
0
 10
58.6979592923
 20
29.9447118992
 30
0.0
 11
59.2698193158
 21
28.7962621546
 31
0.0
  0
ARC
  8
0
 62
0
 10
41.9110291298
 20
44.3176943207
 30
0.0
 40
23.2861
 50
-46.9439266768
 51
-41.8016186674
  0
ARC
  8
0
 62
0
 10
-1.67762692627e-10
 20
-7.70867814026e-11
 30
0.0
 40
63.9320000002
 50
24.1305714276
 51
25.2811932783
  0
ARC
  8
0
 62
0
 10
60.9231574942
 20
2.99353863531
 30
0.0
 40
23.2861
 50
91.2133833732
 51
96.3556913827
  0
LINE
  8
0
 62
0
 10
60.4300521581
 20
26.2744170624
 30
0.0
 11
60.9301279443
 21
25.0929413282
 31
0.0
  0
ARC
  8
0
 62
0
 10
44.5597751054
 20
41.6535572932
 30
0.0
 40
23.2861
 50
-50.4733384415
 51
-45.3310304321
  0
ARC
  8
0
 62
0
 10
-1.05604414102e-10
 20
-4.08171274557e-11
 30
0.0
 40
63.9320000001
 50
20.6011596629
 51
21.7517815136
  0
ARC
  8
0
 62
0
 10
60.9918912431
 20
-0.762623903268
 30
0.0
 40
23.2861
 50
87.6839716085
 51
92.826279618
  0
LINE
  8
0
 62
0
 10
61.9329131373
 20
22.5044543621
 30
0.0
 11
62.3593077273
 21
21.2944343804
 31
0.0
  0
ARC
  8
0
 62
0
 10
47.0394905912
 20
38.8314140555
 30
0.0
 40
23.2861
 50
-54.0027502062
 51
-48.8604421968
  0
ARC
  8
0
 62
0
 10
-5.43209921489e-12
 20
-1.36424205266e-12
 30
0.0
 40
63.932
 50
17.0717478982
 51
18.2223697489
  0
ARC
  8
0
 62
0
 10
60.8292618572
 20
-4.51589354818
 30
0.0
 40
23.2861
 50
84.1545598438
 51
89.2968678532
  0
LINE
  8
0
 62
0
 10
63.2008413633
 20
18.6491245579
 30
0.0
 11
63.5519372964
 21
17.415150349
 31
0.0
  0
ARC
  8
0
 62
0
 10
49.3407691768
 20
35.8619699635
 30
0.0
 40
23.2861
 50
-57.5321619709
 51
-52.3898539615
  0
ARC
  8
0
 62
0
 10
-7.60991269999e-11
 20
-1.93169924501e-11
 30
0.0
 40
63.9320000001
 50
13.5423361335
 51
14.6929579842
  0
ARC
  8
0
 62
0
 10
60.4358862454
 20
-8.25203286204
 30
0.0
 40
23.2861
 50
80.6251480791
 51
85.7674560885
  0
LINE
  8
0
 62
0
 10
64.2290271501
 20
14.7230522366
 30
0.0
 11
64.5034925992
 21
13.4698046873
 31
0.0
  0
ARC
  8
0
 62
0
 10
51.4548813246
 20
32.7564891358
 30
0.0
 40
23.2861
 50
-61.0615737356
 51
-55.9192657262
  0
ARC
  8
0
 62
0
 10
-9.84492487532e-11
 20
-1.82653892011e-11
 30
0.0
 40
63.9320000001
 50
10.0129243688
 51
11.1635462194
  0
ARC
  8
0
 62
0
 10
59.8132566163
 20
-11.9568693887
 30
0.0
 40
23.2861
 50
77.0957363144
 51
82.2380443238
  0
LINE
  8
0
 62
0
 10
65.0135702368
 20
10.741130335
 30
0.0
 11
65.2103640604
 21
9.47336344261
 31
0.0
  0
ARC
  8
0
 62
0
 10
53.3738074828
 20
29.5267517248
 30
0.0
 40
23.2861
 50
-64.5909855003
 51
-59.4486774909
  0
ARC
  8
0
 62
0
 10
-3.56571661086e-10
 20
-4.41513492433e-11
 30
0.0
 40
63.9320000004
 50
6.48351260408
 51
7.63413445474
  0
ARC
  8
0
 62
0
 10
58.9637348172
 20
-15.6163494143
 30
0.0
 40
23.2861
 50
73.5663245497
 51
78.7086325591
  0
LINE
  8
0
 62
0
 10
65.5514945827
 20
6.718463647
 30
0.0
 11
65.6698702745
 21
5.44098648552
 31
0.0
  0
ARC
  8
0
 62
0
 10
55.0902685073
 20
26.1850092308
 30
0.0
 40
23.2861
 50
-68.120397265
 51
-62.9780892556
  0
ARC
  8
0
 62
0
 10
-1.01820774034e-11
 20
-6.73017197528e-13
 30
0.0
 40
63.932
 50
2.95410083938
 51
4.10472269004
  0
ARC
  8
0
 62
0
 10
57.8905433754
 20
-19.2165912775
 30
0.0
 40
23.2861
 50
70.036912785
 51
75.1792207944
  0
LINE
  8
0
 62
0
 10
65.8407596566
 20
2.67031152512
 30
0.0
 11
65.8605139481
 21
2.02913974982
 31
0.0
  0
LINE
  8
0
 62
0
 10
65.8605139481
 20
2.02913974982
 30
0.0
 11
72.9653775737
 21
2.24803815094
 31
0.0
  0
CIRCLE
  8
0
 62
0
 10
64.8478989637
 20
25.0
 30
0.0
 40
2.25
  0
CIRCLE
  8
0
 62
0
 10
-64.8478989637
 20
25.0
 30
0.0
 40
2.25
  0
CIRCLE
  8
0
 62
0
 10
64.8478989637
 20
25.0
 30
0.0
 40
1.75
  0
CIRCLE
  8
0
 62
0
 10
-64.8478989637
 20
25.0
 30
0.0
 40
1.75
  0
LINE
  8
0
 62
0
 10
67.0978989637
 20
25.0
 30
0.0
 11
66.5978989637
 21
25.0
 31
0.0
  0
LINE
  8
0
 62
0
 10
-62.5978989637
 20
25.0
 30
0.0
 11
-63.0978989637
 21
25.0
 31
0.0
  0
ENDBLK
  0
ENDSEC
  0
SECTION
  2
ENTITIES
  0
INSERT
  2
POCKET002
  8
0
 10
0.0
 20
0.0
 30
0.0
  0
ENDSEC
  0
EOF
