  0
SECTION
  2
HEADER
  9
$ACADVER
  1
AC1009
  9
$INSBASE
 10
0.0
 20
0.0
 30
0.0
  9
$EXTMIN
 10
0.0
 20
0.0
 30
0.0
  9
$EXTMAX
 10
0.0
 20
0.0
 30
0.0
  0
ENDSEC
  0
SECTION
  2
TABLES
  0
TABLE
  2
VPORT
 70
0
  0
ENDTAB
  0
TABLE
  2
LTYPE
 70
1
  0
LTYPE
  2
CONTINUOUS
 70
0
  3
Solid line
 72
65
 73
0
 40
0.0
  0
ENDTAB
  0
TABLE
  2
LAYER
 70
1
  0
LAYER
  2
0
 70
64
 62
7
  6
continuous
  0
ENDTAB
  0
TABLE
  2
STYLE
 70
1
  0
STYLE
  2
STANDARD
 70
0
 40
0
 41
1.0
 50
0.0
 71
0
 42
1
 3
ARIAL.TTF
 4

  0
ENDTAB
  0
TABLE
  2
VIEW
 70
0
  0
ENDTAB
  0
ENDSEC
  0
SECTION
  2
BLOCKS
  0
BLOCK
  8
0
  2
SKETCH
 70
0
 10
0.0
 20
0.0
 30
0.0
  3
SKETCH
  0
CIRCLE
  8
0
 62
7
 10
0.0
 20
0.0
 30
0.0
 40
304.8
  0
POLYLINE
  8
0
 62
7
 70
1
 66
1
 10
0.0
 20
0.0
 30
0.0
  0
VERTEX
  8
0
 10
-47.625
 20
-203.2
 30
0.0
  0
VERTEX
  8
0
 10
47.625
 20
-203.2
 30
0.0
  0
VERTEX
  8
0
 10
47.625
 20
-266.7
 30
0.0
  0
VERTEX
  8
0
 10
-47.625
 20
-266.7
 30
0.0
  0
SEQEND
  8
0
  0
POLYLINE
  8
0
 62
7
 70
1
 66
1
 10
0.0
 20
0.0
 30
0.0
  0
VERTEX
  8
0
 10
-47.625
 20
-273.05
 30
0.0
  0
VERTEX
  8
0
 10
-28.575
 20
-273.05
 30
0.0
  0
VERTEX
  8
0
 10
-28.575
 20
-292.1
 30
0.0
  0
VERTEX
  8
0
 10
-47.625
 20
-292.1
 30
0.0
  0
SEQEND
  8
0
  0
POLYLINE
  8
0
 62
7
 70
1
 66
1
 10
0.0
 20
0.0
 30
0.0
  0
VERTEX
  8
0
 10
-22.225
 20
-273.05
 30
0.0
  0
VERTEX
  8
0
 10
-3.175
 20
-273.05
 30
0.0
  0
VERTEX
  8
0
 10
-3.175
 20
-292.1
 30
0.0
  0
VERTEX
  8
0
 10
-22.225
 20
-292.1
 30
0.0
  0
SEQEND
  8
0
  0
POLYLINE
  8
0
 62
7
 70
1
 66
1
 10
0.0
 20
0.0
 30
0.0
  0
VERTEX
  8
0
 10
3.175
 20
-273.05
 30
0.0
  0
VERTEX
  8
0
 10
22.225
 20
-273.05
 30
0.0
  0
VERTEX
  8
0
 10
22.225
 20
-292.1
 30
0.0
  0
VERTEX
  8
0
 10
3.175
 20
-292.1
 30
0.0
  0
SEQEND
  8
0
  0
POLYLINE
  8
0
 62
7
 70
1
 66
1
 10
0.0
 20
0.0
 30
0.0
  0
VERTEX
  8
0
 10
28.575
 20
-273.05
 30
0.0
  0
VERTEX
  8
0
 10
47.625
 20
-273.05
 30
0.0
  0
VERTEX
  8
0
 10
47.625
 20
-292.1
 30
0.0
  0
VERTEX
  8
0
 10
28.575
 20
-292.1
 30
0.0
  0
SEQEND
  8
0
  0
CIRCLE
  8
0
 62
7
 10
0.0
 20
0.0
 30
0.0
 40
101.6
  0
CIRCLE
  8
0
 62
7
 10
-79.375
 20
-234.95
 30
0.0
 40
20.32
  0
POLYLINE
  8
0
 62
7
 70
1
 66
1
 10
0.0
 20
0.0
 30
0.0
  0
VERTEX
  8
0
 10
53.975
 20
-209.55
 30
0.0
  0
VERTEX
  8
0
 10
73.025
 20
-209.55
 30
0.0
  0
VERTEX
  8
0
 10
73.025
 20
-228.6
 30
0.0
  0
VERTEX
  8
0
 10
53.975
 20
-228.6
 30
0.0
  0
SEQEND
  8
0
  0
POLYLINE
  8
0
 62
7
 70
1
 66
1
 10
0.0
 20
0.0
 30
0.0
  0
VERTEX
  8
0
 10
53.975
 20
-241.3
 30
0.0
  0
VERTEX
  8
0
 10
73.025
 20
-241.3
 30
0.0
  0
VERTEX
  8
0
 10
73.025
 20
-260.35
 30
0.0
  0
VERTEX
  8
0
 10
53.975
 20
-260.35
 30
0.0
  0
SEQEND
  8
0
  0
POLYLINE
  8
0
 62
7
 70
0
 66
1
 10
0.0
 20
0.0
 30
0.0
  0
VERTEX
  8
0
 10
-215.526146906
 20
215.526146906
 30
0.0
  0
VERTEX
  8
0
 10
0.0
 20
0.0
 30
0.0
  0
VERTEX
  8
0
 10
-179.156944899
 20
-246.588379885
 30
0.0
  0
SEQEND
  8
0
  0
CIRCLE
  8
0
 62
7
 10
-60.5446265832
 20
-118.813175582
 30
0.0
 40
19.05
  0
CIRCLE
  8
0
 62
7
 10
-20.8605359131
 20
-131.708240218
 30
0.0
 40
19.05
  0
CIRCLE
  8
0
 62
7
 10
20.8605359131
 20
-131.708240218
 30
0.0
 40
19.05
  0
CIRCLE
  8
0
 62
7
 10
60.5396331403
 20
-118.815720001
 30
0.0
 40
19.05
  0
CIRCLE
  8
0
 62
7
 10
94.2926892712
 20
-94.2926892712
 30
0.0
 40
19.05
  0
CIRCLE
  8
0
 62
7
 10
-94.2926892712
 20
-94.2926892712
 30
0.0
 40
19.05
  0
CIRCLE
  8
0
 62
7
 10
104.508217858
 20
-143.8432216
 30
0.0
 40
21.59
  0
CIRCLE
  8
0
 62
7
 10
54.9432215999
 20
-169.097848597
 30
0.0
 40
21.59
  0
CIRCLE
  8
0
 62
7
 10
3.74972957076e-14
 20
-177.8
 30
0.0
 40
21.59
  0
CIRCLE
  8
0
 62
7
 10
-54.9432215999
 20
-169.097848597
 30
0.0
 40
21.59
  0
CIRCLE
  8
0
 62
7
 10
-104.508217858
 20
-143.8432216
 30
0.0
 40
21.59
  0
CIRCLE
  8
0
 62
7
 10
-157.154482119
 20
-157.154482119
 30
0.0
 40
25.4
  0
CIRCLE
  8
0
 62
7
 10
-100.899388567
 20
-198.026200001
 30
0.0
 40
25.4
  0
CIRCLE
  8
0
 62
7
 10
157.154482119
 20
-157.154482119
 30
0.0
 40
25.4
  0
CIRCLE
  8
0
 62
7
 10
101.197569361
 20
-197.873986303
 30
0.0
 40
25.4
  0
CIRCLE
  8
0
 62
7
 10
-155.311813
 20
-214.131807
 30
0.0
 40
25.4
  0
CIRCLE
  8
0
 62
7
 10
155.774927
 20
-215.171838
 30
0.0
 40
25.4
  0
CIRCLE
  8
0
 62
7
 10
0.0
 20
0.0
 30
0.0
 40
133.35
  0
CIRCLE
  8
0
 62
7
 10
0.0
 20
0.0
 30
0.0
 40
177.8
  0
CIRCLE
  8
0
 62
7
 10
0.0
 20
0.0
 30
0.0
 40
222.25
  0
CIRCLE
  8
0
 62
7
 10
0.0
 20
0.0
 30
0.0
 40
266.7
  0
ENDBLK
  0
ENDSEC
  0
SECTION
  2
ENTITIES
  0
INSERT
  2
SKETCH
  8
0
 10
0.0
 20
0.0
 30
0.0
  0
ENDSEC
  0
EOF
